<ttFont>
<head>
    <!-- Most of this table will be recalculated by the compiler -->
    <tableVersion value="1.0"/>
    <fontRevision value="2.004"/>
    <checkSumAdjustment value="0x146a36e8"/>
    <magicNumber value="0x5f0f3cf5"/>
    <flags value="00000000 00000011"/>
    <unitsPerEm value="1000"/>
    <created value="Thu Oct  8 10:02:42 2009"/>
    <modified value="Thu Oct  8 10:02:42 2009"/>
    <xMin value="-444"/>
    <yMin value="-311"/>
    <xMax value="715"/>
    <yMax value="1019"/>
    <macStyle value="00000000 00000000"/>
    <lowestRecPPEM value="3"/>
    <fontDirectionHint value="2"/>
    <indexToLocFormat value="0"/>
    <glyphDataFormat value="0"/>
  </head>
          <CharString index="0">
            487 29 rmoveto
            29 -23 0 -33 vhcurveto
            -123 531 rlineto
            36 -8 -20 0 -23 hhcurveto
            -31 -12 -4 -32 -7 hvcurveto
            -124 -531 rlineto
            -33 -23 -57 callgsubr
            29 -24 0 -31 hvcurveto
            26 112 rlineto
            162 hlineto
            26 -112 rlineto
            -31 -24 -57 callgsubr
            hvcurveto
            -162 199 rmoveto
            -136 hlineto
            7 30 55 236 5 48 rrcurveto
            1 hlineto
            3 -23 14 -62 0 vvcurveto
            return
          </CharString>
          <CharString index="1">
            509 -73 callsubr
            -26 -20 2 6 -14 vhcurveto
            218 vlineto
            76 -57 80 -135 -42 -97 0 -69 -27 19 -15 22 6 33 2 42 1 vhcurveto
            5 1 1 21 2 vhcurveto
            1 12 13 0 12 hhcurveto
            23 34 0 -25 33 hvcurveto
            36 -28 0 -28 -29 vvcurveto
            -59 -2 -58 -4 -62 -20 rrcurveto
            -50 -17 -64 -36 -68 vvcurveto
            return
          </CharString>
          <CharString index="2">
            93 callgsubr
            14 hvcurveto
            return
          </CharString>
          <CharString index="3">
            rmoveto
            -118 43 -6 2 -7 0 -6 -2 rlinecurve
            -118 -43 -36 -13 18 -54 36 11 rlinecurve
            109 33 109 -33 36 -11 18 54 -35 13 rlinecurve
            return
          </CharString>
          <CharString index="4">
            -71 callgsubr
            -3 callgsubr
            vhcurveto
            -65 9 rmoveto
            -62 0 -77 -11 -54 vhcurveto
            -51 -11 -22 -24 -93 hhcurveto
            -91 -22 24 46 -11 hvcurveto
            -13 51 0 90 57 vvcurveto
            64 0 71 11 48 vhcurveto
            55 14 30 13 82 hhcurveto
            79 32 -12 -53 14 hvcurveto
            12 -47 0 -78 -61 vvcurveto
            return
          </CharString>
          <CharString index="5">
            rmoveto
            -29 callgsubr
            -25 -20 -20 -25 -25 20 -20 25 25 20 20 25 vhcurveto
            return
          </CharString>
          <CharString index="6">
            23 -18 18 -22 -23 -18 -18 -23 -22 18 -18 23 22 18 18 22 vhcurveto
            return
          </CharString>
          <CharString index="7">
            rmoveto
            12 14 -2 21 -14 11 -83 72 rcurveline
            -14 12 -21 -2 -12 -14 -12 -14 2 -21 14 -11 83 -72 rcurveline
            14 -12 21 2 12 14 rrcurveto
            -190 hmoveto
            12 14 -2 21 -14 11 -83 72 rcurveline
            -14 12 -21 -2 -12 -14 -12 -14 2 -21 14 -11 83 -72 rcurveline
            14 -12 21 2 12 14 rrcurveto
            endchar
          </CharString>
          <CharString index="8">
            493 41 rmoveto
            81 vlineto
            18 47 callsubr
            -19 vhcurveto
            -64 -267 230 132 vlineto
            -35 0 -19 33 32 0 23 18 vhcurveto
            -16 callsubr
            -19 -35 vhcurveto
            -132 207 hlineto
            return
          </CharString>
          <CharString index="9">
            245 -49 hlineto
            -43 callgsubr
            22 19 57 callsubr
            -362 -78 callgsubr
            return
          </CharString>
          <CharString index="10">
            486 241 -43 callsubr
            41 hlineto
            -61 -5 -27 -105 -82 hhcurveto
            -81 -77 109 150 154 80 106 79 48 53 -38 -100 13 hvcurveto
            -25 3 19 0 10 hhcurveto
            33 0 18 20 hvcurveto
            145 vlineto
            16 0 22 -28 -17 -6 -11 -5 -3 vhcurveto
            -13 -32 rlineto
            30 -33 -40 18 -44 hhcurveto
            -118 -101 -135 -182 -185 102 -133 117 43 42 18 37 34 hvcurveto
            -26 0 -19 33 32 0 21 19 vhcurveto
            174 vlineto
            20 107 callsubr
            return
          </CharString>
          <CharString index="11">
            456 216 rmoveto
            125 -91 99 -108 -108 -91 -99 -125 -126 92 -96 107 107 92 96 126 vhcurveto
            -65 7 rmoveto
            -96 -62 -75 -72 -72 -62 76 95 93 64 66 70 70 64 -66 -93 vhcurveto
            return
          </CharString>
          <CharString index="12">
            -31 27 19 -12 27 hhcurveto
            34 33 26 8 10 hvcurveto
            25 19 23 17 18 vvcurveto
            endchar
          </CharString>
          <CharString index="13">
            rmoveto
            18 -14 6 -8 4 vhcurveto
            -149 71 rlineto
            -34 -5 -22 -11 -13 8 -12 18 -8 hvcurveto
            146 -69 rlineto
            36 2 33 3 hvcurveto
            endchar
          </CharString>
          <CharString index="14">
            441 -70 callsubr
            -99 -8 callsubr
            -132 -105 callgsubr
            107 -315 -114 -105 callsubr
            278 -84 callsubr
            return
          </CharString>
          <CharString index="15">
            476 639 rmoveto
            27 -8 35 -36 vhcurveto
            -2 hlineto
            -27 -1 -17 -21 -23 vvcurveto
            -18 10 -16 17 -7 vhcurveto
            -9 -5 -7 -4 -7 hhcurveto
            21 -37 -53 0 -48 hhcurveto
            -64 -73 0 -51 -32 hvcurveto
            -32 -50 0 -125 -92 vvcurveto
            -91 0 -125 32 -50 vhcurveto
            -51 32 73 0 64 hhcurveto
            64 74 0 51 32 hvcurveto
            32 50 0 125 91 vvcurveto
            83 0 110 -24 57 vhcurveto
            27 16 15 34 34 vvcurveto
            -83 -321 rmoveto
            -78 0 -107 -22 -44 vhcurveto
            -39 -19 -50 -4 -46 hhcurveto
            -45 -50 4 39 -20 hvcurveto
            -21 44 0 107 78 vvcurveto
            71 0 97 21 39 vhcurveto
            38 21 50 2 44 hhcurveto
            45 49 -2 -38 21 hvcurveto
            22 -39 0 -97 -71 vvcurveto
            return
          </CharString>
          <CharString index="16">
            rmoveto
            15 -14 14 -15 -11 -7 -5 -9 -8 vhcurveto
            hintmask 10000000
            0 -44 -42 -24 -8 -6 5 8 -7 vhcurveto
            hintmask 01000000
            -92 callgsubr
            hintmask 10000000
            -15 14 -14 15 11 7 5 9 8 vhcurveto
            hintmask 01000000
            0 44 42 24 8 6 -5 -8 7 vhcurveto
            hintmask 10000000
            -95 callsubr
          </CharString>
          <CharString index="17">
            507 641 rmoveto
            26 -9 34 -35 vhcurveto
            -2 hlineto
            -27 -1 -17 -21 -23 vvcurveto
            -16 8 -15 14 -8 vhcurveto
            -5 -3 -5 -4 -6 -2 rrcurveto
            2 -3 -4 1 -4 hhcurveto
            -80 hlineto
            -14 -12 -12 -14 hvcurveto
            -6 vlineto
            -14 12 -12 14 vhcurveto
            42 -349 hlineto
            -43 -13 -40 -24 -31 vhcurveto
            -27 -21 -30 -17 -30 hhcurveto
            -30 -29 17 27 -21 hvcurveto
            -25 31 -12 40 43 vvcurveto
            349 41 vlineto
            15 12 12 14 hvcurveto
            6 vlineto
            14 -12 12 -15 vhcurveto
            -147 hlineto
            -14 -12 -12 -14 hvcurveto
            -6 vlineto
            -14 12 -12 14 vhcurveto
            41 -349 hlineto
            -56 18 -53 34 -42 vhcurveto
            -39 33 47 -26 50 hhcurveto
            51 47 26 39 33 hvcurveto
            return
          </CharString>
          <CharString index="18">
            -105 callsubr
            27 return
          </CharString>
          <CharString index="19">
            0 14 hvcurveto
            return
          </CharString>
          <CharString index="20">
            14 26 -81 callgsubr
            return
          </CharString>
          <CharString index="21">
            499 402 -43 callsubr
            47 hlineto
            -50 -305 rlineto
            -1 hlineto
            -4 26 -16 56 -10 32 rrcurveto
            65 -18 -3 12 -33 hhcurveto
            -32 -4 -12 -64 -18 hvcurveto
            -20 -68 -7 -29 -3 -18 rrcurveto
            -1 hlineto
            -52 305 rlineto
            47 -85 callsubr
            -112 hlineto
            38 callsubr
            25 0 24 hvcurveto
            60 -340 rlineto
            -35 6 16 -3 23 hhcurveto
            39 2 8 69 20 hvcurveto
            9 35 16 55 3 27 rrcurveto
            1 hlineto
            1 -13 5 -28 21 -77 rrcurveto
            -67 20 2 -9 38 hhcurveto
            17 20 0 37 7 hvcurveto
            60 341 rlineto
            24 25 0 29 hvcurveto
            return
          </CharString>
          <CharString index="22">
            hlineto
            -78 callsubr
            return
          </CharString>
          <CharString index="23">
            -74 callgsubr
            hvcurveto
            return
          </CharString>
          <CharString index="24">
            488 3 callsubr
            -381 hlineto
            -33 -8 -8 -33 hvcurveto
            -66 vlineto
            -43 callgsubr
            22 19 vhcurveto
            49 134 -495 -48 vlineto
            -14 -26 -102 callgsubr
            161 -39 callsubr
            return
          </CharString>
          <CharString index="25">
            -55 callsubr
            hintmask 1110001011010000
            -55 -30 -20 -54 -39 vvcurveto
            -83 101 -63 127 127 101 62 84 144 -177 0 -33 vhcurveto
            -85 hlineto
            -12 -46 0 54 19 3 4 4 8 hvcurveto
            -14 20 33 -13 36 hhcurveto
            91 70 73 86 hvcurveto
            hintmask 0011000100100000
            25 -6 31 -21 33 vhcurveto
            26 14 24 3 15 1 rrcurveto
            6 -31 30 -1 0 vvcurveto
            12 25 8 30 hvcurveto
            -176 -113 rmoveto
            -57 -43 -46 -53 -50 -45 44 59 59 46 44 49 vhcurveto
            hintmask 1100001001010000
            53 43 -46 -57 hvcurveto
            104 -361 rmoveto
            -46 -73 -44 -98 -98 -73 44 46 15 5 35 37 23 vhcurveto
            15 23 10 0 69 hhcurveto
            88 110 0 -88 hvcurveto
            return
          </CharString>
          <CharString index="26">
            479 41 rmoveto
            82 vlineto
            17 47 callsubr
            -18 vhcurveto
            -65 -241 495 52 -42 callsubr
            -150 -41 callsubr
            364 hlineto
            -30 callsubr
            return
          </CharString>
          <CharString index="27">
            -120 76 -9 6 -12 0 -9 -6 rlinecurve
            -118 -75 -33 -21 31 -49 33 20 rlinecurve
            103 62 103 -62 33 -20 31 48 -33 21 rlinecurve
            return
          </CharString>
          <CharString index="28">
            -45 callsubr
            184 204 rmoveto
            48 3 -35 3 -8 hhcurveto
            -35 -8 -37 -4 2 hvcurveto
            11 -213 rlineto
            -14 1 1 -26 28 hhcurveto
            27 1 26 11 1 hvcurveto
            endchar
          </CharString>
          <CharString index="29">
            14 27 -68 callgsubr
            return
          </CharString>
          <CharString index="30">
            -19 callgsubr
            166 -106 callgsubr
          </CharString>
          <CharString index="31">
            440 123 rmoveto
            20 0 22 -33 -32 0 -22 -21 vhcurveto
            -60 -1 -57 -10 -23 hhcurveto
            -78 0 50 24 hvcurveto
            247 162 -42 callsubr
            -162 82 hlineto
            18 0 23 -32 -33 0 -23 -18 vhcurveto
            -82 -85 vlineto
            -14 95 callgsubr
            86 -252 hlineto
            return
          </CharString>
          <CharString index="32">
            103 callgsubr
            55 callsubr
            return
          </CharString>
          <CharString index="33">
            -33 20 50 -2 38 hhcurveto
            24 24 0 29 hvcurveto
            -165 103 rmoveto
            -23 0 -21 -41 -19 vhcurveto
            return
          </CharString>
          <CharString index="34">
            29 -66 callsubr
            return
          </CharString>
          <CharString index="35">
            455 215 rmoveto
            58 -19 57 -39 44 vhcurveto
            28 15 16 35 35 vvcurveto
            -1 27 -8 34 -36 1 rrcurveto
            -2 hlineto
            -26 -1 -18 -22 -23 vvcurveto
            -17 10 -17 17 -7 vhcurveto
            -8 -5 -7 -5 -7 hhcurveto
            -5 -5 -2 -3 -4 hvcurveto
            15 -27 -30 8 -31 hhcurveto
            -54 -50 -25 -40 -36 hvcurveto
            -39 -44 -20 -57 -58 vvcurveto
            -57 20 -56 39 -43 vhcurveto
            -40 36 50 -25 54 hhcurveto
            54 51 25 40 36 hvcurveto
            return
          </CharString>
          <CharString index="36">
            474 169 rmoveto
            31 -21 0 -12 -14 -16 -5 -17 -2 vhcurveto
            -125 -8 -101 -7 -17 hhcurveto
            -93 -85 109 151 151 86 108 91 54 59 -43 -92 14 hvcurveto
            -22 3 9 -6 20 hhcurveto
            33 0 18 20 hvcurveto
            145 vlineto
            16 0 22 -28 -18 -5 -11 -7 -4 vhcurveto
            -3 -8 -8 -18 -3 -7 rrcurveto
            36 -41 -46 15 -42 hhcurveto
            -129 -107 -138 -179 return
          </CharString>
          <CharString index="37">
            -73 callsubr
            vhcurveto
            return
          </CharString>
          <CharString index="38">
            472 41 rmoveto
            -16 callsubr
            -22 -19 vhcurveto
            -67 -276 vlineto
            327 492 rlineto
            9 13 0 4 11 vvcurveto
            33 -22 0 -19 vhcurveto
            -327 hlineto
            -33 -8 -8 -33 hvcurveto
            -66 vlineto
            -43 callgsubr
            22 19 vhcurveto
            49 260 vlineto
            -327 -492 rlineto
            -9 -13 0 -4 -11 vvcurveto
            -33 22 0 19 vhcurveto
            344 hlineto
            -30 callsubr
            return
          </CharString>
          <CharString index="39">
            -41 -8 callsubr
            -66 -105 callgsubr
            41 -217 hlineto
            return
          </CharString>
          <CharString index="40">
            97 68 43 54 58 12 -33 -57 vhcurveto
            -231 -41 vlineto
            -14 -26 -102 callgsubr
            147 -84 callsubr
            return
          </CharString>
          <CharString index="41">
            rmoveto
            -79 callgsubr
            return
          </CharString>
          <CharString index="42">
            485 29 rmoveto
            29 -24 0 -25 vhcurveto
            -165 300 153 195 rlineto
            29 23 -81 callgsubr
            -84 -105 callgsubr
            -210 -268 rlineto
            268 20 -42 callsubr
            -96 6 callsubr
            96 32 callgsubr
            136 hlineto
            91 116 139 -252 rlineto
            -13 -26 -102 callgsubr
            72 -84 callsubr
            return
          </CharString>
          <CharString index="43">
            14 -9 callgsubr
            return
          </CharString>
          <CharString index="44">
            515 -12 0 callgsubr
            183 65 -39 65 22 65 hintmask 1010001010000000
            -51 callgsubr
            hintmask 0101110100000000
            55 32 30 54 54 vvcurveto
            83 -73 84 -118 vhcurveto
            -170 -87 callgsubr
            219 79 hlineto
            18 31 0 -28 32 hvcurveto
            hintmask 1001111010000000
            -58 callsubr
            hintmask 0000000100000000
            64 callsubr
            return
          </CharString>
          <CharString index="45">
            -20 hstemhm
            96 65 191 65 hintmask 0101001001000000
            -59 callgsubr
            hintmask 0010100011000000
            -57 callsubr
            hintmask 1000000001000000
            -23 28 34 -5 41 hhcurveto
            44 42 16 27 30 hvcurveto
            -11 vlineto
            hintmask 0100000000000000
            -14 12 -12 14 vhcurveto
            94 hlineto
            14 12 12 14 hvcurveto
            return
          </CharString>
          <CharString index="46">
            466 41 rmoveto
            51 vlineto
            18 47 callsubr
            -19 vhcurveto
            -34 -272 vlineto
            318 307 rlineto
            12 11 4 4 18 vvcurveto
            33 -22 0 -19 vhcurveto
            -333 hlineto
            -33 -8 -8 -33 hvcurveto
            -40 vlineto
            -43 callgsubr
            22 19 vhcurveto
            23 253 vlineto
            -318 -307 rlineto
            -12 -11 -4 -4 -18 vvcurveto
            -33 22 0 19 vhcurveto
            353 hlineto
            -30 callsubr
            return
          </CharString>
          <CharString index="47">
            472 541 rmoveto
            14 -11 15 -19 -6 -11 0 -21 -12 vhcurveto
            -65 -115 rlineto
            -6 -10 -2 -1 0 vvcurveto
            0 -2 1 -3 1 vhcurveto
            14 -36 -25 1 -17 hhcurveto
            -118 -96 -101 -123 -79 38 -59 43 -37 hvcurveto
            -65 -115 rlineto
            -7 -12 -10 -17 -7 vvcurveto
            -14 11 -15 19 16 7 11 8 4 vhcurveto
            75 131 rlineto
            -4 10 33 -13 40 hhcurveto
            117 97 98 124 42 -10 71 -70 62 hvcurveto
            73 128 rlineto
            8 14 0 8 0 vvcurveto
            -160 -169 rmoveto
            -159 -280 rlineto
            -17 15 -37 43 66 vvcurveto
            91 71 75 87 28 27 -10 0 vhcurveto
            103 -156 rmoveto
            -92 -72 -72 -86 -16 -20 3 7 -18 vhcurveto
            152 267 rlineto
            5 8 2 1 0 vvcurveto
            4 49 -46 -76 hvcurveto
            return
          </CharString>
          <CharString index="48">
            -34 callsubr
            58 return
          </CharString>
          <CharString index="49">
            23 -21 0 -23 -43 vvcurveto
            -70 0 -29 19 -34 vhcurveto
            -26 16 26 -15 31 hhcurveto
            66 20 69 36 hvcurveto
            -152 351 rmoveto
            -49 -44 -60 -92 vhcurveto
            -73 218 73 hlineto
            return
          </CharString>
          <CharString index="50">
            -15 12 -11 14 vhcurveto
            55 -228 hlineto
            -51 -1 -48 -42 -59 hhcurveto
            -32 -20 4 11 -15 hvcurveto
            -11 8 -5 15 20 vvcurveto
            294 vlineto
            15 -12 11 -15 vhcurveto
            -93 hlineto
            -14 -12 -11 -15 hvcurveto
            -5 vlineto
            -15 12 -11 14 vhcurveto
            55 -263 hlineto
            -34 11 -33 26 -21 vhcurveto
            return
          </CharString>
          <CharString index="51">
            -92 callgsubr
            hintmask 00010000
            -15 14 -14 15 11 7 5 9 8 vhcurveto
            hintmask 00001000
            0 44 42 24 8 6 -5 -8 7 vhcurveto
            return
          </CharString>
          <CharString index="52">
            rmoveto
            19 -15 33 -56 -18 -45 -4 -33 -42 vhcurveto
            23 -33 -34 8 -28 hhcurveto
            -91 -70 -73 -86 -22 5 -38 28 -36 hvcurveto
            -19 -28 -3 -30 -12 vvcurveto
            -35 17 -28 8 -9 vhcurveto
            return
          </CharString>
          <CharString index="53">
            515 257 rmoveto
            142 -116 116 -142 -142 -115 -116 -142 -142 115 -115 142 142 116 115 142 vhcurveto
            -37 hmoveto
            -121 -99 -99 -122 -121 -99 99 121 122 99 99 121 122 99 -99 -122 vhcurveto
            return
          </CharString>
          <CharString index="54">
            hlineto
            -15 -25 -102 callgsubr
            22 return
          </CharString>
          <CharString index="55">
            39 -7 80 -13 -55 vvcurveto
            -37 -34 -35 -93 -64 -42 25 72 -21 vhcurveto
            14 -5 -3 11 -25 hhcurveto
            -33 0 -19 -20 hvcurveto
            -103 vlineto
            -16 0 -22 28 12 9 0 41 15 vhcurveto
            -38 46 52 -3 31 hhcurveto
            185 0 120 10 hvcurveto
            return
          </CharString>
          <CharString index="56">
            -266 hlineto
            85 13 65 50 63 hhcurveto
            100 21 -85 -50 4 hvcurveto
            return
          </CharString>
          <CharString index="57">
            -104 callgsubr
            -67 153 -106 callgsubr
          </CharString>
          <CharString index="58">
            515 273 65 hstem
            55 404 vstem
            459 305 rmoveto
            -36 callgsubr
            endchar
          </CharString>
          <CharString index="59">
            hstemhm
            237 -45 callgsubr
            return
          </CharString>
          <CharString index="60">
            -59 callsubr
            495 58 return
          </CharString>
          <CharString index="61">
            49 callsubr
            -495 -20 92 callsubr
            14 hvcurveto
            199 hlineto
            129 86 142 158 hvcurveto
            -65 1 rmoveto
            -121 -59 -122 -109 vhcurveto
            -96 495 95 hlineto
            116 53 -138 -114 hvcurveto
            return
          </CharString>
          <CharString index="62">
            rmoveto
            23 1 -7 29 -34 hhcurveto
            -3 -40 -1 -49 3 hvcurveto
            11 -207 rlineto
            -11 1 1 -26 27 hhcurveto
            28 1 26 13 1 hvcurveto
            return
          </CharString>
          <CharString index="63">
            80 callgsubr
            151 65 105 65 14 78 hintmask 00111000
            -12 callgsubr
            hintmask 11011000
            -52 callgsubr
            -101 -105 callgsubr
            76 -315 -76 -105 callgsubr
            246 -77 callgsubr
            -105 131 hlineto
            hintmask 00100100
            -30 callgsubr
            return
          </CharString>
          <CharString index="64">
            rmoveto
            29 -27 0 -14 vhcurveto
            -112 -105 callsubr
            return
          </CharString>
          <CharString index="65">
            vlineto
            -87 callsubr
            return
          </CharString>
          <CharString index="66">
            -105 callsubr
            33 -495 -33 -105 callsubr
            return
          </CharString>
          <CharString index="67">
            -18 callsubr
            hstemhm
            74 65 160 107 callgsubr
            hintmask 11110100
            -49 callgsubr
            hintmask 11101000
            22 19 15 27 69 -101 0 -44 -171 -55 -140 -84 -122 93 -100 120 hvcurveto
            hintmask 00000100
            134 35 99 16 hvcurveto
            return
          </CharString>
          <CharString index="68">
            -77 callgsubr
            -48 495 133 -49 hlineto
            -43 callgsubr
            22 19 vhcurveto
            return
          </CharString>
          <CharString index="69">
            -84 callsubr
            endchar
          </CharString>
          <CharString index="70">
            -15 callgsubr
            -46 58 230 55 callgsubr
            -46 58 hstemhm
            29 56 111 56 5 56 116 56 -48 56 hintmask 0111000101000000
            493 17 callgsubr
            -124 230 118 -42 callsubr
            -118 207 hlineto
            hintmask 0001001010000000
            116 -49 hlineto
            -14 0 -27 28 28 0 27 14 57 callsubr
            -153 hlineto
            -10 -12 0 4 -18 hvcurveto
            hintmask 1000110000000000
            8 -35 -9 0 -19 hhcurveto
            -110 -26 -34 -64 -12 hvcurveto
            -11 -59 -1 -68 -92 vvcurveto
            -80 0 -82 13 -64 vhcurveto
            -61 13 27 -31 107 hhcurveto
            21 6 0 8 37 hvcurveto
            hintmask 0100000001000000
            4 17 11 0 11 hhcurveto
            161 hlineto
            -30 callsubr
            -236 130 rmoveto
            hintmask 1000111100000000
            -102 -14 -23 -47 -111 0 62 206 196 0 55 109 48 15 -19 -106 vhcurveto
            endchar
          </CharString>
          <CharString index="71">
            -27 -105 callsubr
            return
          </CharString>
          <CharString index="72">
            -37 callgsubr
            160 58 106 58 return
          </CharString>
          <CharString index="73">
            515 0 return
          </CharString>
          <CharString index="74">
            -37 callgsubr
            315 58 128 58 hstemhm
            110 65 30 74 -69 74 108 65 -37 65 hintmask 0111101100000000
            485 175 rmoveto
            85 -40 90 -74 46 vhcurveto
            74 38 12 48 26 vvcurveto
            68 -85 41 -88 -49 -125 -16 -101 vhcurveto
            -69 -50 vlineto
            -14 -26 -102 callgsubr
            50 -315 -50 -105 callgsubr
            75 hlineto
            -30 callsubr
            455 vlineto
            19 0 14 35 15 vhcurveto
            5 10 22 10 41 hhcurveto
            63 46 -26 -25 -33 -48 -41 -77 -3 hvcurveto
            -14 -1 -21 0 -28 vvcurveto
            -15 6 -13 20 -1 vhcurveto
            hintmask 1000010010000000
            115 -7 47 -111 -80 vvcurveto
            -78 -60 -45 -55 -16 -3 1 4 -8 vhcurveto
            1 3 0 7 0 vvcurveto
            22 -16 15 -21 -24 -13 -18 -20 -40 39 -32 61 92 88 72 109 vhcurveto
            endchar
          </CharString>
          <CharString index="75">
            -15 callgsubr
            519 58 return
          </CharString>
          <CharString index="76">
            224 -28 callgsubr
            return
          </CharString>
          <CharString index="77">
            33 7 9 32 hvcurveto
            return
          </CharString>
          <CharString index="78">
            -37 callgsubr
            315 58 84 81 hstemhm
            96 65 -18 81 68 81 -20 65 hintmask 01100001
            -84 callgsubr
            hintmask 10101000
            -93 callgsubr
            hintmask 01000000
            -32 callgsubr
            hintmask 00010110
            -275 -11 callsubr
            return
          </CharString>
          <CharString index="79">
            -59 callsubr
            112 58 397 -20 return
          </CharString>
          <CharString index="80">
            -104 callgsubr
            -1 159 rmoveto
            15 -14 14 -15 vhcurveto
            hintmask 00010000
            -11 -7 -5 -9 -8 hvcurveto
            hintmask 01000000
            0 -44 -42 -24 vhcurveto
            hintmask 00100000
            -8 -6 5 8 -7 hvcurveto
            66 callsubr
            hintmask 01000000
            -15 14 -14 15 vhcurveto
            hintmask 00100000
            11 7 5 9 8 hvcurveto
            hintmask 00001000
            0 44 42 24 vhcurveto
            hintmask 00010000
            8 6 -5 -8 7 hvcurveto
            hintmask 01000000
            -95 callsubr
          </CharString>
          <CharString index="81">
            515 -6 -8 callgsubr
            return
          </CharString>
          <CharString index="82">
            -59 callsubr
            507 58 hstemhm
            40 65 0 65 239 65 hintmask 11101000
            482 41 rmoveto
            21 vlineto
            14 0 27 -28 -28 0 -26 -19 vhcurveto
            -62 hlineto
            6 45 19 46 29 62 rrcurveto
            37 79 19 57 59 vvcurveto
            125 -101 92 -116 -116 -101 -93 -124 -72 31 -67 28 -63 vhcurveto
            23 -48 22 -50 6 -48 rrcurveto
            -62 hlineto
            19 0 26 -28 -28 0 -27 -14 vhcurveto
            -21 vlineto
            -33 8 -8 33 vhcurveto
            hintmask 11011000
            97 hlineto
            19 21 0 35 66 -30 70 -31 71 hvcurveto
            -20 49 -24 59 56 vvcurveto
            92 71 67 81 81 71 -67 -92 -56 -23 -58 -21 -50 vhcurveto
            -31 -70 -30 -71 -66 vvcurveto
            -35 22 0 19 vhcurveto
            97 100 callgsubr
          </CharString>
          <CharString index="83">
            -22 -105 callsubr
            109 hlineto
            15 25 0 29 hvcurveto
            return
          </CharString>
          <CharString index="84">
            -59 callsubr
            230 55 callgsubr
            return
          </CharString>
          <CharString index="85">
            -105 callsubr
            22 return
          </CharString>
          <CharString index="86">
            -20 callsubr
            hintmask 00001000
            return
          </CharString>
          <CharString index="87">
            28 callgsubr
            hintmask 01010110
            -106 callsubr
            hintmask 10000000
            -42 callgsubr
            hintmask 01000000
            -74 callsubr
            hintmask 10100110
            -64 callgsubr
            return
          </CharString>
          <CharString index="88">
            -21 callgsubr
            110 58 return
          </CharString>
          <CharString index="89">
            -34 callgsubr
            330 58 return
          </CharString>
          <CharString index="90">
            hstemhm
            96 65 132 65 48 65 -43 65 return
          </CharString>
          <CharString index="91">
            84 vlineto
            18 0 23 -32 -33 0 return
          </CharString>
          <CharString index="92">
            rmoveto
            -118 43 -6 2 -7 0 -6 -2 rlinecurve
            -118 -43 -36 -13 18 -54 36 11 rlinecurve
            109 33 109 -33 36 -11 18 54 -35 13 rlinecurve
            43 172 -3 callsubr
          </CharString>
          <CharString index="93">
            -15 callgsubr
            255 58 206 58 hstemhm
            43 65 -51 65 270 65 -51 65 hintmask 00101100
            471 173 rmoveto
            55 -37 70 -102 32 vhcurveto
            80 24 45 53 56 vvcurveto
            82 -83 78 -117 -117 -83 -78 -82 -58 48 -52 77 -23 vhcurveto
            hintmask 11010010
            -101 -32 -38 -69 -56 vvcurveto
            -98 92 -87 122 122 92 86 99 vhcurveto
            -79 289 rmoveto
            -54 -57 -49 -78 vhcurveto
            hintmask 10101100
            -79 -56 49 54 55 58 48 77 77 58 -48 -55 hvcurveto
            14 -288 rmoveto
            -70 -65 -58 -84 vhcurveto
            hintmask 01010010
            -86 -63 61 66 71 67 57 82 84 65 -60 -67 hvcurveto
            endchar
          </CharString>
          <CharString index="94">
            211 1 callgsubr
            return
          </CharString>
          <CharString index="95">
            -59 callsubr
            219 58 218 33 callgsubr
            -218 -28 9 callsubr
            28 -219 -20 -105 callgsubr
            199 hlineto
            129 86 142 158 hvcurveto
            -65 1 rmoveto
            -121 -59 -122 -109 vhcurveto
            -96 219 59 hlineto
            14 callgsubr
            -59 218 99 callgsubr
          </CharString>
          <CharString index="96">
            526 rmoveto
            -101 callsubr
            149 hmoveto
            -101 callsubr
            return
          </CharString>
          <CharString index="97">
            -15 callgsubr
            507 58 return
          </CharString>
          <CharString index="98">
            -59 callsubr
            190 58 247 58 hstem
            96 65 245 65 vstem
            471 429 rmoveto
            93 -72 89 -114 vhcurveto
            -216 -78 callgsubr
            119 -85 callsubr
            -27 190 124 hlineto
            116 70 92 89 hvcurveto
            -65 1 rmoveto
            -57 -45 -67 -94 vhcurveto
            -106 247 106 hlineto
            96 43 -70 -53 hvcurveto
            endchar
          </CharString>
          <CharString index="99">
            332 14 callsubr
            return
          </CharString>
          <CharString index="100">
            456 216 rmoveto
            125 -91 99 -108 -108 -91 -99 -125 -113 73 -88 92 -18 vhcurveto
            -31 -26 -26 -40 -39 31 callsubr
            22 39 34 24 hvcurveto
            97 13 78 91 116 vvcurveto
            -65 7 rmoveto
            -96 -62 -75 -72 -72 -62 76 95 93 64 66 70 70 64 -66 -93 vhcurveto
            return
          </CharString>
          <CharString index="101">
            rmoveto
            101 -75 99 -116 -33 -44 -6 -23 -42 vhcurveto
            192 235 -42 callsubr
            -260 hlineto
            -32 -8 -8 -31 hvcurveto
            -267 vlineto
            -14 0 -25 30 16 4 5 10 8 vhcurveto
            35 30 44 16 52 hhcurveto
            78 48 -71 -71 -81 -70 -63 -84 -52 -53 25 47 -18 hvcurveto
            4 4 7 7 18 vvcurveto
            27 -23 14 -17 -9 -32 -5 -39 -84 83 -72 110 121 98 90 112 vhcurveto
            endchar
          </CharString>
          <CharString index="102">
            514 -12 58 293 59 167 58 hstemhm
            53 66 -66 74 269 65 hintmask 11110100
            461 193 rmoveto
            117 -87 88 -104 -51 -57 -19 -46 -43 vhcurveto
            132 10 87 100 98 hhcurveto
            20 23 -3 -16 15 hvcurveto
            -4 -5 -4 -5 -15 vvcurveto
            -19 14 -21 26 26 15 19 23 53 -41 47 -89 -131 -131 -122 -202 -241 111 -70 95 107 95 85 120 vhcurveto
            -65 hmoveto
            -87 -65 -60 -72 return
          </CharString>
          <CharString index="103">
            14 27 0 29 return
          </CharString>
          <CharString index="104">
            rmoveto
            15 -14 14 -15 -11 -7 -5 -9 -8 vhcurveto
            hintmask 00001000
            0 -44 -42 -24 -8 -6 5 8 -7 vhcurveto
            hintmask 00000100
            -92 callgsubr
            hintmask 00001000
            -15 14 -14 15 11 7 5 9 8 vhcurveto
            hintmask 00000100
            0 44 42 24 8 6 -5 -8 7 vhcurveto
            hintmask 00001000
            -95 callsubr
          </CharString>
          <CharString index="105">
            -123 86 -98 103 65 43 39 22 19 vhcurveto
            hintmask 01000000
            -42 0 -13 40 vhcurveto
            66 -84 callsubr
            -146 161 rmoveto
            return
          </CharString>
          <CharString index="106">
            515 -207 58 193 -20 hstemhm
            257 65 -34 65 0 65 hintmask 01100000
            418 -108 rmoveto
            41 -28 41 -68 13 vhcurveto
            37 0 20 -33 -32 0 -23 -16 vhcurveto
            -33 vlineto
            hintmask 10010000
            -33 callgsubr
            hvcurveto
            hintmask 00001000
            77 127 4 95 hvcurveto
            endchar
          </CharString>
          <CharString index="107">
            413 150 rmoveto
            23 23 -22 22 -10 10 -101 101 rcurveline
            101 100 9 9 23 23 -23 23 rlinecurve
            -23 23 -22 -22 -10 -10 -101 -100 rcurveline
            -101 101 -9 9 -23 23 -22 -23 rlinecurve
            -24 -23 22 -22 10 -10 101 -101 rcurveline
            -101 -101 -9 -9 -23 -23 23 -23 rlinecurve
            23 -23 22 22 10 10 101 101 rcurveline
            101 -101 10 -9 22 -23 23 23 rlinecurve
            return
          </CharString>
          <CharString index="108">
            123 rmoveto
            -101 callsubr
            175 hmoveto
            -101 callsubr
            return
          </CharString>
          <CharString index="109">
            452 -70 callsubr
            -122 return
          </CharString>
          <CharString index="110">
            504 rmoveto
            66 -38 callgsubr
            return
          </CharString>
          <CharString index="111">
            -47 callsubr
            hstemhm
            return
          </CharString>
          <CharString index="112">
            306 rmoveto
            17 -8 7 -6 6 vhcurveto
            -215 186 rlineto
            8 -10 -3 1 -5 hhcurveto
            -11 -11 -11 -21 -17 8 -7 7 -6 hvcurveto
            188 -163 -188 -163 rlineto
            -7 -6 -8 -7 -17 vvcurveto
            -21 11 -11 11 5 3 1 8 10 vhcurveto
            218 188 rlineto
            6 6 5 10 12 vvcurveto
            return
          </CharString>
          <CharString index="113">
            -105 callgsubr
            20 -495 -20 -105 callgsubr
            return
          </CharString>
          <CharString index="114">
            34 42 17 53 56 vvcurveto
            349 vlineto
            39 12 30 33 43 vvcurveto
            return
          </CharString>
          <CharString index="115">
            -56 -46 -82 -75 -72 -58 73 90 96 68 68 71 65 47 -59 -52 vhcurveto
            return
          </CharString>
          <CharString index="116">
            hlineto
            -16 -13 -13 -16 -16 13 -13 16 hvcurveto
            return
          </CharString>
          <CharString index="117">
            -47 callsubr
            hstem
            return
          </CharString>
          <CharString index="118">
            459 305 rmoveto
            return
          </CharString>
          <CharString index="119">
            25 -81 callgsubr
            return
          </CharString>
          <CharString index="120">
            515 -228 118 -39 58 464 58 return
          </CharString>
          <CharString index="121">
            hlineto
            -52 callgsubr
            return
          </CharString>
          <CharString index="122">
            rmoveto
            33 -33 0 -15 vhcurveto
            -344 hlineto
            -15 -33 0 -33 -32 31 0 12 hvcurveto
            354 hlineto
            13 30 0 32 hvcurveto
            return
          </CharString>
          <CharString index="123">
            -12 -2 -1 -9 -6 hvcurveto
            -114 -183 rlineto
            -4 -6 0 -1 -9 vvcurveto
            -18 6 -2 14 vhcurveto
            122 -55 -30 hlineto
            -7 -13 0 -14 -15 13 0 7 hvcurveto
            88 hlineto
            7 13 0 15 14 -13 0 -7 hvcurveto
            return
          </CharString>
          <CharString index="124">
            vlineto
            -4 callsubr
            return
          </CharString>
          <CharString index="125">
            -47 -19 -27 -11 -11 -19 27 47 47 19 27 11 11 19 -27 -47 vhcurveto
            return
          </CharString>
          <CharString index="126">
            -10 callgsubr
            36 58 return
          </CharString>
          <CharString index="127">
            cntrmask 00011100
            287 344 -102 callsubr
            166 -448 rmoveto
            35 -29 8 -12 -15 -25 -12 -29 -16 5 -5 4 -5 vhcurveto
            return
          </CharString>
          <CharString index="128">
            27 callgsubr
            hstemhm
            return
          </CharString>
          <CharString index="129">
            402 rmoveto
            29 -27 0 -14 vhcurveto
            return
          </CharString>
          <CharString index="130">
            17 -15 16 -18 vhcurveto
            hintmask 11000000
            -6 -1 -28 -5 -71 -75 -3 -7 rlinecurve
            -2 -3 0 -4 -4 vvcurveto
            -18 17 -18 17 vhcurveto
            3 hlineto
            12 2 9 11 9 7 rrcurveto
            29 27 47 28 27 vvcurveto
            return
          </CharString>
          <CharString index="131">
            477 216 rmoveto
            123 -84 98 -104 -73 -46 -44 -10 -9 vhcurveto
            return
          </CharString>
          <CharString index="132">
            96 60 callsubr
            return
          </CharString>
          <CharString index="133">
            -214 -44 vlineto
            -7 -13 0 -15 -14 13 0 7 hvcurveto
            121 hlineto
            7 13 -88 callsubr
            return
          </CharString>
          <CharString index="134">
            515 347 -21 294 -20 hstem
            return
          </CharString>
          <CharString index="135">
            55 65 274 65 return
          </CharString>
          <CharString index="136">
            -12 -10 -7 -10 -6 hvcurveto
            -309 -571 rlineto
            -21 -11 15 -26 25 hhcurveto
            12 10 7 10 6 hvcurveto
            246 108 rmoveto
            -109 hlineto
            109 175 rlineto
            endchar
          </CharString>
          <CharString index="137">
            58 65 268 65 return
          </CharString>
          <CharString index="138">
            -75 callsubr
            43 return
          </CharString>
          <CharString index="139">
            -19 callsubr
            315 58 return
          </CharString>
          <CharString index="140">
            576 rmoveto
            21 12 -16 26 -24 hhcurveto
            -12 -11 -7 -10 -5 hvcurveto
            -309 -571 rlineto
            -21 -11 15 -26 24 hhcurveto
            12 11 7 10 5 hvcurveto
            endchar
          </CharString>
          <CharString index="141">
            vvcurveto
            62 45 54 61 44 42 -24 -37 14 vhcurveto
            -8 -7 -4 -11 -11 vvcurveto
            -23 18 -18 23 22 19 18 23 88 -79 66 -91 -96 -74 -83 -97 return
          </CharString>
          <CharString index="142">
            rmoveto
            22 -18 19 -23 -22 -19 -19 -22 -23 19 -18 22 23 18 18 23 vhcurveto
            return
          </CharString>
          <CharString index="143">
            16 -13 13 -16 -16 -13 -13 -16 vhcurveto
            return
          </CharString>
          <CharString index="144">
            hlineto
            -4 callsubr
            hvcurveto
            return
          </CharString>
          <CharString index="145">
            -14 -27 0 -29 -29 return
          </CharString>
          <CharString index="146">
            515 -12 40 callsubr
            return
          </CharString>
          <CharString index="147">
            58 166 58 295 58 return
          </CharString>
          <CharString index="148">
            -77 callgsubr
            -111 return
          </CharString>
          <CharString index="149">
            326 rmoveto
            15 -13 0 -7 vhcurveto
            -44 262 hlineto
            7 0 13 -15 return
          </CharString>
          <CharString index="150">
            -32 callsubr
            hstemhm
            return
          </CharString>
          <CharString index="151">
            84 36 53 44 28 8 -35 -47 vhcurveto
            -239 vlineto
            -17 -27 0 -29 -29 27 -88 callsubr
            73 -74 callgsubr
            return
          </CharString>
          <CharString index="152">
            76 callsubr
            hintmask 01000000
            return
          </CharString>
          <CharString index="153">
            hstemhm
            28 callsubr
            return
          </CharString>
          <CharString index="154">
            0 23 -32 -33 0 -22 return
          </CharString>
          <CharString index="155">
            515 -203 54 return
          </CharString>
          <CharString index="156">
            476 300 rmoveto
            160 -83 151 -133 vhcurveto
            -198 -105 callgsubr
            20 return
          </CharString>
          <CharString index="157">
            86 callgsubr
            -80 -23 callgsubr
            80 68 callsubr
          </CharString>
          <CharString index="158">
            495 144 rmoveto
            17 -14 15 -18 -18 -14 -15 -17 -44 -8 -48 -37 -48 -37 31 31 -38 vhcurveto
            -1 return
          </CharString>
          <CharString index="159">
            113 hstem
            201 113 vstem
            314 return
          </CharString>
          <CharString index="160">
            hlineto
            17 15 14 18 17 -15 15 -17 hvcurveto
            return
          </CharString>
          <CharString index="161">
            108 65 241 65 return
          </CharString>
          <CharString index="162">
            7 9 -4 21 -8 7 -9 5 -22 -4 -6 -6 rrcurveto
            -16 -11 -23 -21 -20 hhcurveto
            66 callgsubr
            return
          </CharString>
          <CharString index="163">
            -18 callsubr
            69 23 callgsubr
            return
          </CharString>
          <CharString index="164">
            vhcurveto
            66 -38 callgsubr
            return
          </CharString>
          <CharString index="165">
            -21 callgsubr
            98 58 return
          </CharString>
          <CharString index="166">
            -74 hlineto
            38 callsubr
            return
          </CharString>
          <CharString index="167">
            65 192 65 return
          </CharString>
          <CharString index="168">
            -9 13 -2 -16 25 hhcurveto
            23 9 12 16 hvcurveto
            endchar
          </CharString>
          <CharString index="169">
            hlineto
            16 120 rlineto
            33 4 -18 12 -18 hhcurveto
            -28 -3 -26 -13 -2 hvcurveto
            -16 -126 rlineto
            return
          </CharString>
          <CharString index="170">
            19 callsubr
            315 58 return
          </CharString>
          <CharString index="171">
            92 44 -60 -49 hvcurveto
            return
          </CharString>
          <CharString index="172">
            13 32 0 32 return
          </CharString>
          <CharString index="173">
            hintmask 00001000
            -92 callgsubr
            return
          </CharString>
          <CharString index="174">
            560 rmoveto
            77 -38 57 -48 -50 -36 -59 -74 -77 38 -57 48 50 36 59 74 vhcurveto
            return
          </CharString>
          <CharString index="175">
            hlineto
            65 callsubr
            hvcurveto
            endchar
          </CharString>
          <CharString index="176">
            -30 55 38 hlineto
            7 13 0 15 hvcurveto
            -23 477 rmoveto
            21 11 -15 26 -25 hhcurveto
            return
          </CharString>
          <CharString index="177">
            -29 callgsubr
            -25 -20 -20 -25 -25 20 -20 25 25 20 20 25 vhcurveto
            endchar
          </CharString>
          <CharString index="178">
            -95 -105 callgsubr
            return
          </CharString>
          <CharString index="179">
            515 -118 -21 133 58 330 58 return
          </CharString>
          <CharString index="180">
            515 -83 58 301 59 301 58 hstem
            225 65 cntrmask 11100000
            457 return
          </CharString>
          <CharString index="181">
            13 -1 23 -4 22 -5 rrcurveto
            -6 22 34 -8 24 hhcurveto
            41 2 28 5 hvcurveto
            return
          </CharString>
          <CharString index="182">
            515 -222 58 158 58 return
          </CharString>
          <CharString index="183">
            61 -5 61 hstemhm
            return
          </CharString>
          <CharString index="184">
            hlineto
            -17 -15 -15 -17 -18 15 -14 17 hvcurveto
            return
          </CharString>
          <CharString index="185">
            hlineto
            -18 -23 0 -29 -29 23 0 18 hvcurveto
            return
          </CharString>
          <CharString index="186">
            81 84 23 callgsubr
            143 81 return
          </CharString>
          <CharString index="187">
            -59 callsubr
            321 58 116 58 return
          </CharString>
          <CharString index="188">
            hlineto
            -10 -9 -7 -10 -3 hvcurveto
            -3 -14 rlineto
            -14 -3 10 -13 14 hhcurveto
            return
          </CharString>
          <CharString index="189">
            hlineto
            33 -7 8 -34 vhcurveto
            -23 hlineto
            -24 -5 -1 -19 -12 hvcurveto
            -227 return
          </CharString>
          <CharString index="190">
            -10 -21 -16 -27 -27 -2 rrcurveto
            -7 -11 -1 -13 -9 5 -6 11 return
          </CharString>
          <CharString index="191">
            13 9 4 18 -10 14 rlinecurve
            1 vlineto
            -9 13 -18 4 -13 -9 return
          </CharString>
          <CharString index="192">
            -14 -26 0 -29 -29 return
          </CharString>
          <CharString index="193">
            -21 292 -20 hstemhm
            216 81 -71 63 hintmask 01100000
            297 return
          </CharString>
          <CharString index="194">
            rlineto
            -9 -13 0 -2 -18 vvcurveto
            -35 13 -4 27 vhcurveto
            245 return
          </CharString>
          <CharString index="195">
            -35 29 -8 12 15 25 12 29 16 -5 5 -4 5 vhcurveto
            return
          </CharString>
          <CharString index="196">
            78 callgsubr
            133 65 return
          </CharString>
          <CharString index="197">
            -74 callgsubr
            29 -23 0 -31 hvcurveto
            184 vlineto
            return
          </CharString>
          <CharString index="198">
            26 65 134 65 133 65 return
          </CharString>
          <CharString index="199">
            hlineto
            103 callsubr
            return
          </CharString>
          <CharString index="200">
            hlineto
            -4 callsubr
            29 -27 0 return
          </CharString>
          <CharString index="201">
            90 hstem
            -303 90 vstem
            -213 return
          </CharString>
          <CharString index="202">
            90 73 callgsubr
            return
          </CharString>
          <CharString index="203">
            101 rmoveto
            21 -17 12 -15 -23 -7 -19 -10 -4 vhcurveto
            return
          </CharString>
          <CharString index="204">
            hstemhm
            27 178 80 59 -35 178 -162 59 return
          </CharString>
          <CharString index="205">
            24 34 8 6 24 hvcurveto
            3 1 29 7 23 2 return
          </CharString>
          <CharString index="206">
            -20 21 -20 hstemhm
            hintmask 00100000
            return
          </CharString>
          <CharString index="207">
            hstemhm
            30 callsubr
            return
          </CharString>
          <CharString index="208">
            65 188 -20 hstem
            225 65 vstem
            477 return
          </CharString>
          <CharString index="209">
            -20 -17 callsubr
            return
          </CharString>
          <CharString index="210">
            85 callsubr
            26 0 return
          </CharString>
          <CharString index="211">
            hstemhm
            54 callsubr
            return
          </CharString>
          <CharString index="212">
            515 -190 -21 52 60 return
          </CharString>
          <CharString index="213">
            515 500 60 return
          </CharString>
          <CharString index="214">
            -9 callgsubr
            hvcurveto
            return
          </CharString>
          <CharString index="215">
            hlineto
            -5 -8 0 -9 -10 8 0 5 hvcurveto
            return
          </CharString>
          <CharString index="216">
            vlineto
            17 0 16 -21 -20 0 -17 -16 vhcurveto
            return
          </CharString>
          <CharString index="217">
            hlineto
            -16 -13 -9 -11 -12 13 -9 16 hvcurveto
            return
          </CharString>
          <CharString index="218">
            515 102 -21 450 -20 hstem
            392 return
          </CharString>
          <CharString index="219">
            515 515 return
          </CharString>
        <CharString name=".notdef">
          280 endchar
        </CharString>
        <CharString name="A">
          -28 callsubr
          hstem
          27 460 vstem
          -107 callsubr
          endchar
        </CharString>
        <CharString name="AE">
          -59 callsubr
          128 58 44 55 callgsubr
          hstemhm
          259 56 111 56 -48 56 hintmask 10101010
          490 17 callgsubr
          -119 230 vlineto
          hintmask 11111100
          -35 callgsubr
          hintmask 01011010
          36 callgsubr
          endchar
        </CharString>
        <CharString name="AE.dup">
          -59 callsubr
          128 58 44 55 callgsubr
          hstemhm
          259 56 111 56 -48 56 hintmask 10101010
          490 17 callgsubr
          -119 230 vlineto
          hintmask 11111100
          -35 callgsubr
          hintmask 01011010
          36 callgsubr
          endchar
        </CharString>
        <CharString name="AEacute">
          -59 callsubr
          128 58 44 55 callgsubr
          85 23 callgsubr
          259 56 111 56 -48 56 hintmask 1010001010000000
          490 17 callgsubr
          -119 230 vlineto
          hintmask 1111001100000000
          -35 callgsubr
          hintmask 0101001010000000
          36 callgsubr
          hintmask 0000110000000000
          103 224 -106 callgsubr
        </CharString>
        <CharString name="Aacute">
          -28 callsubr
          91 -21 135 -86 callgsubr
          88 320 -106 callgsubr
        </CharString>
        <CharString name="Abreve">
          -28 callsubr
          70 60 52 -86 callgsubr
          15 callgsubr
          endchar
        </CharString>
        <CharString name="Abreveacute">
          -28 callsubr
          70 60 207 -86 callgsubr
          155 299 -50 callsubr
        </CharString>
        <CharString name="Abrevedotbelow">
          -19 callsubr
          112 58 397 -20 70 60 52 -20 77 callgsubr
          -275 90 hintmask 01111110
          -107 callsubr
          15 callgsubr
          hintmask 10000001
          -127 -911 rmoveto
          70 callsubr
        </CharString>
        <CharString name="Abrevegrave">
          -28 callsubr
          70 60 52 -86 callgsubr
          155 299 -48 callgsubr
        </CharString>
        <CharString name="Abrevehookabove">
          -28 callsubr
          70 60 284 -86 callgsubr
          15 callgsubr
          -75 183 -107 callgsubr
        </CharString>
        <CharString name="Abrevetilde">
          -28 callsubr
          70 60 92 61 -47 60 -31 60 -47 61 77 callgsubr
          hintmask 1110000010000000
          -107 callsubr
          hintmask 0001000100000000
          15 callgsubr
          -1 159 rmoveto
          15 -14 14 -15 vhcurveto
          hintmask 0000001000000000
          -11 -7 -5 -9 -8 hvcurveto
          hintmask 0000100000000000
          0 -44 -42 -24 vhcurveto
          hintmask 0000010000000000
          -8 -6 5 8 -7 hvcurveto
          hintmask 0000000100000000
          -92 callgsubr
          hintmask 0000100000000000
          -15 14 -14 15 vhcurveto
          hintmask 0000010000000000
          11 7 5 9 8 hvcurveto
          hintmask 0000000100000000
          0 44 42 24 vhcurveto
          hintmask 0000001000000000
          8 6 -5 -8 7 hvcurveto
          hintmask 0000100000000000
          -95 callsubr
        </CharString>
        <CharString name="Acaron">
          -28 callsubr
          77 callgsubr
          vstemhm
          -107 callsubr
          110 253 -82 callgsubr
        </CharString>
        <CharString name="Acircumflex">
          -28 callsubr
          77 callgsubr
          vstemhm
          -107 callsubr
          111 266 -104 callsubr
          endchar
        </CharString>
        <CharString name="Acircumflexacute">
          -28 callsubr
          317 -20 77 callgsubr
          hintmask 11101000
          -107 callsubr
          hintmask 00010000
          111 266 -77 callsubr
        </CharString>
        <CharString name="Acircumflexdotbelow">
          -19 callsubr
          112 58 397 -20 77 callgsubr
          -275 90 hintmask 01111000
          -107 callsubr
          111 266 -104 callsubr
          hintmask 10000100
          -83 -878 rmoveto
          70 callsubr
        </CharString>
        <CharString name="Acircumflexgrave">
          -28 callsubr
          77 callgsubr
          vstemhm
          -107 callsubr
          111 266 -76 callgsubr
        </CharString>
        <CharString name="Acircumflexhookabove">
          -28 callsubr
          394 -20 77 callgsubr
          hintmask 11101000
          -107 callsubr
          hintmask 00010000
          111 266 -104 callsubr
          65 196 -107 callgsubr
        </CharString>
        <CharString name="Acircumflextilde">
          -28 callsubr
          202 61 -5 61 77 callgsubr
          hintmask 11100100
          -107 callsubr
          hintmask 00001000
          111 266 rmoveto
          -118 43 -6 2 -7 0 -6 -2 rlinecurve
          -118 -43 -36 -13 18 -54 36 11 rlinecurve
          109 33 109 -33 36 -11 18 54 -35 13 rlinecurve
          43 172 -83 callgsubr
        </CharString>
        <CharString name="Adblgrave">
          -28 callsubr
          77 callgsubr
          vstemhm
          -107 callsubr
          117 230 -100 callsubr
        </CharString>
        <CharString name="Adieresis">
          -28 callsubr
          77 callgsubr
          -357 81 94 81 hintmask 11110000
          -107 callsubr
          hintmask 00001100
          -63 248 -62 callgsubr
        </CharString>
        <CharString name="Adotbelow">
          -19 callsubr
          112 58 397 -20 77 callgsubr
          -275 90 hintmask 01111000
          -107 callsubr
          hintmask 10000100
          28 -612 rmoveto
          70 callsubr
        </CharString>
        <CharString name="Agrave">
          -28 callsubr
          91 -21 135 -86 callgsubr
          89 254 -94 callsubr
        </CharString>
        <CharString name="Ahookabove">
          -28 callsubr
          93 -21 232 -86 callgsubr
          80 372 -107 callgsubr
        </CharString>
        <CharString name="Alpha">
          -28 callsubr
          hstem
          27 460 vstem
          -107 callsubr
          endchar
        </CharString>
        <CharString name="Amacron">
          -28 callsubr
          77 callgsubr
          vstemhm
          -107 callsubr
          169 257 -90 callgsubr
        </CharString>
        <CharString name="Aogonek">
          48 callsubr
          149 58 112 58 314 83 97 callsubr
          hintmask 01111010
          487 29 rmoveto
          29 -23 0 -33 vhcurveto
          -123 531 rlineto
          36 -8 -20 0 -23 hhcurveto
          -31 -12 -4 -32 -7 hvcurveto
          -124 -531 rlineto
          -33 -23 -57 callgsubr
          29 -24 0 -31 hvcurveto
          26 112 rlineto
          162 hlineto
          26 -112 rlineto
          -31 -24 0 -29 -29 27 -88 callsubr
          hintmask 00000100
          -39 -25 -26 -36 -47 vvcurveto
          hintmask 10000001
          -43 36 -52 63 38 38 26 33 24 vhcurveto
          7 9 -4 21 -8 7 -9 5 -22 -4 -6 -6 rrcurveto
          -16 -11 -23 -21 -20 hhcurveto
          hintmask 01000100
          96 callgsubr
          hintmask 00110010
          -4 callsubr
          hvcurveto
          -162 199 rmoveto
          -136 hlineto
          7 30 55 236 5 48 rrcurveto
          1 hlineto
          3 -23 14 -62 0 vvcurveto
          hintmask 00100001
          endchar
        </CharString>
        <CharString name="Aogonekacute">
          48 callsubr
          149 58 112 58 314 83 71 -21 135 -20 97 callsubr
          hintmask 0111001010000000
          487 29 rmoveto
          29 -23 0 -33 vhcurveto
          -123 531 rlineto
          36 -8 -20 0 -23 hhcurveto
          -31 -12 -4 -32 -7 hvcurveto
          -124 -531 rlineto
          -33 -23 -57 callgsubr
          29 -24 0 -31 hvcurveto
          26 112 rlineto
          162 hlineto
          26 -112 rlineto
          -31 -24 0 -29 -29 27 -88 callsubr
          hintmask 0000000100000000
          -39 -25 -26 -36 -47 vvcurveto
          hintmask 1000000001000000
          -43 36 -52 63 38 38 26 33 24 vhcurveto
          7 9 -4 21 -8 7 -9 5 -22 -4 -6 -6 rrcurveto
          -16 -11 -23 -21 -20 hhcurveto
          hintmask 0100000100000000
          96 callgsubr
          hintmask 0011000010000000
          -4 callsubr
          hvcurveto
          -162 199 rmoveto
          -136 hlineto
          7 30 55 236 5 48 rrcurveto
          1 hlineto
          3 -23 14 -62 0 vvcurveto
          hintmask 0010000001000000
          hintmask 0000110000000000
          88 320 -106 callgsubr
        </CharString>
        <CharString name="Aring">
          -59 callsubr
          112 58 397 38 68 38 77 callgsubr
          -325 50 90 50 hintmask 11101000
          -107 callsubr
          hintmask 00110110
          28 240 -46 callgsubr
        </CharString>
        <CharString name="Aringacute">
          -59 callsubr
          112 58 397 38 68 38 84 38 33 -20 77 callgsubr
          -325 50 90 50 hintmask 1110001000000000
          -107 callsubr
          hintmask 0011110110000000
          28 240 -66 callgsubr
          10 194 -106 callgsubr
        </CharString>
        <CharString name="Atilde">
          -28 callsubr
          60 61 -5 61 77 callgsubr
          hintmask 11100100
          -107 callsubr
          hintmask 00001000
          154 296 -83 callgsubr
        </CharString>
        <CharString name="B">
          -18 callgsubr
        </CharString>
        <CharString name="Beta">
          -18 callgsubr
        </CharString>
        <CharString name="C">
          -32 callsubr
          hstem
          40 65 304 65 vstem
          -71 callsubr
          -183 110 -135 126 117 81 93 88 hvcurveto
          endchar
        </CharString>
        <CharString name="Cacute">
          57 callgsubr
          40 65 304 65 hintmask 11001100
          -71 callsubr
          -183 110 -135 126 117 81 93 88 hvcurveto
          hintmask 00110000
          -86 608 -106 callgsubr
        </CharString>
        <CharString name="Ccaron">
          43 callsubr
          40 65 304 65 vstemhm
          -71 callsubr
          -183 110 -135 126 117 81 93 88 hvcurveto
          -64 541 -82 callgsubr
        </CharString>
        <CharString name="Ccedilla">
          515 -207 58 137 58 519 58 hstemhm
          40 65 165 65 -34 65 0 65 -22 65 hintmask 01111001
          -71 callsubr
          -180 106 -134 124 -4 hvcurveto
          -16 vlineto
          hintmask 10000100
          -33 callgsubr
          hvcurveto
          hintmask 00001010
          22 callgsubr
          9 vlineto
          hintmask 00000001
          84 25 55 76 72 vvcurveto
          endchar
        </CharString>
        <CharString name="Ccircumflex">
          43 callsubr
          40 65 304 65 vstemhm
          -71 callsubr
          -183 110 -135 126 117 81 93 88 hvcurveto
          -63 554 -104 callsubr
          endchar
        </CharString>
        <CharString name="Cdotaccent">
          43 callsubr
          40 65 133 90 81 65 hintmask 11101000
          -71 callsubr
          -183 110 -135 126 117 81 93 88 hvcurveto
          hintmask 00010000
          -146 553 rmoveto
          70 callsubr
        </CharString>
        <CharString name="Chi">
          -20 callgsubr
        </CharString>
        <CharString name="D">
          515 0 58 495 58 hstem
          82 65 264 65 vstem
          -46 callsubr
          endchar
        </CharString>
        <CharString name="Dcaron">
          4 callsubr
          82 65 264 65 vstemhm
          -46 callsubr
          -89 409 -82 callgsubr
        </CharString>
        <CharString name="Dcroat">
          -12 callsubr
        </CharString>
        <CharString name="Ddotbelow">
          -19 callsubr
          495 58 hstemhm
          82 65 3 90 171 65 hintmask 01110100
          -46 callsubr
          hintmask 10001000
          -171 -456 rmoveto
          70 callsubr
        </CharString>
        <CharString name="Delta">
          -34 callsubr
          64 561 -20 hstem
          33 448 vstem
          481 21 rmoveto
          -172 568 rlineto
          33 -10 -13 3 -29 hhcurveto
          -29 -13 -3 -33 -10 hvcurveto
          -168 -554 rlineto
          -1 -2 -3 -11 0 vvcurveto
          -22 22 0 13 vhcurveto
          378 hlineto
          15 17 0 21 3 hvcurveto
          -80 43 rmoveto
          -288 hlineto
          120 399 24 83 21 -73 rlineto
          endchar
        </CharString>
        <CharString name="Dlinebelow">
          4 callsubr
          82 65 264 65 vstemhm
          -46 callsubr
          -30 -456 -90 callgsubr
        </CharString>
        <CharString name="E">
          89 callgsubr
          132 65 48 65 -43 65 hintmask 11111010
          -99 callsubr
          hintmask 10110100
          -98 callsubr
          384 hlineto
          hintmask 00000010
          -30 callsubr
          endchar
        </CharString>
        <CharString name="Eacute">
          -23 callsubr
          85 -21 135 102 callsubr
          hintmask 1110011010000000
          -99 callsubr
          hintmask 1010010100000000
          -98 callsubr
          384 hlineto
          hintmask 0000000010000000
          -30 callsubr
          hintmask 0001100000000000
          -131 736 -106 callgsubr
        </CharString>
        <CharString name="Ebreve">
          -23 callsubr
          64 60 52 102 callsubr
          hintmask 1110011010000000
          -99 callsubr
          hintmask 1010010100000000
          -98 callsubr
          384 hlineto
          hintmask 0000000010000000
          -30 callsubr
          hintmask 0001100000000000
          -64 715 -96 callgsubr
        </CharString>
        <CharString name="Ecaron">
          89 callgsubr
          132 65 48 65 -43 65 hintmask 11111010
          -99 callsubr
          hintmask 10110100
          -98 callsubr
          384 hlineto
          hintmask 00000010
          -30 callsubr
          hintmask 00000000
          -109 669 -82 callgsubr
        </CharString>
        <CharString name="Ecircumflex">
          89 callgsubr
          132 65 48 65 -43 65 hintmask 11111010
          -99 callsubr
          hintmask 10110100
          -98 callsubr
          384 hlineto
          hintmask 00000010
          -30 callsubr
          hintmask 00000000
          -108 682 -104 callsubr
          endchar
        </CharString>
        <CharString name="Ecircumflexacute">
          -23 callsubr
          311 102 callsubr
          hintmask 11101101
          -99 callsubr
          hintmask 10101010
          -98 callsubr
          384 hlineto
          hintmask 00000001
          -30 callsubr
          hintmask 00010000
          -108 682 -77 callsubr
        </CharString>
        <CharString name="Ecircumflexdotbelow">
          -19 callsubr
          230 55 callgsubr
          hstemhm
          96 65 51 90 -9 65 48 65 -43 65 hintmask 0111101010000000
          -99 callsubr
          hintmask 0101100100000000
          -98 callsubr
          384 hlineto
          hintmask 0000000010000000
          -30 callsubr
          -108 682 -104 callsubr
          hintmask 1000010000000000
          -83 -878 rmoveto
          70 callsubr
        </CharString>
        <CharString name="Ecircumflexgrave">
          89 callgsubr
          132 65 48 65 -43 65 hintmask 11111010
          -99 callsubr
          hintmask 10110100
          -98 callsubr
          384 hlineto
          hintmask 00000010
          -30 callsubr
          hintmask 00000000
          -108 682 -76 callgsubr
        </CharString>
        <CharString name="Ecircumflexhookabove">
          -23 callsubr
          388 102 callsubr
          hintmask 11101101
          -99 callsubr
          hintmask 10101010
          -98 callsubr
          384 hlineto
          hintmask 00000001
          -30 callsubr
          hintmask 00010000
          -108 682 -104 callsubr
          65 196 -107 callgsubr
        </CharString>
        <CharString name="Ecircumflextilde">
          -23 callsubr
          196 61 -5 61 -17 callsubr
          hintmask 1110011010000000
          -99 callsubr
          hintmask 1010010100000000
          -98 callsubr
          384 hlineto
          hintmask 0000000010000000
          -30 callsubr
          hintmask 0000100000000000
          -108 682 -5 callgsubr
          hintmask 0001000000000000
          0 -44 -42 -24 -8 -6 5 8 -7 vhcurveto
          hintmask 0000100000000000
          -92 callgsubr
          hintmask 0001000000000000
          -15 14 -14 15 11 7 5 9 8 vhcurveto
          hintmask 0000100000000000
          0 44 42 24 8 6 -5 -8 7 vhcurveto
          hintmask 0001000010000000
          -95 callsubr
        </CharString>
        <CharString name="Edblgrave">
          89 callgsubr
          132 65 48 65 -43 65 hintmask 11111010
          -99 callsubr
          hintmask 10110100
          -98 callsubr
          384 hlineto
          hintmask 00000010
          -30 callsubr
          hintmask 00010000
          -73 646 -100 callsubr
        </CharString>
        <CharString name="Edieresis">
          89 callgsubr
          -31 81 82 65 -53 81 20 65 -43 65 hintmask 1111010010000000
          -99 callsubr
          hintmask 1011000100000000
          -98 callsubr
          384 hlineto
          hintmask 0000000010000000
          -30 callsubr
          hintmask 0000101000000000
          -282 664 -62 callgsubr
        </CharString>
        <CharString name="Edotaccent">
          89 callgsubr
          51 90 -9 65 48 65 -43 65 hintmask 11110101
          -99 callsubr
          hintmask 10110010
          -98 callsubr
          384 hlineto
          hintmask 00000001
          -30 callsubr
          hintmask 00001000
          -191 681 rmoveto
          70 callsubr
        </CharString>
        <CharString name="Edotbelow">
          -19 callsubr
          230 55 callgsubr
          hstemhm
          96 65 51 90 -9 65 48 65 -43 65 hintmask 0111101010000000
          -99 callsubr
          hintmask 0101100100000000
          -98 callsubr
          384 hlineto
          hintmask 0000000010000000
          -30 callsubr
          hintmask 1000010000000000
          -191 -196 rmoveto
          70 callsubr
        </CharString>
        <CharString name="Egrave">
          -23 callsubr
          85 -21 135 102 callsubr
          hintmask 1110011010000000
          -99 callsubr
          hintmask 1010010100000000
          -98 callsubr
          384 hlineto
          hintmask 0000000010000000
          -30 callsubr
          hintmask 0001100000000000
          -130 670 -94 callsubr
        </CharString>
        <CharString name="Ehookabove">
          -23 callsubr
          87 -21 232 102 callsubr
          hintmask 1110011010000000
          -99 callsubr
          hintmask 1010010100000000
          -98 callsubr
          384 hlineto
          hintmask 0000000010000000
          -30 callsubr
          hintmask 0001110000000000
          -139 788 -107 callgsubr
        </CharString>
        <CharString name="Emacron">
          89 callgsubr
          132 65 48 65 -43 65 hintmask 11111010
          -99 callsubr
          hintmask 10110100
          -98 callsubr
          384 hlineto
          hintmask 00000010
          -30 callsubr
          hintmask 00000000
          -50 673 -90 callgsubr
        </CharString>
        <CharString name="Eng">
          515 -12 82 -70 58 495 58 -52 64 hstemhm
          96 65 258 64 hintmask 00011000
          483 306 rmoveto
          157 -62 160 -138 -48 -42 -20 -33 -32 vhcurveto
          hintmask 01101000
          -52 callgsubr
          -66 -105 callgsubr
          41 -495 -67 callgsubr
          377 hlineto
          hintmask 10010100
          68 10 47 56 65 hhcurveto
          106 30 -131 -122 -99 0 -117 -49 -30 hvcurveto
          6 -7 -9 4 -11 hhcurveto
          -23 -18 -18 -23 -23 18 -18 23 129 11 168 150 hvcurveto
          endchar
        </CharString>
        <CharString name="Eogonek">
          515 234 54 0 58 0 54 -17 callsubr
          cntrmask 11100000
          hintmask 11111010
          -99 callsubr
          hintmask 11110100
          -98 callsubr
          284 hlineto
          -39 -25 -27 -36 -47 31 callsubr
          34 36 53 31 hvcurveto
          20 hlineto
          hintmask 11100010
          -30 callsubr
          endchar
        </CharString>
        <CharString name="Eogonekacute">
          515 234 54 0 58 0 54 -17 callsubr
          cntrmask 11100000
          hintmask 11111010
          -99 callsubr
          hintmask 11110100
          -98 callsubr
          284 hlineto
          -39 -25 -27 -36 -47 31 callsubr
          34 36 53 31 hvcurveto
          20 hlineto
          hintmask 11100010
          -30 callsubr
          hintmask 11100000
          -131 736 -106 callgsubr
        </CharString>
        <CharString name="Epsilon">
          89 callgsubr
          132 65 48 65 -43 65 hintmask 11111010
          -99 callsubr
          hintmask 10110100
          -98 callsubr
          384 hlineto
          hintmask 00000010
          -30 callsubr
          endchar
        </CharString>
        <CharString name="Ereversed">
          71 callgsubr
          28 65 -43 65 48 65 132 65 hintmask 11101110
          493 29 rmoveto
          29 -27 0 -14 vhcurveto
          -27 495 27 -85 callsubr
          -362 hlineto
          -34 -6 -10 -31 hvcurveto
          -66 vlineto
          -19 0 -22 33 32 0 23 18 vhcurveto
          49 245 -207 -132 vlineto
          35 0 19 -33 -32 0 -23 -18 vhcurveto
          -84 vlineto
          -43 callgsubr
          19 35 vhcurveto
          132 -230 hlineto
          hintmask 10010000
          -267 64 hlineto
          19 0 22 -33 -32 0 -23 -18 vhcurveto
          -81 vlineto
          -32 7 -9 33 vhcurveto
          384 37 callsubr
          endchar
        </CharString>
        <CharString name="Eta">
          40 callgsubr
          hstem
          86 65 212 65 vstem
          -91 callgsubr
          endchar
        </CharString>
        <CharString name="Eth">
          -12 callsubr
        </CharString>
        <CharString name="Etilde">
          -23 callsubr
          54 61 -5 61 -17 callsubr
          hintmask 1110011010000000
          -99 callsubr
          hintmask 1010010100000000
          -98 callsubr
          384 hlineto
          hintmask 0000000010000000
          -30 callsubr
          hintmask 0000100000000000
          -65 712 rmoveto
          15 -14 14 -15 -11 -7 -5 -9 -8 vhcurveto
          hintmask 0001000000000000
          0 -44 -42 -24 -8 -6 5 8 -7 vhcurveto
          hintmask 0000100000000000
          -92 callgsubr
          hintmask 0001000000000000
          -15 14 -14 15 11 7 5 9 8 vhcurveto
          hintmask 0000100000000000
          0 44 42 24 8 6 -5 -8 7 vhcurveto
          hintmask 0001000010000000
          -95 callsubr
        </CharString>
        <CharString name="Euro">
          -15 callgsubr
          169 58 66 58 168 58 hstem
          114 64 215 64 vstem
          457 13 rmoveto
          104 vlineto
          14 -11 11 -14 vhcurveto
          -14 hlineto
          -13 -10 -10 -12 -2 hvcurveto
          -41 -4 -31 -33 -40 hhcurveto
          -42 -31 34 37 -22 hvcurveto
          -18 30 -11 33 -7 35 rrcurveto
          151 82 callgsubr
          -162 hlineto
          -1 11 0 11 11 vvcurveto
          11 0 11 1 11 vhcurveto
          189 82 callgsubr
          -184 hlineto
          7 34 11 33 18 30 rrcurveto
          37 22 31 34 42 hhcurveto
          40 31 -33 -41 4 hvcurveto
          -12 2 10 -10 13 hhcurveto
          14 hlineto
          14 11 11 14 hvcurveto
          104 vlineto
          14 -11 11 -14 vhcurveto
          -4 hlineto
          -9 -7 -4 -6 -5 hvcurveto
          -11 -16 rlineto
          16 -24 -30 10 -32 hhcurveto
          -62 -49 -44 -54 -32 hvcurveto
          -23 -40 -14 -43 -8 -45 rrcurveto
          -38 81 callsubr
          35 hlineto
          -1 -11 0 -11 -11 vvcurveto
          -11 0 -11 1 -11 vhcurveto
          -31 81 callsubr
          42 hlineto
          8 -46 14 -43 23 -40 rrcurveto
          -54 32 50 -44 61 hhcurveto
          32 30 10 17 24 hvcurveto
          11 -16 rlineto
          -7 5 7 -4 9 hhcurveto
          4 hlineto
          14 11 11 14 hvcurveto
          endchar
        </CharString>
        <CharString name="F">
          -59 callsubr
          219 101 callgsubr
          hstem
          102 65 136 65 47 65 vstem
          480 3 callsubr
          -368 -105 callsubr
          30 -495 -30 -105 callsubr
          143 -77 callgsubr
          -48 219 136 hlineto
          -35 0 -19 33 32 0 23 18 vhcurveto
          -16 callsubr
          -19 -35 vhcurveto
          -136 218 248 -49 hlineto
          -43 callgsubr
          22 19 vhcurveto
          endchar
        </CharString>
        <CharString name="G">
          39 callsubr
          hstem
          37 65 273 65 vstem
          -97 callsubr
          endchar
        </CharString>
        <CharString name="Gacute">
          39 callsubr
          73 23 callgsubr
          37 65 273 65 hintmask 11100110
          -97 callsubr
          hintmask 00011000
          -124 536 -106 callgsubr
        </CharString>
        <CharString name="Gamma">
          10 callsubr
          54 callsubr
          vstem
          479 3 callsubr
          -364 -41 callsubr
          150 -77 callgsubr
          -52 495 241 -49 hlineto
          -43 callgsubr
          22 19 vhcurveto
          endchar
        </CharString>
        <CharString name="Gbreve">
          39 callsubr
          52 60 52 -20 hstemhm
          37 65 273 65 hintmask 11100110
          -97 callsubr
          hintmask 00011000
          -57 515 -96 callgsubr
        </CharString>
        <CharString name="Gcaron">
          39 callsubr
          hstemhm
          37 65 273 65 vstemhm
          -97 callsubr
          -102 469 -82 callgsubr
        </CharString>
        <CharString name="Gcedilla">
          -10 callgsubr
          24 40 callsubr
          hstem
          37 65 273 65 vstem
          -97 callsubr
          -170 -348 -99 callgsubr
        </CharString>
        <CharString name="Gcircumflex">
          39 callsubr
          hstemhm
          37 65 273 65 vstemhm
          -97 callsubr
          -101 482 -104 callsubr
          endchar
        </CharString>
        <CharString name="Gcommaaccent">
          -10 callgsubr
          24 40 callsubr
          hstemhm
          37 65 273 65 hintmask 00111110
          -97 callsubr
          hintmask 11000000
          -170 -348 -99 callgsubr
        </CharString>
        <CharString name="Gdotaccent">
          39 callsubr
          hstemhm
          37 65 110 90 73 65 hintmask 11110100
          -97 callsubr
          hintmask 00001000
          -184 481 rmoveto
          70 callsubr
        </CharString>
        <CharString name="H">
          40 callgsubr
          hstem
          86 65 212 65 vstem
          -91 callgsubr
          endchar
        </CharString>
        <CharString name="H_uni0303">
          40 callgsubr
          54 76 callsubr
          86 65 212 65 hintmask 11100110
          -91 callgsubr
          hintmask 00001000
          -62 724 rmoveto
          15 -14 14 -15 -11 -7 -5 -9 -8 vhcurveto
          hintmask 00010000
          0 -44 -42 -24 -8 -6 5 8 -7 vhcurveto
          hintmask 00001100
          -56 callsubr
          hintmask 00010010
          -95 callsubr
        </CharString>
        <CharString name="Hbar">
          -59 callsubr
          231 58 82 58 66 58 hstem
          86 65 212 65 vstem
          490 -70 callsubr
          -22 371 30 hlineto
          14 callgsubr
          -30 66 22 -74 callgsubr
          29 -25 0 -15 hvcurveto
          -109 -22 callsubr
          -66 -212 66 22 -85 callsubr
          -109 -53 callsubr
          -66 -30 9 callsubr
          30 -371 -22 hlineto
          11 callgsubr
          -4 callsubr
          29 -27 0 -14 hvcurveto
          -22 231 212 -231 -24 callsubr
          -127 318 rmoveto
          -212 82 212 hlineto
          endchar
        </CharString>
        <CharString name="Hbrevebelow">
          105 callgsubr
          119 46 callgsubr
          hstemhm
          86 65 212 65 hintmask 00111110
          -91 callgsubr
          hintmask 11000000
          -61 -159 -96 callgsubr
        </CharString>
        <CharString name="Hcircumflex">
          40 callgsubr
          hstemhm
          86 65 212 65 vstemhm
          -91 callgsubr
          -105 694 -104 callsubr
          endchar
        </CharString>
        <CharString name="Hdieresis">
          40 callgsubr
          hstemhm
          86 65 -21 81 94 81 -23 65 hintmask 11110010
          -91 callgsubr
          hintmask 00001100
          -279 676 -62 callgsubr
        </CharString>
        <CharString name="Hdotbelow">
          -19 callsubr
          231 58 206 58 hstemhm
          86 65 61 90 61 65 hintmask 01111010
          -91 callgsubr
          hintmask 10000100
          -188 -184 rmoveto
          70 callsubr
        </CharString>
        <CharString name="I">
          10 callsubr
          225 65 vstem
          -97 callgsubr
          endchar
        </CharString>
        <CharString name="Iacute">
          -47 callsubr
          85 23 callgsubr
          225 65 hintmask 11001000
          -97 callgsubr
          hintmask 00110000
          -70 748 -106 callgsubr
        </CharString>
        <CharString name="Ibreve">
          -47 callsubr
          64 60 52 -20 hstemhm
          225 65 hintmask 11001000
          -97 callgsubr
          hintmask 00110000
          -3 727 -96 callgsubr
        </CharString>
        <CharString name="Icaron">
          4 callsubr
          225 65 vstemhm
          -97 callgsubr
          -48 681 -82 callgsubr
        </CharString>
        <CharString name="Icircumflex">
          4 callsubr
          225 65 vstemhm
          -97 callgsubr
          -47 694 -104 callsubr
          endchar
        </CharString>
        <CharString name="Idblgrave">
          4 callsubr
          225 65 vstemhm
          -97 callgsubr
          hintmask 00100000
          -12 658 -100 callsubr
        </CharString>
        <CharString name="Idieresis">
          4 callsubr
          130 81 14 65 15 81 hintmask 11010000
          -97 callgsubr
          hintmask 00101000
          -221 676 -62 callgsubr
        </CharString>
        <CharString name="Idieresisacute">
          -47 callsubr
          219 23 callgsubr
          130 81 14 65 15 81 hintmask 11000100
          -97 callgsubr
          hintmask 00111010
          -221 676 rmoveto
          -101 callsubr
          175 hmoveto
          -101 callsubr
          -24 206 -106 callgsubr
        </CharString>
        <CharString name="Idotaccent">
          4 callsubr
          212 90 -77 65 hintmask 11010000
          -97 callgsubr
          hintmask 00100000
          -130 693 rmoveto
          70 callsubr
        </CharString>
        <CharString name="Idotbelow">
          -19 callsubr
          495 58 hstemhm
          212 90 -77 65 hintmask 01101000
          -97 callgsubr
          hintmask 10010000
          -130 -184 rmoveto
          70 callsubr
        </CharString>
        <CharString name="Igrave">
          -47 callsubr
          85 23 callgsubr
          225 65 hintmask 11001000
          -97 callgsubr
          hintmask 00110000
          -69 682 -94 callsubr
        </CharString>
        <CharString name="Ihookabove">
          -47 callsubr
          87 112 callgsubr
          hstemhm
          225 65 hintmask 11001000
          -97 callgsubr
          hintmask 00110000
          -78 800 -107 callgsubr
        </CharString>
        <CharString name="Imacron">
          4 callsubr
          225 65 vstemhm
          -97 callgsubr
          11 685 -90 callgsubr
        </CharString>
        <CharString name="Imacron.alt">
          -47 callsubr
          74 59 hstemhm
          225 65 hintmask 11010000
          -97 callgsubr
          hintmask 00100000
          -75 685 2 callgsubr
        </CharString>
        <CharString name="Iogonek">
          48 callsubr
          149 58 495 58 hstem
          225 65 vstem
          432 -70 callsubr
          -102 495 102 -77 callgsubr
          -269 -105 callgsubr
          102 -495 -102 -105 callgsubr
          103 hlineto
          -33 -27 -28 -41 -40 -75 callsubr
          46 25 41 38 23 hvcurveto
          105 -38 callsubr
        </CharString>
        <CharString name="Iogonekacute">
          48 callsubr
          149 58 495 58 85 23 callgsubr
          225 65 hintmask 11100100
          432 -70 callsubr
          -102 495 102 -77 callgsubr
          -269 -105 callgsubr
          102 -495 -102 -105 callgsubr
          103 hlineto
          -33 -27 -28 -41 -40 -75 callsubr
          46 25 41 38 23 hvcurveto
          105 -84 callsubr
          hintmask 00011000
          -70 748 -106 callgsubr
        </CharString>
        <CharString name="Iota">
          10 callsubr
          225 65 vstem
          -97 callgsubr
          endchar
        </CharString>
        <CharString name="Itilde">
          -47 callsubr
          54 76 callsubr
          225 65 hintmask 11001000
          -97 callgsubr
          hintmask 00010000
          -4 724 -101 callgsubr
        </CharString>
        <CharString name="J">
          -10 callsubr
          hstem
          76 81 178 65 vstem
          -41 callgsubr
          endchar
        </CharString>
        <CharString name="J_uni030C.cap">
          514.58333 -12 58 397 -21 104 85 -58 58 hstemhm
          76 81 178 65 hintmask 10011100
          -41 callgsubr
          156 -42 -2 callgsubr
        </CharString>
        <CharString name="Jacute">
          -10 callsubr
          85 23 callgsubr
          76 81 178 65 hintmask 11001100
          -41 callgsubr
          hintmask 00110000
          -20 195 -106 callgsubr
        </CharString>
        <CharString name="Jcircumflex">
          -10 callsubr
          hstemhm
          76 81 178 65 vstemhm
          -41 callgsubr
          3 141 -104 callsubr
          endchar
        </CharString>
        <CharString name="K">
          10 callsubr
          86 56 vstem
          -65 callsubr
          endchar
        </CharString>
        <CharString name="Kappa">
          10 callsubr
          86 56 vstem
          -65 callsubr
          endchar
        </CharString>
        <CharString name="Kcedilla">
          27 callgsubr
          hstem
          86 56 vstem
          -65 callsubr
          -169 -136 -99 callgsubr
        </CharString>
        <CharString name="Kcommaaccent">
          21 callsubr
          86 56 hintmask 00111000
          -65 callsubr
          hintmask 11000000
          -169 -136 -99 callgsubr
        </CharString>
        <CharString name="L">
          10 callsubr
          54 callsubr
          vstem
          -81 callsubr
          endchar
        </CharString>
        <CharString name="L_uni0303">
          -47 callsubr
          54 61 -5 61 104 callsubr
          hintmask 11001100
          -81 callsubr
          hintmask 00010000
          -168 712 -101 callgsubr
        </CharString>
        <CharString name="Lacute">
          -47 callsubr
          85 -21 135 -20 104 callsubr
          hintmask 11001100
          -81 callsubr
          hintmask 00110000
          -234 736 -106 callgsubr
        </CharString>
        <CharString name="Lambda">
          -59 callsubr
          567 -20 hstem
          29 456 vstem
          485 29 rmoveto
          29 -23 0 -30 vhcurveto
          -123 530 rlineto
          37 -9 -19 0 -24 hhcurveto
          -37 -7 -8 -29 -7 hvcurveto
          -124 -530 rlineto
          -31 -22 -102 callgsubr
          100 32 callgsubr
          hlineto
          76 332 5 20 22 100 5 32 rlinecurve
          1 hlineto
          5 -37 9 -42 10 -42 83 -363 rcurveline
          -20 -105 callgsubr
          100 -38 callsubr
        </CharString>
        <CharString name="Lcaron">
          -59 callsubr
          385 -21 104 85 -58 58 104 callsubr
          hintmask 10011100
          -81 callsubr
          -39 499 -2 callgsubr
        </CharString>
        <CharString name="Lcedilla">
          27 callgsubr
          hstem
          54 callsubr
          vstem
          -81 callsubr
          -163 -148 -99 callgsubr
        </CharString>
        <CharString name="Lcommaaccent">
          21 callsubr
          108 65 241 65 hintmask 00111100
          -81 callsubr
          hintmask 11000000
          -163 -148 -99 callgsubr
        </CharString>
        <CharString name="Ldot">
          -59 callsubr
          215 90 190 58 hstemhm
          108 65 180 90 -29 65 hintmask 11110100
          -81 callsubr
          -36 277 rmoveto
          -29 callgsubr
          vhcurveto
          hintmask 01001000
          -25 -20 -20 -25 -25 20 -20 25 25 20 20 25 hvcurveto
          endchar
        </CharString>
        <CharString name="Ldotbelow">
          -19 callsubr
          495 58 hstemhm
          108 65 39 90 112 65 hintmask 01110100
          -81 callsubr
          hintmask 10001000
          -177 -196 rmoveto
          70 callsubr
        </CharString>
        <CharString name="Ldotbelowmacron">
          -19 callsubr
          495 58 hstemhm
          108 65 39 90 112 65 vstemhm
          -81 callsubr
          -177 -196 -102 callsubr
          33 869 -90 callgsubr
        </CharString>
        <CharString name="Lslash">
          -59 callsubr
          437 58 0 58 104 callsubr
          hintmask 11011000
          479 41 rmoveto
          82 vlineto
          17 47 callsubr
          -18 vhcurveto
          -65 -241 250 vlineto
          205 137 84 callsubr
          -172 -117 rcurveline
          175 52 65 callgsubr
          hvcurveto
          hintmask 10111000
          -79 callgsubr
          vhcurveto
          -150 -105 callsubr
          33 -217 hlineto
          -69 -50 -12 -9 -5 -18 9 -14 rlinecurve
          1 hlineto
          8 -13 18 -5 14 11 36 27 rcurveline
          -207 -33 vlineto
          106 callgsubr
          14 hvcurveto
          364 100 callgsubr
        </CharString>
        <CharString name="M">
          10 callsubr
          68 56 170 56 40 56 vstem
          -56 callgsubr
          endchar
        </CharString>
        <CharString name="Mdotbelow">
          -19 callsubr
          495 58 hstemhm
          68 56 88 90 -8 56 40 56 hintmask 01110110
          -56 callgsubr
          hintmask 10001000
          -195 -184 rmoveto
          70 callsubr
        </CharString>
        <CharString name="Mu">
          10 callsubr
          68 56 170 56 40 56 vstem
          -56 callgsubr
          endchar
        </CharString>
        <CharString name="N">
          10 callsubr
          91 56 220 56 vstem
          -98 callgsubr
          endchar
        </CharString>
        <CharString name="Nacute">
          -47 callsubr
          85 23 callgsubr
          91 56 220 56 hintmask 11001100
          -98 callgsubr
          hintmask 00110000
          -123 195 -106 callgsubr
        </CharString>
        <CharString name="Ncaron">
          4 callsubr
          91 56 220 56 vstemhm
          -98 callgsubr
          -101 128 -82 callgsubr
        </CharString>
        <CharString name="Ncedilla">
          27 callgsubr
          hstem
          91 56 220 56 vstem
          -98 callgsubr
          -169 -689 -99 callgsubr
        </CharString>
        <CharString name="Ncommaaccent">
          21 callsubr
          91 56 220 56 hintmask 00111100
          -98 callgsubr
          hintmask 11000000
          -169 -689 -99 callgsubr
        </CharString>
        <CharString name="Ndotaccent">
          4 callsubr
          91 56 65 90 65 56 hintmask 11101000
          -98 callgsubr
          hintmask 00010000
          -183 128 rmoveto
          70 callsubr
        </CharString>
        <CharString name="Ndotbelow">
          -19 callsubr
          495 58 hstemhm
          91 56 65 90 65 56 hintmask 01110100
          -98 callgsubr
          hintmask 10001000
          -183 -737 rmoveto
          70 callsubr
        </CharString>
        <CharString name="Ntilde">
          -47 callsubr
          54 76 callsubr
          91 56 220 56 hintmask 11001100
          -98 callgsubr
          hintmask 00010000
          -57 171 -101 callgsubr
        </CharString>
        <CharString name="Nu">
          10 callsubr
          91 56 220 56 vstem
          -98 callgsubr
          endchar
        </CharString>
        <CharString name="O">
          -32 callsubr
          hstem
          28 callsubr
          vstem
          -103 callsubr
          endchar
        </CharString>
        <CharString name="OE">
          -37 callsubr
        </CharString>
        <CharString name="OE.dup">
          -37 callsubr
        </CharString>
        <CharString name="Oacute">
          57 callgsubr
          55 65 274 65 hintmask 11001100
          -103 callsubr
          hintmask 00110000
          -32 463 -106 callgsubr
        </CharString>
        <CharString name="Obreve">
          -32 callsubr
          52 60 52 -20 46 callsubr
          hintmask 11001100
          -103 callsubr
          hintmask 00110000
          35 442 -96 callgsubr
        </CharString>
        <CharString name="Ocaron">
          43 callsubr
          55 65 274 65 vstemhm
          -103 callsubr
          -10 396 -82 callgsubr
        </CharString>
        <CharString name="Ocircumflex">
          43 callsubr
          55 65 274 65 vstemhm
          -103 callsubr
          -9 409 -104 callsubr
          endchar
        </CharString>
        <CharString name="Ocircumflexacute">
          -32 callsubr
          299 -20 46 callsubr
          hintmask 11011000
          -103 callsubr
          hintmask 00100000
          -9 409 -77 callsubr
        </CharString>
        <CharString name="Ocircumflexdotbelow">
          58 callsubr
          519 58 hstemhm
          55 65 92 90 92 65 hintmask 01110100
          -103 callsubr
          -9 409 -104 callsubr
          hintmask 10001000
          -83 -878 rmoveto
          70 callsubr
        </CharString>
        <CharString name="Ocircumflexgrave">
          43 callsubr
          55 65 274 65 vstemhm
          -103 callsubr
          -9 409 -76 callgsubr
        </CharString>
        <CharString name="Ocircumflexhookabove">
          -32 callsubr
          376 -20 46 callsubr
          hintmask 11011000
          -103 callsubr
          hintmask 00100000
          -9 409 -104 callsubr
          65 196 -107 callgsubr
        </CharString>
        <CharString name="Ocircumflextilde">
          -32 callsubr
          184 61 -5 61 46 callsubr
          hintmask 11001100
          -103 callsubr
          hintmask 00010000
          -9 409 rmoveto
          -118 43 -6 2 -7 0 -6 -2 rlinecurve
          -118 -43 -36 -13 18 -54 36 11 rlinecurve
          109 33 109 -33 36 -11 18 54 -35 13 rlinecurve
          43 172 -101 callgsubr
        </CharString>
        <CharString name="Odblgrave">
          43 callsubr
          55 65 274 65 vstemhm
          -103 callsubr
          26 373 -100 callsubr
        </CharString>
        <CharString name="Odieresis">
          43 callsubr
          55 65 10 81 94 81 8 65 hintmask 11100100
          -103 callsubr
          hintmask 00011000
          -183 391 -62 callgsubr
        </CharString>
        <CharString name="Odotbelow">
          58 callsubr
          519 58 hstemhm
          55 65 92 90 92 65 hintmask 01110100
          -103 callsubr
          hintmask 10001000
          -92 -469 rmoveto
          70 callsubr
        </CharString>
        <CharString name="Ograve">
          57 callgsubr
          55 65 274 65 hintmask 11001100
          -103 callsubr
          hintmask 00110000
          -31 397 -94 callsubr
        </CharString>
        <CharString name="Ohookabove">
          -32 callsubr
          75 112 callgsubr
          46 callsubr
          hintmask 11001100
          -103 callsubr
          hintmask 00110000
          -40 515 -107 callgsubr
        </CharString>
        <CharString name="Ohorn">
          -32 callsubr
          78 -20 hstem
          55 65 273 65 vstem
          -92 callsubr
          endchar
        </CharString>
        <CharString name="Ohornacute">
          -32 callsubr
          73 -21 26 -20 129 -20 hstemhm
          55 65 273 65 hintmask 11010110
          -92 callsubr
          hintmask 00101000
          -60 459 -106 callgsubr
        </CharString>
        <CharString name="Ohorndotbelow">
          58 callsubr
          519 58 78 -20 hstemhm
          55 65 92 90 91 65 hintmask 01111010
          -92 callsubr
          hintmask 10000100
          -91 -473 rmoveto
          70 callsubr
        </CharString>
        <CharString name="Ohorngrave">
          -32 callsubr
          73 -21 26 -20 129 -20 hstemhm
          55 65 273 65 hintmask 11010110
          -92 callsubr
          hintmask 00101000
          -59 393 -94 callsubr
        </CharString>
        <CharString name="Ohornhookabove">
          -32 callsubr
          75 -21 24 -20 228 -20 hstemhm
          55 65 273 65 hintmask 11010110
          -92 callsubr
          hintmask 00101000
          -39 511 -107 callgsubr
        </CharString>
        <CharString name="Ohorntilde">
          -32 callsubr
          42 76 callsubr
          55 65 273 65 hintmask 11001100
          -92 callsubr
          hintmask 00010000
          6 435 -101 callgsubr
        </CharString>
        <CharString name="Ohungarumlaut">
          43 callsubr
          55 65 274 65 vstemhm
          -103 callsubr
          -165 487 -75 callgsubr
        </CharString>
        <CharString name="Omacron">
          43 callsubr
          55 65 274 65 vstemhm
          -103 callsubr
          49 400 -90 callgsubr
        </CharString>
        <CharString name="Omega">
          -25 callsubr
        </CharString>
        <CharString name="Omicron">
          -32 callsubr
          hstem
          28 callsubr
          vstem
          -103 callsubr
          endchar
        </CharString>
        <CharString name="Oogonek">
          -32 callsubr
          hstem
          28 callsubr
          vstem
          -16 callgsubr
          endchar
        </CharString>
        <CharString name="Oogonekacute">
          57 callgsubr
          55 65 274 65 hintmask 11001100
          -16 callgsubr
          hintmask 00110000
          -32 463 -106 callgsubr
        </CharString>
        <CharString name="Orogate">
          515 28 callsubr
          vstem
          11 callsubr
          275 -19 39 -154 4 vhcurveto
          118 vlineto
          36 callsubr
          -118 vlineto
          -154 -4 -19 -39 -274 vvcurveto
          -275 19 -39 154 -4 vhcurveto
          -118 30 callgsubr
          118 vlineto
          154 4 19 39 274 vvcurveto
          -65 9 rmoveto
          -62 0 -77 -11 -54 vhcurveto
          -51 -11 -22 -24 -93 hhcurveto
          -91 -22 24 46 -11 hvcurveto
          -13 51 0 90 57 vvcurveto
          64 0 71 11 48 vhcurveto
          55 14 30 13 82 hhcurveto
          79 32 -12 -53 14 hvcurveto
          12 -47 0 -78 -61 vvcurveto
          endchar
        </CharString>
        <CharString name="Oslash">
          -44 callgsubr
        </CharString>
        <CharString name="Oslash.dup">
          -44 callgsubr
        </CharString>
        <CharString name="Oslashacute">
          515 -63 -21 30 58 -16 58 -56 58 515 58 -56 58 -16 58 30 -20 21 23 callgsubr
          55 56 19 56 142 56 19 56 hintmask 0000001100001000
          11 callsubr
          49 0 63 -5 48 vhcurveto
          -9 89 -16 35 -45 18 rrcurveto
          2 8 16 49 3 vvcurveto
          13 -10 15 -20 -20 -5 -15 -15 -5 vhcurveto
          hintmask 0000100000001000
          -14 -44 rlineto
          hintmask 1100010000110000
          2 -28 -26 0 -17 hhcurveto
          -181 -21 -27 -290 -49 0 -63 5 -48 hvcurveto
          9 -89 16 -35 45 -18 rrcurveto
          -2 -8 -16 -49 -3 vvcurveto
          -13 10 -15 20 20 5 15 15 5 vhcurveto
          hintmask 0001000000010000
          14 44 rlineto
          hintmask 0010010000100100
          -2 28 26 0 17 hhcurveto
          -3 callgsubr
          hvcurveto
          -150 258 rmoveto
          -159 -494 rlineto
          -19 15 -20 16 205 vvcurveto
          64 0 75 12 51 vhcurveto
          62 16 41 8 77 hhcurveto
          hintmask 0010100000000000
          4 31 0 -2 17 hvcurveto
          94 -257 rmoveto
          -64 0 -75 -12 -51 vhcurveto
          -62 -16 -41 -8 -77 hhcurveto
          hintmask 0001000000000100
          -4 -31 0 2 -17 hvcurveto
          159 494 rlineto
          19 -15 20 -16 -205 vvcurveto
          hintmask 0000000011000000
          -54 471 -106 callgsubr
        </CharString>
        <CharString name="Otilde">
          -32 callsubr
          42 61 -5 61 46 callsubr
          hintmask 11001100
          -103 callsubr
          hintmask 00010000
          34 439 -101 callgsubr
        </CharString>
        <CharString name="P">
          -9 callsubr
        </CharString>
        <CharString name="Phi">
          -59 callsubr
          94 58 191 58 94 58 hstem
          40 65 120 65 119 65 vstem
          474 305 rmoveto
          71 -68 70 -116 13 vhcurveto
          94 38 -42 callsubr
          -141 -105 callgsubr
          38 -94 hlineto
          -118 -12 -67 -73 -68 vvcurveto
          -72 71 -70 114 -12 vhcurveto
          -94 -38 vlineto
          -14 -26 -102 callgsubr
          141 -77 callgsubr
          -38 94 hlineto
          119 13 65 74 66 vvcurveto
          -249 -95 rmoveto
          -64 8 -56 39 48 vvcurveto
          53 61 35 59 8 vhcurveto
          184 -95 rmoveto
          -54 -63 -34 -56 -8 vhcurveto
          191 vlineto
          60 -8 59 -37 -50 vvcurveto
          endchar
        </CharString>
        <CharString name="Pi">
          10 callsubr
          86 65 212 65 vstem
          490 -70 callsubr
          -22 495 22 -74 callgsubr
          29 -25 0 -15 hvcurveto
          -386 -87 callgsubr
          495 212 -495 -24 callsubr
          endchar
        </CharString>
        <CharString name="Psi">
          -59 callsubr
          368 58 69 58 hstem
          78 65 82 65 81 65 vstem
          477 455 rmoveto
          27 -23 2 -11 -71 -1 -81 -34 -47 -5 -87 -76 -22 vhcurveto
          340 32 vlineto
          -78 callsubr
          -129 -105 callsubr
          32 -340 hlineto
          -79 22 -3 95 41 vvcurveto
          36 -3 77 -69 -28 -6 -16 -13 -23 19 -5 7 -1 vhcurveto
          14 -3 1 -34 -30 vvcurveto
          1 -84 30 -101 116 -21 rrcurveto
          -95 -32 vlineto
          106 callgsubr
          14 hvcurveto
          129 -85 callsubr
          -32 95 hlineto
          104 18 41 86 1 110 rrcurveto
          18 0 38 15 3 vhcurveto
          7 1 19 5 23 vvcurveto
          endchar
        </CharString>
        <CharString name="Q">
          515 -118 -21 127 58 519 58 hstemhm
          55 65 -65 75 107 65 82 75 -65 65 hintmask 11110110
          -71 callgsubr
          14 32 0 1 12 vhcurveto
          13 -25 30 -62 14 -25 rrcurveto
          -16 10 8 0 22 hhcurveto
          18 16 0 19 6 -18 34 -11 19 hvcurveto
          -33 64 47 20 13 40 9 71 rlinecurve
          6 50 0 83 38 vvcurveto
          -65 1 rmoveto
          -213 -20 -13 -23 -16 vhcurveto
          -49 93 rlineto
          14 -7 -4 0 -19 hhcurveto
          -7 hlineto
          -14 -18 0 -19 -5 1 -3 3 -5 hvcurveto
          41 -79 rlineto
          5 -9 0 -2 0 vvcurveto
          0 -1 -3 -17 vhcurveto
          -16 hlineto
          hintmask 00001000
          -97 -13 35 46 -9 hvcurveto
          hintmask 00010000
          -10 49 0 76 53 vvcurveto
          hintmask 00101010
          75 callgsubr
          hintmask 00000001
          10 -49 0 -76 -53 vvcurveto
          endchar
        </CharString>
        <CharString name="R">
          -63 callsubr
          endchar
        </CharString>
        <CharString name="Racute">
          515 -12 9 callgsubr
          85 23 callgsubr
          86 65 183 65 -39 65 22 65 hintmask 1010000010100000
          -51 callgsubr
          hintmask 0101100101000000
          55 32 30 54 54 vvcurveto
          83 -73 84 -118 vhcurveto
          -170 -87 callgsubr
          219 79 hlineto
          18 31 0 -28 32 hvcurveto
          hintmask 1001100110100000
          -58 callsubr
          hintmask 0000000001000000
          64 callsubr
          hintmask 0000011000000000
          2 333 -106 callgsubr
        </CharString>
        <CharString name="Rcaron">
          -63 callsubr
          hintmask 0000000000000000
          24 266 -82 callgsubr
        </CharString>
        <CharString name="Rcedilla">
          -10 callgsubr
          24 0 callgsubr
          183 65 -39 65 22 65 hintmask 0010100010100000
          -51 callgsubr
          hintmask 0001011101000000
          55 32 30 54 54 vvcurveto
          83 -73 84 -118 vhcurveto
          -170 -87 callgsubr
          219 79 hlineto
          18 31 0 -28 32 hvcurveto
          hintmask 0010011110100000
          -58 callsubr
          hintmask 1100000001000000
          64 callsubr
          -44 -551 -99 callgsubr
        </CharString>
        <CharString name="Rcommaaccent">
          -10 callgsubr
          24 0 callgsubr
          183 65 -39 65 22 65 hintmask 0010100010100000
          -51 callgsubr
          hintmask 0001011101000000
          55 32 30 54 54 vvcurveto
          83 -73 84 -118 vhcurveto
          -170 -87 callgsubr
          219 79 hlineto
          18 31 0 -28 32 hvcurveto
          hintmask 0010011110100000
          -58 callsubr
          hintmask 0000000001000000
          64 callsubr
          hintmask 1100000000000000
          -44 -551 -99 callgsubr
        </CharString>
        <CharString name="Rdblgrave">
          -63 callsubr
          hintmask 0000000000000000
          31 243 -100 callsubr
        </CharString>
        <CharString name="Rdotaccent">
          515 -12 0 callgsubr
          61 90 32 65 -39 65 22 65 hintmask 1010000101000000
          -51 callgsubr
          hintmask 0101110010000000
          55 32 30 54 54 vvcurveto
          83 -73 84 -118 vhcurveto
          -170 -87 callgsubr
          219 79 hlineto
          18 31 0 -28 32 hvcurveto
          hintmask 1001110101000000
          -58 callsubr
          hintmask 0000000010000000
          64 callsubr
          hintmask 0000001000000000
          -58 278 rmoveto
          70 callsubr
        </CharString>
        <CharString name="Rdotbelow">
          515 -200 90 98 0 callgsubr
          61 90 32 65 -39 65 22 65 hintmask 0101000010100000
          -51 callgsubr
          hintmask 0010111001000000
          55 32 30 54 54 vvcurveto
          83 -73 84 -118 vhcurveto
          -170 -87 callgsubr
          219 79 hlineto
          18 31 0 -28 32 hvcurveto
          hintmask 0100111010100000
          -58 callsubr
          hintmask 0000000001000000
          64 callsubr
          hintmask 1000000100000000
          -58 -599 rmoveto
          70 callsubr
        </CharString>
        <CharString name="Rdotbelowmacron">
          515 -200 90 98 0 callgsubr
          61 90 32 65 -39 65 22 65 hintmask 0101000010100000
          -51 callgsubr
          hintmask 0010111001000000
          55 32 30 54 54 vvcurveto
          83 -73 84 -118 vhcurveto
          -170 -87 callgsubr
          219 79 hlineto
          18 31 0 -28 32 hvcurveto
          hintmask 0100111010100000
          -58 callsubr
          hintmask 1000000101000000
          64 callsubr
          -58 -599 -102 callsubr
          hintmask 0000000000000000
          141 869 -90 callgsubr
        </CharString>
        <CharString name="Rho">
          -9 callsubr
        </CharString>
        <CharString name="S">
          -32 callsubr
          hstem
          51 62 288 62 vstem
          -95 callgsubr
          -43 55 69 -7 41 hhcurveto
          113 71 87 89 hvcurveto
          endchar
        </CharString>
        <CharString name="Sacute">
          57 callgsubr
          51 62 288 62 hintmask 11001100
          -95 callgsubr
          -43 55 69 -7 41 hhcurveto
          113 71 87 89 hvcurveto
          hintmask 00110000
          -101 613 -106 callgsubr
        </CharString>
        <CharString name="Scaron">
          43 callsubr
          51 62 288 62 vstemhm
          -95 callgsubr
          -43 55 69 -7 41 hhcurveto
          113 71 87 89 hvcurveto
          -79 546 -82 callgsubr
        </CharString>
        <CharString name="Scedilla">
          515 -219 58 149 58 519 58 hstem
          51 62 196 62 30 62 vstem
          -95 callgsubr
          41 -32 50 -12 39 -4 rrcurveto
          -30 vlineto
          -33 callgsubr
          22 callgsubr
          15 vlineto
          95 14 59 79 81 vvcurveto
          endchar
        </CharString>
        <CharString name="Scircumflex">
          43 callsubr
          51 62 288 62 vstemhm
          -95 callgsubr
          -43 55 69 -7 41 hhcurveto
          113 71 87 89 hvcurveto
          -78 559 -104 callsubr
          endchar
        </CharString>
        <CharString name="Sdotbelow">
          58 callsubr
          519 58 hstemhm
          51 62 99 90 99 62 hintmask 01110100
          -95 callgsubr
          -43 55 69 -7 41 hhcurveto
          113 71 87 89 hvcurveto
          hintmask 10001000
          -161 -319 rmoveto
          70 callsubr
        </CharString>
        <CharString name="Sigma">
          -34 callsubr
          60 493 58 hstem
          129 65 215 65 vstem
          474 41 rmoveto
          68 vlineto
          18 47 callsubr
          -19 vhcurveto
          -49 -280 vlineto
          128 224 rlineto
          7 12 0 4 13 vvcurveto
          -137 240 rlineto
          282 -49 hlineto
          -43 callgsubr
          22 19 57 callsubr
          -353 hlineto
          -14 -27 0 -29 -6 1 -4 7 -13 hvcurveto
          146 -254 -145 -255 rlineto
          -9 -14 0 -2 -6 vvcurveto
          -28 28 0 13 vhcurveto
          353 100 callgsubr
        </CharString>
        <CharString name="T">
          10 callsubr
          91 callsubr
          vstem
          -83 callsubr
          endchar
        </CharString>
        <CharString name="T_uni0303">
          -47 callsubr
          54 76 callsubr
          91 callsubr
          hintmask 11001110
          -83 callsubr
          hintmask 00010000
          -60 249 -101 callgsubr
        </CharString>
        <CharString name="T_uni0308">
          4 callsubr
          26 65 39 81 14 65 15 81 37 65 hintmask 11101010
          -83 callsubr
          hintmask 00010100
          -277 201 -62 callgsubr
        </CharString>
        <CharString name="Tau">
          10 callsubr
          91 callsubr
          vstem
          -83 callsubr
          endchar
        </CharString>
        <CharString name="Tcaron">
          515 0 89 callsubr
          vstemhm
          -83 callsubr
          -104 206 -82 callgsubr
        </CharString>
        <CharString name="Tcedilla">
          515 -210 58 152 78 callgsubr
          -64 65 -34 65 0 65 36 65 hintmask 0111100010000000
          488 3 callsubr
          -381 hlineto
          -33 -8 -8 -33 hvcurveto
          -66 vlineto
          -43 callgsubr
          22 19 vhcurveto
          49 134 -495 -48 vlineto
          -14 -26 -102 callgsubr
          hintmask 0100010000000000
          49 -31 hlineto
          hintmask 1000001000000000
          -33 callgsubr
          hvcurveto
          hintmask 0000010100000000
          22 callgsubr
          hintmask 0110100010000000
          -1 16 rlineto
          48 -39 callsubr
          endchar
        </CharString>
        <CharString name="Tdotbelow">
          -19 callsubr
          495 58 hstemhm
          26 65 121 90 -77 65 133 65 hintmask 01110110
          -83 callsubr
          hintmask 10001000
          -186 -659 rmoveto
          70 callsubr
        </CharString>
        <CharString name="Theta">
          -15 callgsubr
          227 65 227 58 hstemhm
          55 65 -65 75 28 65 68 65 28 75 -65 65 cntrmask 1110000000000000
          hintmask 1111000010000000
          -71 callgsubr
          -3 callgsubr
          vhcurveto
          -65 1 rmoveto
          hintmask 1110100100000000
          -60 0 -71 -10 -49 vhcurveto
          -58 -11 -22 -22 -94 hhcurveto
          -95 -21 23 58 -11 hvcurveto
          hintmask 1111000000000000
          -10 49 0 76 53 vvcurveto
          hintmask 1110100100000000
          75 callgsubr
          hintmask 1110011010000000
          10 -49 0 -76 -53 vvcurveto
          -38 -23 rmoveto
          45 vlineto
          17 0 24 -33 -30 -2 -24 -7 vhcurveto
          -68 hlineto
          7 -2 24 -30 -33 0 -24 -17 vhcurveto
          -45 vlineto
          -17 0 -24 33 30 2 24 7 vhcurveto
          68 hlineto
          -7 2 -24 30 33 0 24 17 vhcurveto
          endchar
        </CharString>
        <CharString name="Thorn">
          -59 callsubr
          101 58 231 58 47 58 hstem
          107 65 229 65 vstem
          466 332 rmoveto
          67 -46 107 -143 vhcurveto
          -105 47 hlineto
          17 31 0 1 3 hvcurveto
          11 1 12 10 17 vvcurveto
          29 -25 0 -17 vhcurveto
          -129 hlineto
          -17 -25 0 -29 -17 12 -10 11 -2 hvcurveto
          51 -495 hlineto
          -17 -31 0 -1 -3 hvcurveto
          -11 -1 -12 -10 -17 vvcurveto
          -29 25 0 17 vhcurveto
          129 hlineto
          17 25 0 29 17 -12 10 -11 2 hvcurveto
          -51 101 114 hlineto
          118 62 91 82 hvcurveto
          -65 1 rmoveto
          -51 -42 -65 -97 vhcurveto
          -90 231 92 hlineto
          131 6 -102 -13 hvcurveto
          endchar
        </CharString>
        <CharString name="Tlinebelow">
          515 0 89 callsubr
          vstemhm
          -83 callsubr
          -45 -659 -90 callgsubr
        </CharString>
        <CharString name="U">
          -10 callsubr
          hstem
          75 65 234 65 vstem
          -103 callgsubr
          endchar
        </CharString>
        <CharString name="U_uni032F">
          105 callsubr
          87 58 507 58 hstemhm
          75 65 234 65 hintmask 00111100
          -103 callgsubr
          hintmask 11000000
          -78 -762 -60 callgsubr
        </CharString>
        <CharString name="Uacute">
          -10 callsubr
          85 23 callgsubr
          75 65 234 65 hintmask 11001100
          -103 callgsubr
          hintmask 00110000
          -145 195 -106 callgsubr
        </CharString>
        <CharString name="Ubreve">
          -10 callsubr
          64 60 52 -20 hstemhm
          75 65 234 65 hintmask 11001100
          -103 callgsubr
          hintmask 00110000
          -78 174 -96 callgsubr
        </CharString>
        <CharString name="Ucaron">
          -10 callsubr
          hstemhm
          75 65 234 65 vstemhm
          -103 callgsubr
          -123 128 -82 callgsubr
        </CharString>
        <CharString name="Ucircumflex">
          -10 callsubr
          hstemhm
          75 65 234 65 vstemhm
          -103 callgsubr
          -122 141 -104 callsubr
          endchar
        </CharString>
        <CharString name="Udblgrave">
          -10 callsubr
          hstemhm
          75 65 234 65 vstemhm
          -103 callgsubr
          -87 105 -100 callsubr
        </CharString>
        <CharString name="Udieresis">
          -10 callsubr
          hstemhm
          75 65 -10 81 94 81 -12 65 hintmask 11100100
          -103 callgsubr
          hintmask 00011000
          -13 callgsubr
          endchar
        </CharString>
        <CharString name="Udieresisacute">
          -10 callsubr
          219 23 callgsubr
          75 65 -10 81 94 81 -12 65 hintmask 11001001
          -103 callgsubr
          hintmask 00110110
          -13 callgsubr
          -24 206 -106 callgsubr
        </CharString>
        <CharString name="Udieresiscaron">
          -10 callsubr
          hstemhm
          75 65 -10 81 94 81 -12 65 hintmask 11100100
          -103 callgsubr
          hintmask 00011000
          -13 callgsubr
          -2 139 -82 callgsubr
        </CharString>
        <CharString name="Udieresisgrave">
          -10 callsubr
          219 23 callgsubr
          75 65 -10 81 94 81 -12 65 hintmask 11001001
          -103 callgsubr
          hintmask 00110110
          -13 callgsubr
          -23 140 -94 callsubr
        </CharString>
        <CharString name="Udotbelow">
          58 callsubr
          507 58 hstemhm
          75 65 72 90 72 65 hintmask 01110100
          -103 callgsubr
          hintmask 10001000
          -205 -737 rmoveto
          70 callsubr
        </CharString>
        <CharString name="Ugrave">
          -10 callsubr
          85 23 callgsubr
          75 65 234 65 hintmask 11001100
          -103 callgsubr
          hintmask 00110000
          -144 129 -94 callsubr
        </CharString>
        <CharString name="Uhookabove">
          -10 callsubr
          87 112 callgsubr
          hstemhm
          75 65 234 65 hintmask 11001100
          -103 callgsubr
          hintmask 00110000
          -153 247 -107 callgsubr
        </CharString>
        <CharString name="Uhorn">
          -10 callsubr
          90 -20 58 callgsubr
          hintmask 11110100
          -90 callsubr
          hintmask 01001000
          7 callsubr
          endchar
        </CharString>
        <CharString name="Uhornacute">
          -10 callsubr
          85 -21 26 -20 129 -20 58 callgsubr
          hintmask 11010101
          -90 callsubr
          hintmask 01000010
          7 callsubr
          hintmask 00101000
          -174 136 -106 callgsubr
        </CharString>
        <CharString name="Uhorndotbelow">
          58 callsubr
          507 58 90 -20 hstemhm
          74 65 73 90 72 64 -64 65 hintmask 01111001
          -90 callsubr
          hintmask 00100010
          7 callsubr
          hintmask 10000100
          -205 -796 rmoveto
          70 callsubr
        </CharString>
        <CharString name="Uhorngrave">
          -10 callsubr
          85 -21 26 -20 129 -20 58 callgsubr
          hintmask 11010101
          -90 callsubr
          hintmask 01000010
          7 callsubr
          hintmask 00101000
          -173 70 -94 callsubr
        </CharString>
        <CharString name="Uhornhookabove">
          -10 callsubr
          87 -21 24 -20 228 -20 58 callgsubr
          hintmask 11010101
          -90 callsubr
          hintmask 01000010
          7 callsubr
          hintmask 00101000
          -153 188 -107 callgsubr
        </CharString>
        <CharString name="Uhorntilde">
          -10 callsubr
          54 61 -5 61 58 callgsubr
          hintmask 11001010
          -90 callsubr
          hintmask 01000100
          7 callsubr
          hintmask 00010000
          -108 112 -101 callgsubr
        </CharString>
        <CharString name="Uhungarumlaut">
          -10 callsubr
          hstemhm
          75 65 234 65 vstemhm
          -103 callgsubr
          -278 219 -75 callgsubr
        </CharString>
        <CharString name="Umacron">
          -10 callsubr
          hstemhm
          75 65 234 65 vstemhm
          -103 callgsubr
          -64 132 -90 callgsubr
        </CharString>
        <CharString name="Uogonek">
          48 callsubr
          137 58 507 58 hstem
          75 65 166 65 3 65 vstem
          507 62 callgsubr
          -27 0 -14 vhcurveto
          -119 -89 callsubr
          -344 hlineto
          -109 -65 -54 -52 -53 -64 55 108 vhcurveto
          344 27 vlineto
          -78 callsubr
          -119 -89 callsubr
          -350 hlineto
          -109 67 -87 85 -16 vhcurveto
          -27 -27 -23 -36 -36 -75 callsubr
          40 19 37 30 24 hvcurveto
          86 16 68 87 109 vvcurveto
          350 27 17 callsubr
          hvcurveto
          endchar
        </CharString>
        <CharString name="Upsilon">
          -59 callsubr
          516 49 hstem
          193 65 -33 65 -33 65 cntrmask 00111000
          477 493 rmoveto
          55 -39 75 -73 -59 -37 -46 -99 -11 vhcurveto
          -1 hlineto
          102 -13 -36 43 -59 hhcurveto
          -73 -39 -75 -55 -24 14 -8 18 9 23 0 31 1 hvcurveto
          21 1 2 61 45 hhcurveto
          46 14 -58 -26 4 hvcurveto
          9 -44 2 -44 -45 vvcurveto
          -299 -32 vlineto
          106 callgsubr
          14 hvcurveto
          129 -85 callsubr
          -32 299 hlineto
          52 0 165 74 46 2 -66 -12 -14 1 -21 32 17 15 7 25 vhcurveto
          endchar
        </CharString>
        <CharString name="Uring">
          -10 callsubr
          14 38 68 38 hstemhm
          75 65 22 50 90 50 22 65 hintmask 11001001
          -103 callgsubr
          hintmask 00110110
          -205 115 -46 callgsubr
        </CharString>
        <CharString name="Utilde">
          -10 callsubr
          54 76 callsubr
          75 65 234 65 hintmask 11001100
          -103 callgsubr
          hintmask 00010000
          -79 171 -101 callgsubr
        </CharString>
        <CharString name="V">
          515 12 -21 562 58 hstem
          18 478 vstem
          496 582 -66 callsubr
          vhcurveto
          -94 19 callgsubr
          hvcurveto
          -81 -323 -13 -51 -17 -70 -6 -41 rlinecurve
          -1 hlineto
          -6 39 -11 42 -10 41 -91 363 rcurveline
          30 24 -68 callgsubr
          -94 hlineto
          85 callsubr
          23 0 30 hvcurveto
          1 hlineto
          133 -526 rlineto
          -36 9 21 0 22 hhcurveto
          22 20 0 34 9 hvcurveto
          134 528 rlineto
          31 23 0 29 hvcurveto
          endchar
        </CharString>
        <CharString name="W">
          45 callgsubr
          hstem
          11 492 vstem
          -88 callgsubr
          endchar
        </CharString>
        <CharString name="Wacute">
          45 callgsubr
          85 23 callgsubr
          11 492 hintmask 11100100
          -88 callgsubr
          hintmask 00011000
          -141 195 -106 callgsubr
        </CharString>
        <CharString name="Wcircumflex">
          45 callgsubr
          hstemhm
          11 492 vstemhm
          -88 callgsubr
          -118 141 -104 callsubr
          endchar
        </CharString>
        <CharString name="Wdieresis">
          45 callgsubr
          hstemhm
          11 492 -373 81 94 81 hintmask 11110000
          -88 callgsubr
          hintmask 00001100
          -292 24 callgsubr
        </CharString>
        <CharString name="Wgrave">
          45 callgsubr
          85 23 callgsubr
          11 492 hintmask 11100100
          -88 callgsubr
          hintmask 00011000
          -140 129 -94 callsubr
        </CharString>
        <CharString name="X">
          -20 callgsubr
        </CharString>
        <CharString name="Xi">
          -34 callsubr
          56 45 -20 196 -21 34 56 34 -20 176 -21 40 56 hstemhm
          32 65 -61 65 6 65 170 65 6 65 -61 65 hintmask 0000011010010000
          478 556 rmoveto
          14 -38 callgsubr
          -361 hlineto
          -33 -8 -8 -33 hvcurveto
          -14 vlineto
          -19 0 -22 33 32 0 24 16 vhcurveto
          312 hlineto
          -16 0 -24 32 33 0 22 19 vhcurveto
          4 -515 rmoveto
          hintmask 1111100101101000
          19 vlineto
          18 0 23 -32 -33 0 -21 -24 vhcurveto
          -320 hlineto
          24 0 21 -33 -32 0 -23 -18 vhcurveto
          -19 vlineto
          -33 8 -8 33 vhcurveto
          369 hlineto
          -30 callsubr
          -75 256 rmoveto
          42 vlineto
          18 0 23 -33 -32 0 -26 -8 vhcurveto
          -170 hlineto
          8 0 26 -32 -33 0 -23 -18 vhcurveto
          -42 vlineto
          -18 0 -23 33 32 0 26 8 vhcurveto
          170 hlineto
          -8 0 -26 32 33 0 23 18 vhcurveto
          endchar
        </CharString>
        <CharString name="Y">
          10 callsubr
          225 65 vstem
          -94 callgsubr
          endchar
        </CharString>
        <CharString name="Yacute">
          -47 callsubr
          85 23 callgsubr
          225 65 hintmask 11001000
          -94 callgsubr
          hintmask 00110000
          -134 195 -106 callgsubr
        </CharString>
        <CharString name="Ycircumflex">
          4 callsubr
          225 65 vstemhm
          -94 callgsubr
          -111 141 -104 callsubr
          endchar
        </CharString>
        <CharString name="Ydieresis">
          4 callsubr
          130 81 14 65 15 81 hintmask 11010000
          -94 callgsubr
          hintmask 00101000
          -285 24 callgsubr
        </CharString>
        <CharString name="Ydotbelow">
          -19 callsubr
          495 58 hstemhm
          212 90 -77 65 hintmask 01101000
          -94 callgsubr
          hintmask 10010000
          -194 -737 rmoveto
          70 callsubr
        </CharString>
        <CharString name="Ygrave">
          -47 callsubr
          85 23 callgsubr
          225 65 hintmask 11001000
          -94 callgsubr
          hintmask 00110000
          -133 129 -94 callsubr
        </CharString>
        <CharString name="Yhookabove">
          -47 callsubr
          87 112 callgsubr
          hstemhm
          225 65 hintmask 11001000
          -94 callgsubr
          hintmask 00110000
          -142 247 -107 callgsubr
        </CharString>
        <CharString name="Ytilde">
          -47 callsubr
          54 76 callsubr
          225 65 hintmask 11001000
          -94 callgsubr
          hintmask 00010000
          -68 171 -101 callgsubr
        </CharString>
        <CharString name="Z">
          10 callsubr
          58 65 284 65 vstem
          -69 callsubr
          endchar
        </CharString>
        <CharString name="Zacute">
          -47 callsubr
          85 23 callgsubr
          58 65 284 65 hintmask 11001100
          -69 callsubr
          hintmask 00110000
          -110 736 -106 callgsubr
        </CharString>
        <CharString name="Zcaron">
          4 callsubr
          58 65 284 65 vstemhm
          -69 callsubr
          -88 669 -82 callgsubr
        </CharString>
        <CharString name="Zdotaccent">
          4 callsubr
          58 65 89 90 105 65 hintmask 11101000
          -69 callsubr
          hintmask 00010000
          -170 681 rmoveto
          70 callsubr
        </CharString>
        <CharString name="Zdotbelow">
          -19 callsubr
          495 58 hstemhm
          58 65 89 90 105 65 hintmask 01110100
          -69 callsubr
          hintmask 10001000
          -170 -196 rmoveto
          70 callsubr
        </CharString>
        <CharString name="Zeta">
          10 callsubr
          58 65 284 65 vstem
          -69 callsubr
          endchar
        </CharString>
        <CharString name="a">
          -35 callsubr
          28 callgsubr
          hintmask 01011100
          -106 callsubr
          hintmask 10000000
          -42 callgsubr
          hintmask 01000000
          -74 callsubr
          hintmask 10101100
          -64 callgsubr
          endchar
        </CharString>
        <CharString name="aacute">
          -35 callsubr
          69 -21 135 -85 callgsubr
          18 372 -106 callgsubr
        </CharString>
        <CharString name="abreve">
          -35 callsubr
          60 60 52 -85 callgsubr
          16 callgsubr
          endchar
        </CharString>
        <CharString name="abreveacute">
          -35 callsubr
          60 60 207 -85 callgsubr
          85 363 -50 callsubr
        </CharString>
        <CharString name="abrevedotbelow">
          -21 callgsubr
          104 58 -52 58 160 58 106 58 60 60 52 -20 hstemhm
          51 65 96 90 42 65 hintmask 0010100101000000
          -106 callsubr
          hintmask 0100000000000000
          -42 callgsubr
          hintmask 0010000000000000
          -74 callsubr
          hintmask 0101011101000000
          -64 callgsubr
          16 callgsubr
          hintmask 1000000010000000
          -127 -736 rmoveto
          70 callsubr
        </CharString>
        <CharString name="abrevegrave">
          -35 callsubr
          60 60 52 -85 callgsubr
          85 363 -48 callgsubr
        </CharString>
        <CharString name="abrevehookabove">
          -35 callsubr
          60 60 284 -85 callgsubr
          16 callgsubr
          -75 183 -107 callgsubr
        </CharString>
        <CharString name="abrevetilde">
          -35 callsubr
          60 60 92 61 -47 60 -31 60 -47 61 28 callgsubr
          hintmask 0101000001100000
          -106 callsubr
          hintmask 1000000000000000
          -42 callgsubr
          hintmask 0100000000000000
          -74 callsubr
          hintmask 1010000001100000
          -64 callgsubr
          hintmask 0000100010000000
          16 callgsubr
          -1 159 rmoveto
          15 -14 14 -15 vhcurveto
          hintmask 0000000100000000
          -11 -7 -5 -9 -8 hvcurveto
          hintmask 0000010000000000
          0 -44 -42 -24 vhcurveto
          hintmask 0000001000000000
          -8 -6 5 8 -7 hvcurveto
          hintmask 0000000010000000
          -92 callgsubr
          hintmask 0000010000000000
          -15 14 -14 15 vhcurveto
          hintmask 0000001000000000
          11 7 5 9 8 hvcurveto
          hintmask 0000000010000000
          0 44 42 24 vhcurveto
          hintmask 0000000100000000
          8 6 -5 -8 7 hvcurveto
          hintmask 0000010000000000
          -95 callsubr
        </CharString>
        <CharString name="acaron">
          -35 callsubr
          28 callgsubr
          hintmask 01011100
          -106 callsubr
          hintmask 10000000
          -42 callgsubr
          hintmask 01000000
          -74 callsubr
          hintmask 10101100
          -64 callgsubr
          hintmask 00000000
          47 350 rmoveto
          -65 callgsubr
        </CharString>
        <CharString name="acircumflex">
          -35 callsubr
          28 callgsubr
          hintmask 01011100
          -106 callsubr
          hintmask 10000000
          -42 callgsubr
          hintmask 01000000
          -74 callsubr
          hintmask 10101100
          -64 callgsubr
          hintmask 00000000
          47 324 rmoveto
          -80 callsubr
          endchar
        </CharString>
        <CharString name="acircumflexacute">
          -35 callsubr
          305 -20 -21 callsubr
          41 328 -77 callsubr
        </CharString>
        <CharString name="acircumflexdotbelow">
          -21 callgsubr
          104 58 -52 58 160 58 106 58 hstemhm
          51 65 96 90 42 65 hintmask 00101101
          -106 callsubr
          hintmask 01000000
          -42 callgsubr
          hintmask 00100000
          -74 callsubr
          hintmask 01010101
          -64 callgsubr
          47 324 rmoveto
          -80 callsubr
          hintmask 10000010
          -89 -697 rmoveto
          70 callsubr
        </CharString>
        <CharString name="acircumflexgrave">
          -35 callsubr
          28 callgsubr
          hintmask 01011100
          -106 callsubr
          hintmask 10000000
          -42 callgsubr
          hintmask 01000000
          -74 callsubr
          hintmask 10101100
          -64 callgsubr
          hintmask 00000000
          41 328 -76 callgsubr
        </CharString>
        <CharString name="acircumflexhookabove">
          -35 callsubr
          382 -20 -21 callsubr
          41 328 -104 callsubr
          65 196 -107 callgsubr
        </CharString>
        <CharString name="acircumflextilde">
          -35 callsubr
          190 61 -5 61 28 callgsubr
          hintmask 01010011
          -106 callsubr
          hintmask 10000000
          -42 callgsubr
          hintmask 01000000
          -74 callsubr
          hintmask 10100011
          -64 callgsubr
          hintmask 00000100
          41 328 -15 callsubr
        </CharString>
        <CharString name="acute">
          515 509 25 callgsubr
          hstem
          362 590 -106 callgsubr
        </CharString>
        <CharString name="acute.cap">
          112 callsubr
          25 callgsubr
          hstem
          362 596 -106 callgsubr
        </CharString>
        <CharString name="acute.dup">
          515 509 25 callgsubr
          hstem
          362 590 -106 callgsubr
        </CharString>
        <CharString name="acute.ts1">
          515 497 -21 135 99 callsubr
          399 578 rmoveto
          17 -14 17 -18 vhcurveto
          hintmask 11000000
          -6 -1 -17 -3 -17 -12 -16 -7 rlinecurve
          -75 -37 rlineto
          -18 -9 -27 -6 -24 vvcurveto
          -17 14 -20 18 vhcurveto
          1 hlineto
          7 1 7 3 6 3 24 12 rcurveline
          35 15 35 19 34 17 rrcurveto
          15 8 12 6 18 vvcurveto
          endchar
        </CharString>
        <CharString name="adblgrave">
          -35 callsubr
          28 callgsubr
          hintmask 01011100
          -106 callsubr
          hintmask 10000000
          -42 callgsubr
          hintmask 01000000
          -74 callsubr
          hintmask 10101100
          -64 callgsubr
          hintmask 00000000
          76 281 -100 callsubr
        </CharString>
        <CharString name="adieresis">
          -35 callsubr
          75 81 hstemhm
          51 65 27 81 68 81 -29 65 hintmask 0101010010000000
          -106 callsubr
          hintmask 1000000000000000
          -42 callgsubr
          hintmask 0100000000000000
          -74 callsubr
          hintmask 1010010010000000
          -64 callgsubr
          hintmask 0000101100000000
          -120 337 -47 callgsubr
        </CharString>
        <CharString name="adotbelow">
          -21 callgsubr
          104 58 -52 58 160 58 106 58 hstemhm
          51 65 96 90 42 65 hintmask 00101101
          -106 callsubr
          hintmask 01000000
          -42 callgsubr
          hintmask 00100000
          -74 callsubr
          hintmask 01010101
          -64 callgsubr
          hintmask 10000010
          -42 -373 rmoveto
          70 callsubr
        </CharString>
        <CharString name="ae">
          -40 callgsubr
        </CharString>
        <CharString name="ae.dup">
          -40 callgsubr
        </CharString>
        <CharString name="aeacute">
          -34 callgsubr
          85 55 -3 58 -55 55 135 58 69 23 callgsubr
          31 56 0 56 11 56 0 56 -37 57 95 56 1 56 hintmask 1100100000010100
          494 109 rmoveto
          15 -12 13 -16 -22 -5 -19 -6 -1 vhcurveto
          -42 -11 -21 -18 -23 hhcurveto
          -41 -47 51 89 -9 hvcurveto
          168 hlineto
          36 4 11 31 142 -58 64 -64 hvcurveto
          hintmask 0000000000100000
          -48 -35 -34 -37 -23 hvcurveto
          hintmask 0000100101010000
          16 -8 -32 55 -72 hhcurveto
          -91 -20 -42 -27 -27 19 -15 22 39 0 34 17 hvcurveto
          1 10 9 1 10 hhcurveto
          47 30 -37 -63 hvcurveto
          -37 vlineto
          -154 -6 -44 -68 -56 vvcurveto
          hintmask 1001100010101100
          -56 39 -65 73 53 52 29 40 22 vhcurveto
          -32 21 40 -37 50 hhcurveto
          84 29 94 21 hvcurveto
          -57 138 rmoveto
          -150 hlineto
          84 7 42 51 36 hhcurveto
          32 31 -45 -90 2 hvcurveto
          -208 -106 rmoveto
          -24 0 -21 -19 -20 vhcurveto
          -9 -10 -21 -15 -30 hhcurveto
          -37 -25 32 32 hvcurveto
          hintmask 0010000000010000
          40 52 31 90 2 vhcurveto
          hintmask 0000011000000000
          133 401 -106 callgsubr
        </CharString>
        <CharString name="agrave">
          -35 callsubr
          69 -21 135 -85 callgsubr
          19 306 -94 callsubr
        </CharString>
        <CharString name="ahookabove">
          -35 callsubr
          232 -20 -20 callsubr
          hintmask 00011000
          10 374 -107 callgsubr
        </CharString>
        <CharString name="amacron">
          -35 callsubr
          86 59 -21 callsubr
          99 337 -90 callgsubr
        </CharString>
        <CharString name="ampersand">
          -15 callgsubr
          327 58 134 58 hstem
          93 56 90 56 90 56 cntrmask 00011100
          481 402 -66 callsubr
          vhcurveto
          -87 hlineto
          -13 -28 0 -29 -29 28 0 13 hvcurveto
          -36 -98 -27 -72 -24 -44 -52 89 -9 21 -12 30 rrcurveto
          51 59 50 58 72 vvcurveto
          61 -22 74 -69 -52 -51 -48 -95 -47 8 -58 20 -62 vhcurveto
          -61 -70 rlineto
          -20 -23 -20 -33 -53 vvcurveto
          -73 44 -73 76 55 43 38 31 24 vhcurveto
          -39 32 40 -30 43 hhcurveto
          66 26 70 47 32 -25 1 -3 -4 -22 0 -31 -2 hvcurveto
          -29 -2 -9 -32 -26 hhcurveto
          -36 -44 57 4 hvcurveto
          5 12 21 37 18 40 15 40 rlinecurve
          51 137 rlineto
          27 -84 callsubr
          -242 86 rmoveto
          -23 -7 -33 -59 -68 vhcurveto
          -16 58 0 57 0 vvcurveto
          57 23 29 24 35 0 -77 0 vhcurveto
          -4 -382 rmoveto
          -29 -20 -32 -31 -34 hhcurveto
          -46 -10 63 28 51 17 17 44 47 hvcurveto
          38 -83 39 -57 4 -6 rrcurveto
          endchar
        </CharString>
        <CharString name="anglearc">
          515 106 -21 442 -20 hstem
          342 64 vstem
          477 117 rmoveto
          13 -7 10 -11 6 vhcurveto
          -76 38 rlineto
          15 39 8 41 42 vvcurveto
          42 -8 41 -15 39 vhcurveto
          76 38 rlineto
          11 6 7 10 13 vvcurveto
          18 -14 14 -18 -5 -5 -1 -2 -4 vhcurveto
          -76 -39 -7 11 -6 9 -8 10 rlinecurve
          7 -6 -9 5 -10 hhcurveto
          -18 -14 -14 -18 -7 2 -7 5 -6 hvcurveto
          5 -6 4 -6 4 -6 -242 -122 rcurveline
          -11 -6 -7 -10 -13 vvcurveto
          -13 7 -10 11 -6 vhcurveto
          242 -122 -4 -6 -4 -6 -5 -6 rlinecurve
          -5 -6 -2 -7 -7 vvcurveto
          -18 14 -14 18 10 9 5 7 6 vhcurveto
          8 10 6 9 7 11 76 -39 rcurveline
          -2 4 5 -1 5 hhcurveto
          18 14 14 18 hvcurveto
          -135 189 rmoveto
          -32 -6 -32 -10 -29 vhcurveto
          -186 93 186 93 rlineto
          10 -29 6 -32 -32 vvcurveto
          endchar
        </CharString>
        <CharString name="angleleft">
          515 -61 -21 776 99 callsubr
          440 -49 rmoveto
          18 -20 22 -11 17 vhcurveto
          -58 94 -64 92 -58 95 rrcurveto
          -3 5 -7 7 6 vvcurveto
          5 8 11 6 7 vhcurveto
          36 57 138 214 21 33 rlineto
          6 8 6 10 11 vvcurveto
          17 -15 15 -17 vhcurveto
          hintmask 11000000
          -6 -1 -25 -4 -24 -51 -17 -27 rlinecurve
          -58 -92 -62 -90 -57 -93 rrcurveto
          -7 -10 -6 -10 -12 vvcurveto
          -2 vlineto
          2 -17 21 -26 13 -20 182 -283 rcurveline
          -16 11 10 -23 23 hhcurveto
          18 14 17 16 hvcurveto
          endchar
        </CharString>
        <CharString name="angleright">
          515 -61 -21 776 99 callsubr
          367 307 rmoveto
          19 -24 27 -13 21 vhcurveto
          -183 285 rlineto
          15 -11 -10 21 -20 hhcurveto
          hintmask 11000000
          -6 -1 rlineto
          -16 -2 -11 -14 -15 vvcurveto
          -18 17 -19 10 -15 vhcurveto
          182 -283 3 -6 8 -8 1 -7 rlinecurve
          -6 -7 -9 -5 -6 vhcurveto
          -173 -270 rlineto
          -13 -20 -23 -26 -20 vvcurveto
          -17 14 -15 18 22 9 19 16 10 vhcurveto
          182 283 27 42 rlineto
          6 9 6 9 11 vvcurveto
          endchar
        </CharString>
        <CharString name="aogonek">
          48 callsubr
          143 58 -52 58 324 58 28 callgsubr
          hintmask 00111100
          -106 callsubr
          hintmask 11000000
          -42 callgsubr
          7 -11 9 -7 12 -5 rrcurveto
          -39 -25 -38 -48 -47 -75 callsubr
          hvcurveto
          hintmask 00100000
          43 37 36 53 31 vhcurveto
          24 32 0 29 hvcurveto
          -165 103 rmoveto
          -23 0 -21 -41 -19 vhcurveto
          hintmask 01001100
          -64 callgsubr
          endchar
        </CharString>
        <CharString name="aogonekacute">
          48 callsubr
          143 58 -52 58 324 58 69 -21 135 -20 28 callgsubr
          hintmask 00110011
          -106 callsubr
          hintmask 11000000
          -42 callgsubr
          7 -11 9 -7 12 -5 rrcurveto
          -39 -25 -38 -48 -47 -75 callsubr
          hvcurveto
          hintmask 00100000
          43 37 36 53 31 vhcurveto
          24 32 0 29 hvcurveto
          -165 103 rmoveto
          -23 0 -21 -41 -19 vhcurveto
          hintmask 01000011
          -64 callgsubr
          hintmask 00001100
          18 372 -106 callgsubr
        </CharString>
        <CharString name="aring">
          -35 callsubr
          54 38 68 38 hstemhm
          51 65 46 50 90 50 -8 65 hintmask 0101001001000000
          -106 callsubr
          hintmask 1000000000000000
          -42 callgsubr
          hintmask 0100000000000000
          -74 callsubr
          hintmask 1010001001000000
          -64 callgsubr
          hintmask 0000110110000000
          -42 348 -46 callgsubr
        </CharString>
        <CharString name="aringacute">
          -35 callsubr
          54 38 68 38 84 38 33 -20 hstemhm
          51 65 46 50 90 50 -8 65 hintmask 0101000010010000
          -106 callsubr
          hintmask 1000000000000000
          -42 callgsubr
          hintmask 0100000000000000
          -74 callsubr
          hintmask 1010000010010000
          -64 callgsubr
          hintmask 0000111101100000
          -42 348 -66 callgsubr
          10 194 -106 callgsubr
        </CharString>
        <CharString name="asciicircum">
          515 432 543 rmoveto
          -163 79 -7 3 -9 0 -7 -3 rlinecurve
          -163 -79 -35 -17 24 -52 34 15 rlinecurve
          151 65 151 -65 35 -15 24 52 -35 17 rlinecurve
          endchar
        </CharString>
        <CharString name="asciitilde">
          515 428 335 rmoveto
          15 -14 14 -15 -11 -7 -5 -9 -8 vhcurveto
          0 -44 -42 -24 -8 -6 5 8 -7 vhcurveto
          -92 callgsubr
          -15 14 -14 15 11 7 5 9 8 vhcurveto
          0 44 42 24 8 6 -5 -8 7 vhcurveto
          -95 callsubr
        </CharString>
        <CharString name="asciitilde.low">
          515 428 88 rmoveto
          15 -14 14 -15 -11 -7 -5 -9 -8 vhcurveto
          0 -44 -42 -24 -8 -6 5 8 -7 vhcurveto
          -92 callgsubr
          -15 14 -14 15 11 7 5 9 8 vhcurveto
          0 44 42 24 8 6 -5 -8 7 vhcurveto
          -95 callsubr
        </CharString>
        <CharString name="asterisk">
          515 111 -21 431 -20 hstem
          227 60 vstem
          447 213 rmoveto
          12 -7 9 -9 6 vhcurveto
          -25 15 -55 29 -41 21 116 63 rcurveline
          12 6 9 9 15 vvcurveto
          19 -17 12 -14 -7 -8 -5 -3 -6 vhcurveto
          -111 -69 3 139 rlineto
          17 -14 13 -16 -16 -14 -12 -18 -29 1 -9 0 vhcurveto
          2 -101 -111 69 rlineto
          3 -6 -8 5 -7 hhcurveto
          -14 -17 -12 -19 -15 9 -9 12 -6 hvcurveto
          116 -62 -116 -63 rlineto
          -12 -6 -9 -9 -15 vvcurveto
          -19 17 -12 14 7 8 5 3 6 vhcurveto
          111 69 -1 -64 rlineto
          -2 -17 0 -39 -19 vvcurveto
          -18 15 -12 15 16 14 13 17 vhcurveto
          -3 139 99 -61 rlineto
          -16 24 2 0 7 hhcurveto
          14 17 12 19 hvcurveto
          endchar
        </CharString>
        <CharString name="asterisk.math">
          515 113 -21 430 -20 hstem
          200 57 -29 57 -29 57 cntrmask 00111000
          446 216 rmoveto
          23 -31 11 -22 12 vhcurveto
          -26 15 -28 18 -28 11 rrcurveto
          2 vlineto
          38 15 36 28 34 15 rrcurveto
          15 10 12 5 17 vvcurveto
          16 -12 15 -17 1 vhcurveto
          -2 hlineto
          -15 -14 -12 -8 -12 hvcurveto
          -61 -38 -10 -6 -10 -7 -10 -5 rlinecurve
          1 17 0 17 1 17 rrcurveto
          26 vlineto
          2 19 0 20 19 vvcurveto
          6 vlineto
          16 -2 -13 11 -16 hhcurveto
          -15 -13 -12 -15 -2 hvcurveto
          -6 vlineto
          -19 0 -20 2 -19 vhcurveto
          -26 vlineto
          1 -17 0 -17 1 -17 -10 5 -10 7 -10 6 -61 38 rcurveline
          8 -12 -14 12 -15 hhcurveto
          -2 hlineto
          -17 -1 -11 -15 -16 vvcurveto
          -24 30 -10 22 -12 vhcurveto
          26 -15 28 -18 28 -11 rrcurveto
          -2 vlineto
          -38 -15 -36 -28 -34 -15 rrcurveto
          -15 -10 -11 -4 -18 vvcurveto
          -16 11 -15 17 -1 vhcurveto
          2 hlineto
          15 14 12 8 12 hvcurveto
          61 38 10 6 10 7 10 5 rlinecurve
          -1 -17 0 -17 -1 -17 rrcurveto
          -26 vlineto
          -2 -19 0 -20 -19 vvcurveto
          -6 vlineto
          -16 2 13 -11 16 hhcurveto
          15 13 12 15 2 hvcurveto
          6 vlineto
          19 0 20 -2 19 vhcurveto
          26 vlineto
          -1 17 0 17 -1 17 10 -5 10 -7 10 -6 61 -38 rcurveline
          -8 12 14 -12 15 hhcurveto
          2 hlineto
          17 1 12 15 16 vvcurveto
          endchar
        </CharString>
        <CharString name="at">
          -34 callgsubr
          55 58 281 58 55 58 hstemhm
          43 56 87 56 0 56 117 56 hintmask 11111101
          471 79 rmoveto
          26 -25 0 -10 -15 -4 0 -9 -10 vhcurveto
          -33 -34 -38 -11 -35 hhcurveto
          -107 -94 109 144 150 98 104 102 29 42 -11 -65 23 hvcurveto
          9 -13 -24 12 -27 hhcurveto
          -79 -64 -86 -112 -118 68 -81 74 49 94 43 171 hvcurveto
          hintmask 11111011
          67 0 229 -173 -132 -123 -130 -181 -180 120 -132 137 94 77 61 24 vhcurveto
          -56 227 rmoveto
          -84 -45 -57 -41 -46 -41 62 78 84 45 57 41 46 41 -62 -78 vhcurveto
          endchar
        </CharString>
        <CharString name="atilde">
          -35 callsubr
          57 61 -5 61 28 callgsubr
          hintmask 01010011
          -106 callsubr
          hintmask 10000000
          -42 callgsubr
          hintmask 01000000
          -74 callsubr
          hintmask 10100011
          -64 callgsubr
          hintmask 00000100
          84 367 -3 callsubr
        </CharString>
        <CharString name="b">
          -34 callgsubr
          327 58 116 58 hstem
          96 65 251 65 vstem
          24 callsubr
          187 -69 callgsubr
          -512 hlineto
          -18 0 -23 33 32 0 21 29 vhcurveto
          4 callgsubr
          51 callgsubr
        </CharString>
        <CharString name="backslash">
          37 callgsubr
          57 400 vstem
          457 -50 rmoveto
          8 -2 4 -3 6 vhcurveto
          -329 697 rlineto
          18 -8 -6 11 -20 hhcurveto
          -15 -17 -12 -21 -8 2 -4 3 -6 hvcurveto
          329 -699 rlineto
          -10 5 8 -17 21 hhcurveto
          15 17 12 21 hvcurveto
          endchar
        </CharString>
        <CharString name="baht">
          515 -58 58 44 callgsubr
          0 58 hstemhm
          26 65 0 65 64 58 2 65 -58 58 42 65 -44 65 hintmask 0000110110100000
          473 167 rmoveto
          71 -49 65 -79 17 vhcurveto
          50 16 57 48 72 vvcurveto
          73 -59 82 -110 vhcurveto
          -5 58 hlineto
          36 callsubr
          -58 -154 vlineto
          -14 -26 0 -29 hvcurveto
          hintmask 0101010100000000
          -29 27 0 14 vhcurveto
          24 -495 -24 93 callgsubr
          13 hvcurveto
          154 hlineto
          hintmask 1001000110010000
          -58 30 callgsubr
          58 25 vlineto
          111 59 88 79 hvcurveto
          -86 288 rmoveto
          -44 -35 -57 -74 -6 vhcurveto
          205 2 vlineto
          hintmask 0111001101100000
          83 24 -62 -36 hvcurveto
          -167 -108 rmoveto
          -64 206 64 hlineto
          188 -384 rmoveto
          -49 -38 -62 -89 vhcurveto
          -3 231 9 hlineto
          hintmask 0110001100010000
          101 20 -86 -34 hvcurveto
          -188 -111 rmoveto
          -64 231 64 hlineto
          endchar
        </CharString>
        <CharString name="bar">
          37 callgsubr
          225 65 vstem
          290 -38 rmoveto
          18 callgsubr
          endchar
        </CharString>
        <CharString name="bigcircle">
          53 callgsubr
          441 37 vstem
          -54 callsubr
          endchar
        </CharString>
        <CharString name="blanksymbol">
          -34 callgsubr
          327 58 -46 58 20 58 26 58 hstemhm
          96 65 251 65 hintmask 01000100
          24 callsubr
          hintmask 10111110
          66 vlineto
          111 99 rlineto
          6 6 4 7 9 vvcurveto
          16 -13 13 -16 -7 -7 -3 -4 -5 vhcurveto
          -73 -65 rlineto
          43 -69 callgsubr
          -84 hlineto
          -71 -64 rlineto
          -6 -5 -4 -8 -8 vvcurveto
          -16 13 -13 16 7 7 3 4 5 vhcurveto
          33 29 rlineto
          -350 vlineto
          -18 0 -23 33 32 0 21 29 vhcurveto
          4 callgsubr
          hintmask 01000010
          51 callgsubr
        </CharString>
        <CharString name="braceleft">
          73 callsubr
          -54 rmoveto
          16 -8 13 -18 vhcurveto
          -141 3 0 35 32 vvcurveto
          161 vlineto
          27 -5 45 -57 27 vhcurveto
          62 32 0 46 32 vvcurveto
          115 vlineto
          23 0 35 4 9 vhcurveto
          37 17 93 2 29 hhcurveto
          10 14 8 21 29 -21 0 -19 -47 -136 -7 -99 -9 hvcurveto
          -157 vlineto
          -46 0 -11 -22 -14 vhcurveto
          -28 -19 -35 -5 -34 -1 rrcurveto
          -30 -19 -1 -28 -29 22 -1 14 hvcurveto
          64 -1 66 -16 2 -43 rrcurveto
          -166 vlineto
          -39 0 -94 192 19 21 0 29 vhcurveto
          endchar
        </CharString>
        <CharString name="braceright">
          73 callsubr
          305 rmoveto
          29 -22 1 -14 vhcurveto
          -74 1 -55 20 -2 39 rrcurveto
          166 vlineto
          39 0 94 -193 -18 -22 0 -29 -16 8 -13 18 vhcurveto
          142 -3 0 -34 -33 vvcurveto
          -161 vlineto
          -18 0 -51 62 -30 vhcurveto
          -62 -32 0 -46 -32 vvcurveto
          -115 vlineto
          -23 0 -35 -4 -9 vhcurveto
          -37 -17 -93 -2 -30 hhcurveto
          -9 -15 -7 -22 -29 22 0 18 53 131 9 97 9 hvcurveto
          157 vlineto
          48 0 12 30 16 vhcurveto
          27 14 31 5 30 1 rrcurveto
          30 19 1 28 hvcurveto
          endchar
        </CharString>
        <CharString name="bracketleft">
          515 -83 58 661 58 hstem
          220 65 vstem
          474 -54 -66 callsubr
          vhcurveto
          -149 661 149 -77 callgsubr
          -174 hlineto
          -33 -7 -9 -32 hvcurveto
          -695 vlineto
          -31 6 -10 34 vhcurveto
          174 -38 callsubr
        </CharString>
        <CharString name="bracketright">
          515 -83 58 661 58 hstem
          229 65 vstem
          294 -42 rmoveto
          695 -38 callgsubr
          -174 -105 callgsubr
          149 -661 -149 -105 callgsubr
          174 100 callgsubr
        </CharString>
        <CharString name="breve">
          106 callsubr
          52 -20 hstem
          429 581 -96 callgsubr
        </CharString>
        <CharString name="breve.cap">
          515 494 60 52 -20 hstem
          429 575 -96 callgsubr
        </CharString>
        <CharString name="breve.ts1">
          515 496 59 57 -20 hstem
          449 582 rmoveto
          16 -8 14 -22 -35 25 -30 -17 -40 vhcurveto
          -8 -24 -26 -2 -26 -16 -15 1 -15 -12 -13 -1 -15 hhcurveto
          -28 -31 3 15 -19 hvcurveto
          11 -14 10 28 -32 hhcurveto
          -3 -2 0 -1 -2 hvcurveto
          -16 -2 -6 -13 -13 vvcurveto
          -77 94 -10 69 vhcurveto
          62 hlineto
          62 98 8 78 hvcurveto
          endchar
        </CharString>
        <CharString name="brokenbar">
          37 callgsubr
          225 65 vstem
          290 374 rmoveto
          275 vlineto
          13 0 32 -32 -33 0 -31 -14 vhcurveto
          -275 vlineto
          -16 15 -13 18 17 15 13 16 vhcurveto
          -412 vmoveto
          275 vlineto
          16 -15 13 -17 -18 -15 -13 -16 vhcurveto
          -275 vlineto
          -13 0 -32 32 33 0 31 14 vhcurveto
          endchar
        </CharString>
        <CharString name="bullet">
          515 115 258 hstem
          128 258 vstem
          90 callgsubr
          -69 59 -59 69 75 55 62 66 vhcurveto
          endchar
        </CharString>
        <CharString name="c">
          -40 callsubr
          endchar
        </CharString>
        <CharString name="cacute">
          56 callsubr
          74 65 160 107 callgsubr
          hintmask 11001101
          -49 callgsubr
          hintmask 11001010
          42 callgsubr
          hintmask 00110000
          -68 481 -106 callgsubr
        </CharString>
        <CharString name="caron">
          514 391 568 rmoveto
          -65 callgsubr
        </CharString>
        <CharString name="caron.cap">
          514 384 529 -82 callgsubr
        </CharString>
        <CharString name="caron.ts1">
          515 501 -21 137 -20 hstem
          437 579 rmoveto
          17 -12 21 -19 -12 -12 -8 -5 -10 vhcurveto
          -104 -53 rlineto
          -2 -3 -4 -2 -4 hhcurveto
          -2 hlineto
          -4 -4 3 2 -4 hvcurveto
          -21 10 -76 39 rlineto
          6 -12 -13 10 -14 hhcurveto
          0 -5 0 -2 -1 vhcurveto
          -15 -3 -9 -20 -14 vvcurveto
          -23 31 -8 16 -8 vhcurveto
          36 -18 37 -16 36 -18 rrcurveto
          -4 8 8 -4 8 hhcurveto
          20 29 20 11 23 hvcurveto
          67 32 rlineto
          18 8 24 7 21 vvcurveto
          endchar
        </CharString>
        <CharString name="ccaron">
          -40 callsubr
          hintmask 00010000
          -39 459 rmoveto
          -65 callgsubr
        </CharString>
        <CharString name="ccedilla">
          515 -207 58 143 58 330 58 hstemhm
          74 65 95 65 -29 65 -36 65 -63 65 0 65 -64 78 -54 65 hintmask 0111001000100000
          -49 callgsubr
          hintmask 0011010001000000
          22 19 15 27 69 -101 0 -44 -171 -55 -140 -84 -116 84 -96 112 -9 hvcurveto
          -23 vlineto
          hintmask 1000100100000000
          -33 callgsubr
          hvcurveto
          hintmask 0000010010000000
          22 callgsubr
          12 vlineto
          hintmask 0000000000100000
          95 20 26 76 14 vvcurveto
          endchar
        </CharString>
        <CharString name="ccircumflex">
          -40 callsubr
          hintmask 00000000
          -39 433 rmoveto
          -80 callsubr
          endchar
        </CharString>
        <CharString name="cdotaccent">
          -18 callsubr
          71 90 hstemhm
          74 65 99 90 -29 107 callgsubr
          hintmask 11010101
          -49 callgsubr
          hintmask 11010010
          42 callgsubr
          hintmask 00101000
          -128 447 rmoveto
          70 callsubr
        </CharString>
        <CharString name="cedilla">
          -1 callsubr
        </CharString>
        <CharString name="cedilla.dup">
          -1 callsubr
        </CharString>
        <CharString name="cent">
          515 -5 58 329 58 hstemhm
          74 65 115 58 55 78 -54 65 hintmask 11010100
          456 109 rmoveto
          26 -25 0 -8 -23 -4 -8 -14 -5 vhcurveto
          -18 -45 -35 -12 -26 -3 rrcurveto
          329 vlineto
          21 -1 16 -1 7 -1 rrcurveto
          7 -2 1 -1 -5 vvcurveto
          -41 3 31 -1 6 hhcurveto
          hintmask 11111000
          22 19 15 27 63 -85 6 -48 hvcurveto
          49 vlineto
          36 callsubr
          -53 vlineto
          -135 -22 -45 -122 -76 vvcurveto
          -111 76 -92 104 -16 vhcurveto
          -55 30 callgsubr
          53 vlineto
          hintmask 00110100
          113 12 31 87 15 vvcurveto
          -202 -51 rmoveto
          -65 19 -50 62 77 vvcurveto
          45 22 93 93 23 vhcurveto
          endchar
        </CharString>
        <CharString name="cent.oldstyle">
          515 -64 58 0 58 -54 58 325 58 -57 58 hstemhm
          74 65 148 58 -47 58 -23 58 -24 78 -54 65 hintmask 0100000000100000
          456 109 rmoveto
          26 -25 0 -8 -23 -4 -8 -14 -5 vhcurveto
          -55 -22 -49 -6 -24 hhcurveto
          hintmask 0011000010000000
          -12 -12 1 3 -11 hvcurveto
          72 325 rlineto
          hintmask 0000000101000000
          23 -2 rlineto
          7 -2 1 -1 -5 vvcurveto
          -41 3 31 -1 6 hhcurveto
          22 19 15 27 hvcurveto
          hintmask 0001001000000000
          50 -54 14 -46 4 vhcurveto
          10 43 rlineto
          18 4 -14 18 -18 hhcurveto
          hintmask 1010110100000000
          -14 -12 -10 -13 -3 hvcurveto
          -12 -55 rlineto
          -160 -8 -52 -134 -82 vvcurveto
          -87 48 -76 71 -36 vhcurveto
          -15 -69 rlineto
          -18 -4 13 -17 19 hhcurveto
          14 11 10 13 3 hvcurveto
          14 62 rlineto
          hintmask 0100011000100000
          -3 12 14 -1 13 hhcurveto
          134 35 99 16 hvcurveto
          -183 271 rmoveto
          -66 -299 rlineto
          -41 29 -27 49 57 vvcurveto
          47 25 103 109 14 vhcurveto
          endchar
        </CharString>
        <CharString name="centigrade">
          515 -11 58 444 58 5 58 -46 58 hstemhm
          0 68 -68 121 -68 68 cntrmask 00001110
          hintmask 10011110
          484 436 rmoveto
          6 -1 7 6 vvcurveto
          135 vlineto
          21 -8 13 -20 -21 -8 -20 -17 -5 vhcurveto
          19 -24 -28 18 -32 hhcurveto
          -155 -31 -225 -94 -103 28 -156 103 -46 hvcurveto
          -7 16 16 -4 17 hhcurveto
          96 56 98 86 24 -16 5 -17 -16 -16 -5 -25 hvcurveto
          -8 vlineto
          -37 -5 -15 -80 -61 hhcurveto
          -55 -34 76 51 -15 hvcurveto
          -12 41 -5 43 43 vvcurveto
          81 13 94 53 60 vhcurveto
          16 14 17 14 23 hhcurveto
          51 20 -66 -45 8 hvcurveto
          -33 3 1 -20 33 hhcurveto
          26 6 16 18 hvcurveto
          -363 116 rmoveto
          hintmask 01101110
          33 -26 27 -42 vhcurveto
          -33 -7 -20 -24 -30 vvcurveto
          -33 26 -27 42 vhcurveto
          33 7 20 24 30 vvcurveto
          -56 2 rmoveto
          -4 -2 -2 -3 -3 hvcurveto
          4 2 2 3 3 hvcurveto
          endchar
        </CharString>
        <CharString name="circumflex">
          515 391 542 rmoveto
          -80 callsubr
          endchar
        </CharString>
        <CharString name="circumflex.cap">
          515 385 542 -104 callsubr
          endchar
        </CharString>
        <CharString name="circumflex.dup">
          515 391 542 rmoveto
          -80 callsubr
          endchar
        </CharString>
        <CharString name="colon">
          -34 callsubr
          113 205 52 callsubr
          374 rmoveto
          -22 callgsubr
          -318 vmoveto
          34 callgsubr
        </CharString>
        <CharString name="colonmonetary">
          515 565 58 hstem
          40 65 149 58 97 65 vstem
          474 169 rmoveto
          31 -21 0 -12 -14 -16 -5 -17 -2 vhcurveto
          -6 -91 -55 -28 -36 -9 rrcurveto
          511 vlineto
          44 -13 42 -43 11 -75 rrcurveto
          -22 3 9 -6 20 hhcurveto
          33 0 18 20 hvcurveto
          145 vlineto
          16 0 22 -28 -18 -5 -11 -7 -4 vhcurveto
          -3 -8 -8 -18 -3 -7 -30 26 -32 15 -31 6 rrcurveto
          50 vlineto
          36 callsubr
          -47 vlineto
          -119 -15 -95 -132 -169 vvcurveto
          -172 97 -130 117 -15 vhcurveto
          -47 30 callgsubr
          49 vlineto
          97 17 65 82 79 vvcurveto
          -220 -119 rmoveto
          -81 19 -68 102 135 vvcurveto
          135 69 101 80 20 vhcurveto
          endchar
        </CharString>
        <CharString name="comma">
          515 -118 -21 139 113 hstem
          276 59 vstem
          335 18 rmoveto
          53 -33 42 -44 -37 -20 -29 -27 -33 25 -24 31 6 7 1 2 6 vhcurveto
          -5 -31 -20 -38 -49 -17 rrcurveto
          -9 -2 -15 -5 -19 vvcurveto
          -13 15 -17 16 27 99 49 108 vhcurveto
          endchar
        </CharString>
        <CharString name="copyleft">
          53 callgsubr
          441 37 vstem
          -54 callsubr
          -83 1 rmoveto
          97 -58 75 -70 -23 -25 -8 -20 -22 vhcurveto
          -2 4 -4 10 -2 4 rrcurveto
          4 -2 -3 6 -9 hhcurveto
          -16 0 -12 -9 hvcurveto
          -79 vlineto
          -11 0 -9 18 11 5 3 12 2 vhcurveto
          50 7 32 23 30 hhcurveto
          49 47 -58 -82 -82 -46 -60 -51 -9 -55 4 68 -4 hvcurveto
          9 -1 -9 3 -8 hhcurveto
          -6 -12 0 -17 -48 44 -50 64 68 60 73 100 hvcurveto
          endchar
        </CharString>
        <CharString name="copyright">
          53 callgsubr
          281 37 123 37 vstem
          -54 callsubr
          -123 -74 rmoveto
          17 -11 0 -7 -7 -9 -3 -9 -1 vhcurveto
          -68 -5 -54 -4 -10 hhcurveto
          -50 -46 60 82 82 46 58 50 29 32 -23 -50 8 hvcurveto
          -12 1 5 -3 11 hhcurveto
          18 0 9 11 hvcurveto
          79 vlineto
          9 0 12 -15 -10 -3 -6 -4 -2 vhcurveto
          -1 -5 -5 -9 -1 -4 rrcurveto
          19 -23 -25 9 -22 hhcurveto
          -70 -58 -75 -97 -100 59 -73 69 63 44 50 48 hvcurveto
          endchar
        </CharString>
        <CharString name="currency">
          515 165 64 154 64 26 -21 hstem
          116 64 154 64 vstem
          413 150 rmoveto
          23 23 -22 22 -10 10 -27 27 rcurveline
          14 21 7 26 27 vvcurveto
          27 -7 26 -13 21 vhcurveto
          26 26 9 9 23 23 -23 23 rlinecurve
          -23 23 -22 -22 -10 -10 -26 -26 rcurveline
          13 -22 -25 8 -28 hhcurveto
          -27 -25 -8 -13 -22 hvcurveto
          -27 27 -9 9 -23 23 -22 -23 rlinecurve
          -24 -23 22 -22 10 -10 27 -27 rcurveline
          -13 -21 -8 -26 -27 vvcurveto
          -27 8 -26 13 -21 vhcurveto
          -27 -27 -9 -9 -23 -23 23 -23 rlinecurve
          23 -23 22 22 10 10 27 27 rcurveline
          -14 22 25 -7 27 hhcurveto
          27 26 7 14 21 hvcurveto
          27 -27 10 -9 22 -23 23 23 rlinecurve
          -79 156 rmoveto
          -43 -34 -34 -43 -42 -35 34 43 43 35 34 42 43 34 -34 -43 vhcurveto
          endchar
        </CharString>
        <CharString name="cwm">
          0 endchar
        </CharString>
        <CharString name="cwmascender">
          0 endchar
        </CharString>
        <CharString name="cwmcapital">
          0 endchar
        </CharString>
        <CharString name="d">
          -11 callgsubr
          endchar
        </CharString>
        <CharString name="dagger">
          515 -195 -21 613 67 241 -20 hstemhm
          190 77 -49 77 hintmask 01010000
          448 430 74 callgsubr
          20 1 28 13 65 rrcurveto
          hintmask 01101000
          5 37 7 37 37 vvcurveto
          8 0 33 -38 -39 0 -32 -9 -35 10 -58 5 -24 vhcurveto
          8 -46 3 -32 1 -29 61 callgsubr
          hintmask 00010000
          98 callsubr
          -2 -25 -3 -20 -6 -25 rrcurveto
          hintmask 10001000
          -16 -72 0 -8 -53 vvcurveto
          -151 12 -168 11 -95 vhcurveto
          -14 1 1 -6 13 hhcurveto
          14 0 5 13 2 hvcurveto
          7 50 4 53 2 51 rrcurveto
          4 63 6 103 96 vvcurveto
          54 0 7 -16 71 vhcurveto
          hintmask 01010000
          -6 23 -3 21 -3 27 74 callsubr
          endchar
        </CharString>
        <CharString name="daggerdbl">
          515 -184 -21 194 66 389 67 194 -20 hstemhm
          190 77 -49 77 -28 77 hintmask 00101000
          448 477 74 callgsubr
          30 8 34 3 14 rrcurveto
          hintmask 00110100
          7 33 8 40 28 vvcurveto
          7 0 32 -39 -12 -26 -3 -36 -20 4 -29 8 -35 vhcurveto
          9 -41 5 -28 1 -26 61 callgsubr
          hintmask 00001000
          98 callsubr
          -1 -30 -8 -34 -3 -14 rrcurveto
          hintmask 00000100
          -7 -33 -8 -40 -28 vvcurveto
          -35 25 -4 13 35 4 25 14 20 -4 29 -8 35 vhcurveto
          hintmask 01101000
          -9 41 -5 28 -2 26 74 callsubr
          -455 vmoveto
          17 -14 16 -24 -23 -20 -3 -8 -36 vhcurveto
          -30 -8 -8 -2 -26 -2 3 28 4 24 9 42 rrcurveto
          hintmask 11000100
          12 56 0 23 5 vvcurveto
          35 -25 4 -13 -35 -4 -25 -14 -29 9 -43 7 -34 vhcurveto
          3 -11 6 -31 2 -30 -26 2 -4 1 -46 11 rrcurveto
          9 -37 -20 0 -8 hhcurveto
          -29 -10 -20 -13 -15 11 -18 28 28 28 6 4 13 hvcurveto
          45 10 8 1 19 2 -2 -28 -4 -24 -9 -42 rrcurveto
          -12 -56 0 -23 -5 vvcurveto
          -35 25 -4 13 35 4 25 14 29 -9 43 -7 34 vhcurveto
          hintmask 00001000
          -3 11 -6 31 -3 30 rrcurveto
          hintmask 01000010
          27 -2 4 -1 46 -11 rrcurveto
          -9 38 21 0 6 hhcurveto
          27 12 18 15 hvcurveto
          endchar
        </CharString>
        <CharString name="dblbracketleft">
          515 -82 65 647 65 hstem
          143 65 95 65 vstem
          485 -50 rmoveto
          18 -7 15 -27 vhcurveto
          -83 647 67 hlineto
          5 6 -1 6 hhcurveto
          27 6 17 18 24 -15 7 -21 hvcurveto
          -269 hlineto
          -19 -18 -2 -32 hvcurveto
          -688 vlineto
          -6 -1 -7 -7 vvcurveto
          -26 14 -9 24 vhcurveto
          274 hlineto
          24 7 16 16 hvcurveto
          -182 33 rmoveto
          -95 647 95 hlineto
          endchar
        </CharString>
        <CharString name="dblbracketright">
          515 -82 65 647 65 hstem
          145 65 95 65 vstem
          370 -48 rmoveto
          707 vlineto
          18 -3 18 -28 vhcurveto
          -279 hlineto
          -24 -7 -16 -16 -17 7 -16 26 hvcurveto
          83 -647 -83 hlineto
          -26 -7 -16 -17 -16 7 -16 24 hvcurveto
          273 hlineto
          24 13 9 25 hvcurveto
          -65 31 rmoveto
          -95 647 95 hlineto
          endchar
        </CharString>
        <CharString name="dblgrave.ts1">
          515 498 25 callgsubr
          hstem
          230 514 rmoveto
          35 callgsubr
          171 hmoveto
          35 callgsubr
          endchar
        </CharString>
        <CharString name="dblverticalbar">
          37 callgsubr
          194 -38 rmoveto
          18 callgsubr
          192 hmoveto
          18 callgsubr
          endchar
        </CharString>
        <CharString name="dcaron">
          -37 callgsubr
          321 58 6 -21 104 85 -58 58 hstemhm
          37 65 251 65 hintmask 01100111
          -17 callgsubr
          hintmask 10000001
          -2 callsubr
          hintmask 10100111
          8 callsubr
          221 272 rmoveto
          40 -25 31 -33 -27 -15 -22 -20 vhcurveto
          hintmask 00011000
          -25 18 -18 24 4 5 1 2 5 vhcurveto
          -4 -24 -15 -28 -37 -13 rrcurveto
          -6 -1 -12 -4 -14 vvcurveto
          -10 12 -13 12 20 74 37 81 vhcurveto
          endchar
        </CharString>
        <CharString name="dcroat">
          -37 callgsubr
          321 58 26 58 32 58 hstemhm
          37 65 251 65 hintmask 01111110
          -27 callgsubr
          405 49 hlineto
          14 callgsubr
          -49 49 14 callsubr
          -66 -105 callgsubr
          41 -32 -147 9 callsubr
          147 -76 hlineto
          16 -16 -41 34 -61 hhcurveto
          -106 -92 -96 -126 hvcurveto
          hintmask 10000010
          -2 callsubr
          hintmask 10100110
          8 callsubr
          endchar
        </CharString>
        <CharString name="ddotbelow">
          -21 callgsubr
          104 58 -52 58 321 58 116 58 hstemhm
          37 65 110 90 51 65 hintmask 00111101
          -17 callgsubr
          hintmask 01000001
          -123 86 -98 103 65 43 39 22 19 vhcurveto
          hintmask 00100000
          -42 0 -13 40 vhcurveto
          66 -84 callsubr
          -146 161 rmoveto
          hintmask 01010101
          8 callsubr
          hintmask 10000010
          -51 -423 rmoveto
          70 callsubr
        </CharString>
        <CharString name="degree">
          515 325 64 158 64 hstem
          114 64 158 64 vstem
          400 468 rmoveto
          79 -64 64 -79 -79 -64 -64 -79 -79 64 -64 79 79 64 64 79 vhcurveto
          -64 hmoveto
          -43 -35 -36 -44 -43 -36 36 43 44 36 35 43 44 35 -35 -44 vhcurveto
          endchar
        </CharString>
        <CharString name="diameter">
          515 97 64 290 64 hstem
          48 64 290 64 vstem
          477 494 rmoveto
          18 -14 14 -18 -9 -8 -4 -5 -6 vhcurveto
          -42 -42 rlineto
          25 -34 -43 15 -46 hhcurveto
          -115 -94 -94 -115 -46 15 -43 26 -35 hvcurveto
          -43 -42 rlineto
          -5 -6 -4 -8 -9 vvcurveto
          -18 14 -14 18 9 8 4 5 6 vhcurveto
          42 43 rlineto
          -25 35 42 -15 46 hhcurveto
          115 94 94 115 46 -15 43 -25 34 hvcurveto
          42 42 rlineto
          5 6 4 8 9 vvcurveto
          -75 -188 rmoveto
          -80 -65 -65 -80 -28 -27 8 14 -22 vhcurveto
          200 200 rlineto
          14 -22 8 -27 -28 vvcurveto
          -67 123 rmoveto
          -200 -201 rlineto
          -15 23 -8 26 29 vvcurveto
          80 65 65 80 29 26 -8 -14 23 vhcurveto
          endchar
        </CharString>
        <CharString name="died">
          515 4 -21 313 61 -60 61 191 -20 hstemhm
          224 65 hintmask 00100000
          483 326 rmoveto
          21 -15 11 -20 vhcurveto
          -12 hlineto
          hintmask 01011000
          -16 -15 0 -1 -16 hvcurveto
          -100 160 hlineto
          24 -14 8 -19 -28 -4 -18 -18 vhcurveto
          -156 -100 vlineto
          hintmask 00100000
          1 -16 -15 0 -16 hhcurveto
          -12 hlineto
          -23 -11 -12 -20 hvcurveto
          hintmask 01000000
          -25 19 -5 17 vhcurveto
          16 hlineto
          hintmask 10101000
          141 1 rlineto
          -284 vlineto
          -21 12 -9 23 28 2 22 18 vhcurveto
          274 vlineto
          hintmask 01000000
          141 -1 rlineto
          16 hlineto
          17 20 6 24 hvcurveto
          endchar
        </CharString>
        <CharString name="dieresis">
          112 callsubr
          81 hstem
          143 81 68 81 vstem
          -31 callsubr
          endchar
        </CharString>
        <CharString name="dieresis.cap">
          515 130 81 94 81 vstem
          -13 callsubr
          endchar
        </CharString>
        <CharString name="dieresis.dup">
          112 callsubr
          81 hstem
          143 81 68 81 vstem
          -31 callsubr
          endchar
        </CharString>
        <CharString name="dieresis.ts1">
          515 523 90 hstem
          202 567 rmoveto
          22 -17 24 -26 vhcurveto
          -3 -3 -1 -3 hhcurveto
          -22 -16 -24 -19 -24 19 -22 25 24 22 19 25 hvcurveto
          199 hmoveto
          23 -19 23 -24 -3 -5 -1 0 vhcurveto
          -21 -17 -22 -21 -27 18 -19 32 hvcurveto
          23 4 16 19 21 vvcurveto
          endchar
        </CharString>
        <CharString name="discount">
          515 22 -21 693 99 callsubr
          456 658 rmoveto
          4 vlineto
          17 -15 16 -17 vhcurveto
          hintmask 11000000
          -6 -1 -29 -5 -32 -83 -24 -45 rlinecurve
          -257 -483 rlineto
          -7 -14 -12 -15 -15 vvcurveto
          -18 14 -15 18 vhcurveto
          2 hlineto
          21 1 8 19 8 16 279 525 rcurveline
          32 60 6 11 9 12 2 13 rlinecurve
          -239 -41 50 callgsubr
          180 -539 50 callgsubr
          endchar
        </CharString>
        <CharString name="divide">
          515 60 113 101 65 101 113 hstem
          200 113 cntrmask 11100000
          477 306 15 callsubr
          -164 190 rmoveto
          -22 callgsubr
          -380 vmoveto
          34 callgsubr
        </CharString>
        <CharString name="divorced">
          515 -44 -21 155 63 307 63 156 -20 hstem
          -202 62 364 65 364 62 cntrmask 00001110
          715 307 rmoveto
          100 -68 116 -112 vhcurveto
          -5 -4 -1 -5 hhcurveto
          -111 -14 -58 -103 -99 vvcurveto
          -101 69 -115 111 117 66 115 102 vhcurveto
          -554 hmoveto
          103 -68 112 -117 vhcurveto
          -10 hlineto
          -111 -15 -57 -102 -99 vvcurveto
          -101 68 -115 111 20 22 5 8 19 vhcurveto
          82 33 41 86 85 vvcurveto
          128 -336 rmoveto
          673 vlineto
          25 -13 10 -19 -4 -4 -1 -1 -4 vhcurveto
          -18 -3 -23 -13 hvcurveto
          -671 vlineto
          -25 11 -10 20 32 2 18 18 vhcurveto
          364 336 rmoveto
          -62 -31 -74 -71 -16 vhcurveto
          -1 -6 -5 -1 -6 hhcurveto
          -43 -37 33 37 -19 hvcurveto
          -11 23 -5 24 -3 25 rrcurveto
          5 -1 4 5 vvcurveto
          68 47 83 72 vhcurveto
          8 hlineto
          68 -16 43 -60 -77 vvcurveto
          -556 3 rmoveto
          -6 0 -5 -1 -5 vhcurveto
          -63 -5 -39 -78 -73 hhcurveto
          -75 -44 84 70 70 38 68 73 15 hvcurveto
          8 hlineto
          71 47 -81 -69 hvcurveto
          endchar
        </CharString>
        <CharString name="dlinebelow">
          -11 callgsubr
          hintmask 00000000
          90 -423 -90 callgsubr
        </CharString>
        <CharString name="dollar">
          515 -83 79 -1 60 223 79 200 60 -2 79 hstemhm
          57 60 111 58 111 60 cntrmask 00000111
          hintmask 00010111
          457 170 rmoveto
          58 -36 91 -135 26 vhcurveto
          212 vlineto
          53 -6 38 -25 12 -44 rrcurveto
          -12 -9 -1 -15 -5 vvcurveto
          -27 22 -14 18 5 36 2 43 34 -13 109 -158 16 vhcurveto
          37 vlineto
          hintmask 01001111
          15 0 26 -29 -29 0 -27 -14 vhcurveto
          -38 vlineto
          -108 -13 -63 -75 -74 vvcurveto
          -17 1 -113 170 -32 vhcurveto
          -237 vlineto
          -65 10 -28 34 -10 43 rrcurveto
          10 8 3 13 8 vvcurveto
          27 -22 14 -18 -3 -38 0 -46 -68 42 -89 129 -13 vhcurveto
          -37 vlineto
          hintmask 10110111
          -14 0 -27 29 29 0 26 15 vhcurveto
          38 vlineto
          108 15 63 79 80 vvcurveto
          -229 187 rmoveto
          -65 12 -46 39 49 vvcurveto
          48 48 42 63 10 vhcurveto
          169 -390 rmoveto
          hintmask 01100111
          -50 -41 -50 -70 -12 vhcurveto
          223 vlineto
          62 -11 49 -45 -55 vvcurveto
          endchar
        </CharString>
        <CharString name="dollar.oldstyle">
          514 -61 -21 38 58 -57 57 -18 58 -38 58 180 57 249 57 -12 57 33 -20 hstemhm
          47 60 -60 70 11 70 -33 59 -26 60 0 60 -29 59 48 70 -60 60 hintmask 000000000000000101000000
          466 159 rmoveto
          10 vlineto
          65 -43 54 -56 30 vhcurveto
          -19 8 rlineto
          215 vlineto
          hintmask 000000010000000110000000
          21 -10 23 -22 4 -22 rrcurveto
          -10 -11 -11 -13 vvcurveto
          -19 16 -21 23 31 11 25 23 67 -53 66 -65 11 vhcurveto
          57 vlineto
          hintmask 000000001000001000000000
          20 -10 13 -20 vhcurveto
          hintmask 000000100000100100000000
          -23 -6 -19 -20 hvcurveto
          -39 -65 39 vlineto
          hintmask 000000001000010000000000
          18 -4 21 -22 vhcurveto
          hintmask 000011000100100000000000
          -28 -5 -19 -19 hvcurveto
          -54 vlineto
          0 -25 -12 -13 -7 vhcurveto
          -43 -26 -32 -41 -5 -53 rrcurveto
          -7 vlineto
          -64 55 -69 63 -13 vhcurveto
          -237 vlineto
          hintmask 000010000011000000000000
          -20 14 -28 26 23 vvcurveto
          1 vlineto
          9 11 9 14 vvcurveto
          22 -16 20 -24 -25 -16 -18 -29 -63 39 -62 60 -24 vhcurveto
          hintmask 101000000000100000000000
          9 -4 10 -2 0 vvcurveto
          -55 vlineto
          -22 9 -15 20 23 7 18 21 vhcurveto
          hintmask 000100000000100100000000
          39 65 vlineto
          hintmask 001000000000000100000000
          -39 vlineto
          hintmask 100000000000001000000000
          -20 6 -19 23 vhcurveto
          hintmask 010000000000100101000000
          21 10 15 23 -1 hvcurveto
          58 vlineto
          1 -2 10 4 9 5 53 29 40 49 5 60 rrcurveto
          -177 185 rmoveto
          -65 19 rlineto
          195 vlineto
          hintmask 000000100000001000000000
          0 21 2 13 vhcurveto
          hintmask 000001000100100101000000
          12 19 -2 0 hvcurveto
          -124 -177 rmoveto
          -27 16 -31 24 37 vvcurveto
          34 27 32 31 14 vhcurveto
          241 -371 rmoveto
          -38 -25 -31 -33 -21 vhcurveto
          177 vlineto
          30 -17 28 -32 -38 vvcurveto
          -117 -110 rmoveto
          hintmask 000100000000101000000000
          0 -19 -3 -12 -13 -21 1 0 vhcurveto
          239 vlineto
          hintmask 000000000000000100000000
          65 -17 rlineto
          endchar
        </CharString>
        <CharString name="dong">
          515 -58 58 0 58 -33 58 415 58 hstemhm
          hintmask 00110000
          474 58 rmoveto
          28 -25 0 -13 vhcurveto
          -39 384 47 hlineto
          15 12 13 15 15 -12 13 -15 hvcurveto
          -47 46 hlineto
          30 -6 9 -32 vhcurveto
          -63 hlineto
          -13 -25 0 -28 -27 25 0 13 hvcurveto
          39 -30 -139 hlineto
          -16 -12 -13 -15 -15 12 -13 16 hvcurveto
          139 -72 hlineto
          15 -15 -39 33 -58 hhcurveto
          -100 -88 -91 -120 -117 82 -93 98 61 41 37 21 18 hvcurveto
          -40 0 -12 38 vhcurveto
          63 hlineto
          hintmask 01000000
          13 25 0 27 hvcurveto
          -87 vmoveto
          16 -13 13 -16 vhcurveto
          -381 hlineto
          -16 -13 -13 -16 hvcurveto
          hintmask 10000000
          -16 13 -13 16 vhcurveto
          381 hlineto
          16 13 13 16 hvcurveto
          -139 240 rmoveto
          -53 -43 -78 -72 -68 -55 69 86 91 64 65 68 62 44 -56 -50 vhcurveto
          endchar
        </CharString>
        <CharString name="dotaccent">
          515 511 95 callsubr
          556 rmoveto
          70 callsubr
        </CharString>
        <CharString name="dotaccent.alt">
          515 476 95 callsubr
          521 rmoveto
          70 callsubr
        </CharString>
        <CharString name="dotaccent.cap">
          515 212 90 vstem
          302 529 rmoveto
          70 callsubr
        </CharString>
        <CharString name="dotlessi">
          -26 callgsubr
          hstem
          237 65 vstem
          -93 callsubr
          endchar
        </CharString>
        <CharString name="dotlessj">
          43 callgsubr
          hstem
          47 80 168 65 vstem
          -63 callgsubr
          endchar
        </CharString>
        <CharString name="e">
          -26 callsubr
          48 callgsubr
          hintmask 11011100
          -100 callgsubr
          hintmask 00111100
          -51 callsubr
          endchar
        </CharString>
        <CharString name="eacute">
          -26 callsubr
          69 -21 135 -20 48 callgsubr
          hintmask 11010011
          -100 callgsubr
          hintmask 00110011
          -51 callsubr
          hintmask 00001100
          -28 343 -106 callgsubr
        </CharString>
        <CharString name="ebreve">
          -26 callsubr
          60 60 52 -20 48 callgsubr
          hintmask 11010011
          -100 callgsubr
          hintmask 00110011
          -51 callsubr
          hintmask 00001100
          39 334 -96 callgsubr
        </CharString>
        <CharString name="ecaron">
          -26 callsubr
          48 callgsubr
          hintmask 11011100
          -100 callgsubr
          hintmask 00111100
          -51 callsubr
          hintmask 00000000
          1 321 rmoveto
          -65 callgsubr
        </CharString>
        <CharString name="ecircumflex">
          -26 callsubr
          48 callgsubr
          hintmask 11011100
          -100 callgsubr
          hintmask 00111100
          -51 callsubr
          hintmask 00000000
          1 295 rmoveto
          -80 callsubr
          endchar
        </CharString>
        <CharString name="ecircumflexacute">
          -26 callsubr
          305 -20 48 callgsubr
          hintmask 11010110
          -100 callgsubr
          hintmask 00110110
          -51 callsubr
          hintmask 00001000
          -5 299 -77 callsubr
        </CharString>
        <CharString name="ecircumflexdotbelow">
          -21 callgsubr
          104 -8 callgsubr
          hstemhm
          56 68 88 90 88 66 hintmask 01101101
          -100 callgsubr
          hintmask 00011101
          -51 callsubr
          1 295 rmoveto
          -80 callsubr
          hintmask 10000010
          -89 -697 rmoveto
          70 callsubr
        </CharString>
        <CharString name="ecircumflexgrave">
          -26 callsubr
          48 callgsubr
          hintmask 11011100
          -100 callgsubr
          hintmask 00111100
          -51 callsubr
          hintmask 00000000
          -5 299 -76 callgsubr
        </CharString>
        <CharString name="ecircumflexhookabove">
          -26 callsubr
          382 -20 48 callgsubr
          hintmask 11010110
          -100 callgsubr
          hintmask 00110110
          -51 callsubr
          hintmask 00001010
          -5 299 -104 callsubr
          65 196 -107 callgsubr
        </CharString>
        <CharString name="ecircumflextilde">
          -26 callsubr
          190 61 -5 61 48 callgsubr
          hintmask 11010011
          -100 callgsubr
          hintmask 00110011
          -51 callsubr
          hintmask 00000100
          -5 299 -15 callsubr
        </CharString>
        <CharString name="edblgrave">
          -26 callsubr
          48 callgsubr
          hintmask 11011100
          -100 callgsubr
          hintmask 00111100
          -51 callsubr
          hintmask 00000000
          30 252 -100 callsubr
        </CharString>
        <CharString name="edieresis">
          -26 callsubr
          75 81 hstemhm
          56 68 19 81 68 81 17 66 hintmask 1101010010000000
          -100 callgsubr
          hintmask 0011010010000000
          -51 callsubr
          hintmask 0000101100000000
          -166 308 -47 callgsubr
        </CharString>
        <CharString name="edotaccent">
          -26 callsubr
          71 90 hstemhm
          56 68 88 90 88 66 hintmask 11010101
          -100 callgsubr
          hintmask 00110101
          -51 callsubr
          hintmask 00001010
          -88 309 rmoveto
          70 callsubr
        </CharString>
        <CharString name="edotbelow">
          -21 callgsubr
          104 -8 callgsubr
          hstemhm
          56 68 88 90 88 66 hintmask 01101101
          -100 callgsubr
          hintmask 00011101
          -51 callsubr
          hintmask 10000010
          -88 -402 rmoveto
          70 callsubr
        </CharString>
        <CharString name="egrave">
          -26 callsubr
          69 -21 135 -20 48 callgsubr
          hintmask 11010011
          -100 callgsubr
          hintmask 00110011
          -51 callsubr
          hintmask 00001100
          -27 277 -94 callsubr
        </CharString>
        <CharString name="ehookabove">
          -26 callsubr
          232 -20 48 callgsubr
          hintmask 11010110
          -100 callgsubr
          hintmask 00110110
          -51 callsubr
          hintmask 00011000
          -36 345 -107 callgsubr
        </CharString>
        <CharString name="eight">
          -14 callsubr
        </CharString>
        <CharString name="eight.taboldstyle">
          -14 callsubr
        </CharString>
        <CharString name="ellipsis">
          -34 callsubr
          113 hstem
          29 113 59 113 58 113 vstem
          142 56 rmoveto
          -22 callgsubr
          172 hmoveto
          -22 callgsubr
          171 hmoveto
          34 callgsubr
        </CharString>
        <CharString name="emacron">
          -26 callsubr
          86 59 48 callgsubr
          hintmask 11010110
          -100 callgsubr
          hintmask 00110110
          -51 callsubr
          hintmask 00001000
          53 308 -90 callgsubr
        </CharString>
        <CharString name="emdash">
          -49 callsubr
        </CharString>
        <CharString name="emdash.alt">
          29 callgsubr
        </CharString>
        <CharString name="endash">
          -49 callsubr
        </CharString>
        <CharString name="eng">
          515 -202 62 140 58 315 58 -52 58 hstemhm
          128 60 callsubr
          hintmask 00011100
          450 58 rmoveto
          235 vlineto
          98 -46 46 -82 -68 -44 -38 -19 -17 vhcurveto
          hintmask 01101000
          37 0 14 -40 vhcurveto
          -66 -105 callgsubr
          41 -315 -67 callgsubr
          181 hlineto
          hintmask 11010100
          97 68 43 54 58 12 -33 -57 vhcurveto
          -231 vlineto
          -103 0 -125 -70 -18 -14 -15 -17 -18 14 -14 18 59 34 38 56 19 vhcurveto
          19 56 4 73 69 vvcurveto
          endchar
        </CharString>
        <CharString name="eogonek">
          48 callsubr
          286 55 0 55 135 58 hstemhm
          197 59 hintmask 11011000
          456 109 rmoveto
          6 -2 22 -31 -19 -6 -7 -15 -6 vhcurveto
          -58 -25 -65 -5 -19 hhcurveto
          -83 -66 63 77 -11 hvcurveto
          293 hlineto
          21 19 0 37 117 -66 94 -125 -116 -93 -100 -122 -117 88 -93 111 -13 hvcurveto
          -39 -25 -19 -31 -47 31 callsubr
          36 39 53 31 hvcurveto
          80 23 31 62 21 vvcurveto
          -66 138 rmoveto
          hintmask 00110000
          -51 callsubr
          endchar
        </CharString>
        <CharString name="eogonekacute">
          48 callsubr
          286 55 0 55 135 58 69 23 callgsubr
          197 59 hintmask 11010010
          456 109 rmoveto
          6 -2 22 -31 -19 -6 -7 -15 -6 vhcurveto
          -58 -25 -65 -5 -19 hhcurveto
          -83 -66 63 77 -11 hvcurveto
          293 hlineto
          21 19 0 37 117 -66 94 -125 -116 -93 -100 -122 -117 88 -93 111 -13 hvcurveto
          -39 -25 -19 -31 -47 31 callsubr
          36 39 53 31 hvcurveto
          80 23 31 62 21 vvcurveto
          -66 138 rmoveto
          hintmask 00110000
          -51 callsubr
          hintmask 00001100
          -28 343 -106 callgsubr
        </CharString>
        <CharString name="equal">
          515 197 65 87 65 hstem
          37 440 vstem
          477 381 15 callsubr
          -151 vmoveto
          32 -31 0 -12 vhcurveto
          -354 hlineto
          -13 -30 0 -32 -33 33 0 15 hvcurveto
          344 hlineto
          15 33 0 33 hvcurveto
          endchar
        </CharString>
        <CharString name="ereversed">
          -26 callsubr
          hstemhm
          56 66 266 68 hintmask 11011100
          456 218 rmoveto
          122 -93 100 -116 -125 -66 -94 -117 -37 19 0 21 vhcurveto
          293 hlineto
          -77 -11 -66 -63 -83 hhcurveto
          -19 -65 5 58 -25 hvcurveto
          15 -6 -6 7 -19 hhcurveto
          -31 -2 -22 -6 -26 47 -89 129 123 101 98 126 hvcurveto
          -68 29 rmoveto
          hintmask 00111100
          -266 hlineto
          50 4 21 85 100 hhcurveto
          63 65 -50 -85 13 hvcurveto
          endchar
        </CharString>
        <CharString name="estimated">
          515 -5 58 0 58 181 55 216 59 hstemhm
          30 67 310 66 hintmask 10011100
          473 327 rmoveto
          7 vlineto
          74 -14 85 -50 59 vhcurveto
          44 -36 -55 26 -56 hhcurveto
          -162 -70 -193 -119 -140 78 -175 166 74 87 24 74 33 hvcurveto
          hintmask 01111100
          3 6 1 6 6 vvcurveto
          21 -17 5 -16 -30 3 -24 -18 -18 vhcurveto
          -31 -29 -42 -11 -41 hhcurveto
          -114 -60 127 86 -10 hvcurveto
          -1 9 0 8 -2 9 rrcurveto
          340 hlineto
          24 14 8 27 hvcurveto
          -66 20 rmoveto
          -310 hlineto
          91 8 55 125 102 hhcurveto
          105 40 -122 -94 hvcurveto
          endchar
        </CharString>
        <CharString name="eth">
          -34 callgsubr
          329 58 174 -20 hstem
          58 65 267 65 vstem
          455 228 rmoveto
          123 -59 112 -95 71 vhcurveto
          57 22 rlineto
          13 5 10 11 14 vvcurveto
          15 -13 12 -17 -5 -4 -1 -2 -4 vhcurveto
          -99 -37 -21 10 -21 8 -23 7 rlinecurve
          7 -24 -24 6 -25 hhcurveto
          -17 -19 -17 -15 -24 23 -1 8 -1 hvcurveto
          25 -2 19 -5 15 -5 -28 -10 rcurveline
          -13 -5 -9 -12 -13 vvcurveto
          -15 13 -12 17 4 5 1 2 4 vhcurveto
          83 31 12 -8 13 -9 12 -9 rlinecurve
          21 -17 18 -19 15 -19 rrcurveto
          8 -21 -22 4 -22 hhcurveto
          -109 -90 -99 -125 -125 92 -96 106 81 118 64 170 hvcurveto
          -65 -9 rmoveto
          -85 -57 -82 -76 -73 -61 76 95 93 65 65 68 79 55 -81 -81 vhcurveto
          endchar
        </CharString>
        <CharString name="etilde">
          -26 callsubr
          57 61 -5 61 48 callgsubr
          hintmask 11010011
          -100 callgsubr
          hintmask 00110011
          -51 callsubr
          hintmask 00000100
          38 338 -3 callsubr
        </CharString>
        <CharString name="eturned">
          -7 callgsubr
        </CharString>
        <CharString name="exclam">
          -34 callsubr
          90 105 -21 449 -20 73 callgsubr
          570 rmoveto
          50 -36 3 -9 -10 -35 -4 -49 vhcurveto
          8 -331 rlineto
          -56 1 1 -9 35 hhcurveto
          33 2 13 20 1 hvcurveto
          4 177 rlineto
          5 -339 rmoveto
          70 callsubr
        </CharString>
        <CharString name="exclamdown">
          515 -213 -21 449 -20 104 95 callsubr
          344 -102 callsubr
          -525 vmoveto
          -8 331 rlineto
          56 -1 -1 9 -35 hhcurveto
          -33 -2 -13 -20 -1 hvcurveto
          -4 -177 -5 -186 rlineto
          -50 36 -3 9 10 35 4 49 vhcurveto
          endchar
        </CharString>
        <CharString name="f">
          -24 callgsubr
          315 121 -77 callgsubr
          -121 50 hlineto
          78 70 0 32 vhcurveto
          0 8 -39 33 16 23 12 28 vhcurveto
          endchar
        </CharString>
        <CharString name="five">
          -15 callgsubr
          286 58 163 58 hstem
          88 65 245 65 vstem
          463 190 -6 callsubr
        </CharString>
        <CharString name="five.taboldstyle">
          515 -195 58 286 58 163 58 hstem
          88 65 245 65 vstem
          463 7 -6 callsubr
        </CharString>
        <CharString name="florin">
          -24 callgsubr
          315 121 -77 callgsubr
          -121 50 hlineto
          78 70 0 32 vhcurveto
          0 8 -39 33 16 23 12 28 vhcurveto
          endchar
        </CharString>
        <CharString name="four">
          -59 callsubr
          110 58 399 -20 hstem
          314 56 vstem
          485 197 -66 callsubr
          vhcurveto
          -75 358 82 callsubr
          -365 87 callsubr
          -110 -60 -105 callgsubr
          176 -77 callgsubr
          -60 110 75 -84 callsubr
          -171 29 rmoveto
          -218 hlineto
          218 350 rlineto
          endchar
        </CharString>
        <CharString name="four.taboldstyle">
          515 -202 58 144 58 385 -20 hstem
          314 56 vstem
          485 -70 callsubr
          -75 344 82 callsubr
          -351 87 callsubr
          -144 -60 -105 callgsubr
          176 -77 callgsubr
          -60 144 75 -84 callsubr
          -171 29 rmoveto
          -218 hlineto
          218 336 rlineto
          endchar
        </CharString>
        <CharString name="fraction">
          515 440 33 callsubr
        </CharString>
        <CharString name="fraction.alt">
          0 182 33 callsubr
        </CharString>
        <CharString name="g">
          -70 callgsubr
          endchar
        </CharString>
        <CharString name="gacute">
          3 callgsubr
          72 23 callgsubr
          29 57 -18 65 0 57 134 65 -27 65 1 57 hintmask 0001000101000000
          500 391 -82 callsubr
          hintmask 0000110000000000
          -102 673 -106 callgsubr
        </CharString>
        <CharString name="gbreve">
          3 callgsubr
          63 60 52 -20 hstemhm
          29 57 -18 65 0 57 134 65 -27 65 1 57 hintmask 0001000101000000
          500 391 -82 callsubr
          hintmask 0000110000000000
          -35 664 -96 callgsubr
        </CharString>
        <CharString name="gcaron">
          -70 callgsubr
          hintmask 0000000100000000
          -73 651 rmoveto
          -65 callgsubr
        </CharString>
        <CharString name="gcedilla">
          3 callgsubr
          37 85 104 -20 hstemhm
          29 57 -18 65 0 57 134 65 -27 65 1 57 hintmask 0001110101000000
          280 640 rmoveto
          10 -12 13 -12 -20 -74 -37 -81 -40 25 -31 33 27 15 22 20 25 -18 18 -24 -4 -5 -1 -2 -5 vhcurveto
          4 24 15 28 37 13 rrcurveto
          6 1 12 4 14 vvcurveto
          220 -249 -82 callsubr
          endchar
        </CharString>
        <CharString name="gcircumflex">
          -70 callgsubr
          hintmask 0000000100000000
          -73 625 rmoveto
          -80 callsubr
          endchar
        </CharString>
        <CharString name="gcommaaccent">
          3 callgsubr
          37 85 104 -20 hstemhm
          29 57 -18 65 0 57 134 65 -27 65 1 57 hintmask 0001110101000000
          280 640 rmoveto
          10 -12 13 -12 -20 -74 -37 -81 -40 25 -31 33 27 15 22 20 25 -18 18 -24 -4 -5 -1 -2 -5 vhcurveto
          4 24 15 28 37 13 rrcurveto
          6 1 12 4 14 vvcurveto
          220 -249 -82 callsubr
          endchar
        </CharString>
        <CharString name="gdotaccent">
          3 callgsubr
          74 90 hstemhm
          29 57 -18 65 0 57 -14 90 58 65 -27 65 1 57 hintmask 0001001001000000
          -14 callgsubr
          hintmask 1110010101010000
          -55 -30 -20 -54 -39 vvcurveto
          -83 101 -63 127 127 101 62 84 144 -177 0 -33 vhcurveto
          -85 hlineto
          -12 -46 0 54 19 3 4 4 8 hvcurveto
          -14 20 33 -13 36 hhcurveto
          91 70 73 86 hvcurveto
          hintmask 0011001000100000
          25 -6 31 -21 33 vhcurveto
          26 14 24 3 15 1 rrcurveto
          6 -31 30 -1 0 vvcurveto
          12 25 8 30 hvcurveto
          -176 -113 rmoveto
          -57 -43 -46 -53 -50 -45 44 59 59 46 44 49 vhcurveto
          hintmask 1100010001010000
          53 43 -46 -57 hvcurveto
          104 -361 rmoveto
          -46 -73 -44 -98 -98 -73 44 46 15 5 35 37 23 vhcurveto
          15 23 10 0 69 hhcurveto
          88 110 0 -88 hvcurveto
          hintmask 0000100010000000
          -162 639 rmoveto
          70 callsubr
        </CharString>
        <CharString name="germandbls">
          -33 callsubr
        </CharString>
        <CharString name="germandbls.dup">
          -33 callsubr
        </CharString>
        <CharString name="gnaborretni">
          515 -258 90 383 -20 104 90 hstem
          61 65 0 81 0 65 20 callsubr
          -21 -28 -47 -10 -37 -3 -4 242 rcurveline
          -1 26 rlineto
          7 27 0 23 15 52 callgsubr
          -24 8 -87 137 -13 vhcurveto
          -32 vlineto
          -50 29 -3 7 8 28 4 49 vhcurveto
          -1 31 rlineto
          125 8 51 54 61 vvcurveto
          -242 99 rmoveto
          -1 -67 -3 -96 rlineto
          -35 5 -46 14 47 vvcurveto
          30 20 14 9 6 vhcurveto
          22 16 19 15 15 16 rrcurveto
          endchar
        </CharString>
        <CharString name="grave">
          515 509 25 callgsubr
          hstem
          363 524 -94 callsubr
        </CharString>
        <CharString name="grave.cap">
          112 callsubr
          25 callgsubr
          hstem
          363 530 -94 callsubr
        </CharString>
        <CharString name="grave.ts1">
          515 497 -21 136 -20 hstem
          322 513 rmoveto
          25 -30 7 -17 8 vhcurveto
          -85 42 rlineto
          6 -13 -15 11 -15 hhcurveto
          0 -5 0 -2 -1 vhcurveto
          -16 -3 -9 -14 -15 vvcurveto
          -29 35 -8 21 -11 vhcurveto
          27 -12 26 -14 27 -13 rrcurveto
          -5 12 14 -11 14 hhcurveto
          18 13 20 17 hvcurveto
          endchar
        </CharString>
        <CharString name="greater">
          87 callgsubr
          305 rmoveto
          18 -11 7 -8 5 vhcurveto
          -328 209 rlineto
          4 -7 -8 6 -9 hhcurveto
          -15 -18 -12 -21 -18 11 -6 10 -7 hvcurveto
          290 -184 -290 -185 rlineto
          -10 -7 -11 -6 -18 vvcurveto
          -21 18 -12 15 vhcurveto
          2 1 8 1 2 0 11 8 rlinecurve
          329 208 rlineto
          12 7 7 11 12 vvcurveto
          endchar
        </CharString>
        <CharString name="guarani">
          -15 callgsubr
          166 58 279 58 -42 58 hstemhm
          37 65 106 58 109 65 hintmask 11010110
          486 241 -43 callsubr
          41 hlineto
          -5 -60 -26 -101 -77 -5 rrcurveto
          519 vlineto
          46 -3 50 -38 13 -97 rrcurveto
          -25 3 19 0 10 hhcurveto
          33 0 18 20 hvcurveto
          145 vlineto
          16 0 22 -28 vhcurveto
          hintmask 00100000
          -17 -6 -11 -5 -3 hvcurveto
          -13 -32 rlineto
          hintmask 11011110
          -31 28 -36 17 -40 3 rrcurveto
          46 vlineto
          36 callsubr
          -54 vlineto
          -96 -31 -75 -121 -157 vvcurveto
          -159 75 -121 96 -30 vhcurveto
          -54 30 callgsubr
          46 vlineto
          39 3 39 18 31 34 rrcurveto
          -26 0 -19 33 32 0 21 19 vhcurveto
          174 vlineto
          20 107 callsubr
          -278 -180 rmoveto
          -59 35 -47 92 117 vvcurveto
          hintmask 00100100
          119 48 90 58 35 vhcurveto
          endchar
        </CharString>
        <CharString name="guillemotleft">
          515 478 5 callgsubr
          -162 hmoveto
          17 -8 7 -7 6 vhcurveto
          -188 163 188 163 rlineto
          7 6 8 7 17 vvcurveto
          21 -11 11 -11 -5 -3 -1 -8 -10 vhcurveto
          -215 -186 rlineto
          -6 -6 -8 -7 -17 vvcurveto
          -12 5 -10 6 -6 vhcurveto
          218 -188 rlineto
          -8 10 3 -1 5 hhcurveto
          11 11 11 21 hvcurveto
          endchar
        </CharString>
        <CharString name="guillemotright">
          515 477 5 callsubr
          -162 hmoveto
          17 -8 7 -6 6 vhcurveto
          -215 186 rlineto
          8 -10 -2 1 -6 hhcurveto
          -11 -11 -11 -21 -17 8 -7 7 -6 hvcurveto
          188 -163 -188 -163 rlineto
          -7 -6 -8 -7 -17 vvcurveto
          -21 11 -11 11 6 2 1 8 10 vhcurveto
          218 188 rlineto
          6 6 5 10 12 vvcurveto
          endchar
        </CharString>
        <CharString name="guilsinglleft">
          111 callsubr
          5 callgsubr
          endchar
        </CharString>
        <CharString name="guilsinglright">
          111 callsubr
          5 callsubr
          endchar
        </CharString>
        <CharString name="h">
          80 callsubr
          hstem
          25 callsubr
          vstem
          -80 callgsubr
          endchar
        </CharString>
        <CharString name="h_uni0303">
          80 callsubr
          54 61 -5 61 38 callgsubr
          hintmask 11100110
          -80 callgsubr
          hintmask 00001000
          -71 724 -83 callgsubr
        </CharString>
        <CharString name="hbar">
          -59 callsubr
          321 58 26 58 32 58 hstem
          25 callsubr
          vstem
          -58 callgsubr
          83 96 vlineto
          14 callgsubr
          -96 49 14 callsubr
          -66 -105 callgsubr
          41 -32 -49 9 callsubr
          49 -405 -61 callgsubr
          endchar
        </CharString>
        <CharString name="hbrevebelow">
          105 callgsubr
          119 58 321 58 116 104 callgsubr
          hintmask 00111110
          -80 callgsubr
          hintmask 11000000
          -70 -159 -96 callgsubr
        </CharString>
        <CharString name="hcircumflex">
          80 callsubr
          hstemhm
          96 65 192 65 vstemhm
          -80 callgsubr
          -114 694 -104 callsubr
          endchar
        </CharString>
</ttFont>
